<ttFont>
<head>
        <!-- Most of this table will be recalculated by the compiler -->
        <tableVersion value="1.0"/>
        <fontRevision value="1.002"/>
        <checkSumAdjustment value="0xbd7aff7c"/>
        <magicNumber value="0x5f0f3cf5"/>
        <flags value="00000000 00000011"/>
        <unitsPerEm value="1000"/>
        <created value="Fri Jan 15 17:31:43 2016"/>
        <modified value="Fri Jan 15 22:31:44 2016"/>
        <xMin value="-1661"/>
        <yMin value="-316"/>
        <xMax value="687"/>
        <yMax value="1266"/>
        <macStyle value="00000000 00000000"/>
        <lowestRecPPEM value="3"/>
        <fontDirectionHint value="2"/>
        <indexToLocFormat value="0"/>
        <glyphDataFormat value="0"/>
    </head>
                    <CharString index="0">
                        rmoveto
8 61 -273 8 -81 57 -7 137 rlinecurve
381 10 rlineto
172 20 -76 119 -145 hhcurveto
-138 -112 -127 -163 -174 92 -95 331 -5 hvcurveto
-186 504 rmoveto
101 48 -75 -111 -2 hvcurveto
-313 -8 rlineto
123 6 64 71 96 hhcurveto
endchar
                    </CharString>
                    <CharString index="1">
                        224 7 83 58 72 vvcurveto
52 -51 46 -148 21 vhcurveto
190 146 -5 48 rlineto
-292 -52 hlineto
225 2 rlineto
-3 vlineto
-187 -145 -1 -31 rlineto
157 -15 55 -33 -39 vvcurveto
-42 -66 -31 -189 -6 vhcurveto
return
                    </CharString>
                    <CharString index="2">
                        rmoveto
77 71 61 101 62 hvcurveto
-44 23 rlineto
-82 -55 -45 -44 -60 hhcurveto
-56 -41 36 94 -57 hvcurveto
-51 -30 rlineto
-107 61 64 -52 74 hhcurveto
return
                    </CharString>
                    <CharString index="3">
                        -4 78 -3 71 117 vvcurveto
205 -86 64 -303 11 vhcurveto
-9 -62 246 -10 73 -37 7 -135 rlinecurve
-244 18 -115 -83 -113 vvcurveto
return
                    </CharString>
                    <CharString index="4">
                        81 hlineto
17 130 24 262 14 296 rrcurveto
-69 hlineto
-7 -175 -19 -337 -10 -86 rrcurveto
-3 hlineto
-36 128 -38 140 -34 128 rrcurveto
-48 hlineto
-33 -126 -32 -125 -40 -145 rrcurveto
-4 hlineto
-9 86 -21 337 -7 175 rrcurveto
-73 hlineto
15 -296 22 -262 18 -130 rrcurveto
83 hlineto
103 383 rlineto
endchar
                    </CharString>
                    <CharString index="5">
                        68 hlineto
19 135 22 203 14 201 rrcurveto
-68 hlineto
-10 -160 -9 -140 -12 -146 rrcurveto
-3 hlineto
-10 27 -91 259 -7 21 rrcurveto
-47 hlineto
-6 -20 -90 -258 -9 -28 rrcurveto
-5 hlineto
-13 146 -10 140 -9 159 rrcurveto
-71 hlineto
13 -201 22 -203 21 -135 rrcurveto
66 hlineto
112 320 rlineto
endchar
                    </CharString>
                    <CharString index="6">
                        rmoveto
35 -11 60 74 16 84 -13 69 rlinecurve
-7 -78 -4 -6 hhcurveto
25 -64 9 -67 -41 -81 rrcurveto
endchar
                    </CharString>
                    <CharString index="7">
                        rmoveto
2 147 rlineto
-74 -147 hlineto
-171 hmoveto
3 147 rlineto
-75 hlineto
1 -147 rlineto
return
                    </CharString>
                    <CharString index="8">
                        -191 629 rmoveto
8 hlineto
35 -116 35 -116 33 -116 rrcurveto
-214 hlineto
34 116 34 116 35 116 rrcurveto
endchar
                    </CharString>
                    <CharString index="9">
                        rmoveto
-88 -57 -50 -69 -63 60 -51 85 88 57 50 69 63 -60 51 -85 hvcurveto
-47 vmoveto
55 35 -29 -40 -41 -34 -29 -56 -55 -35 29 41 40 34 29 56 hvcurveto
return
                    </CharString>
                    <CharString index="10">
                        rmoveto
292 15 74 109 180 vvcurveto
48 0 332 -1 32 vhcurveto
16 -53 -49 9 -52 hhcurveto
-151 -134 -106 -175 -145 89 -86 118 67 55 26 31 40 hvcurveto
-1 -160 -38 -40 -264 -20 rrcurveto
166 221 rmoveto
-93 -68 64 126 131 84 73 105 37 35 -7 -12 37 hvcurveto
-329 vlineto
-26 -39 -49 -20 -49 hhcurveto
endchar
                    </CharString>
                    <CharString index="11">
                        rmoveto
-62 48 -95 93 -52 59 -57 -60 rcurveline
63 -55 108 -74 72 -42 rrcurveto
return
                    </CharString>
                    <CharString index="12">
                        rmoveto
175 24 49 50 69 175 rrcurveto
hintmask 11010000
77 188 59 159 49 140 rrcurveto
-68 hlineto
-38 -102 -76 -226 -50 -120 rrcurveto
-7 hlineto
hintmask 10110000
-67 148 -66 153 -58 149 -73 -4 rcurveline
61 -148 97 -228 71 -151 rrcurveto
2 hlineto
-41 -95 -30 -23 -142 -23 rrcurveto
endchar
                    </CharString>
                    <CharString index="13">
                        rmoveto
hintmask 11100100
-70 callgsubr
hintmask 11011000
-64 callgsubr
hintmask 11101000
-58 callgsubr
hintmask 11011000
-90 callsubr
hintmask 11100100
-91 callgsubr
                    </CharString>
                    <CharString index="14">
                        -74 -232 -68 -229 -66 -230 rrcurveto
73 hlineto
20 75 21 73 21 74 rrcurveto
246 hlineto
return
                    </CharString>
                    <CharString index="15">
                        rmoveto
53 49 58 95 39 hvcurveto
-43 18 rlineto
-68 -30 -29 -43 -32 -49 -42 121 -72 hhcurveto
-53 -49 -58 -95 -39 hvcurveto
42 -18 rlineto
67 30 30 44 32 49 43 -121 71 hhcurveto
return
                    </CharString>
                    <CharString index="16">
                        52 -249 vlineto
151 106 83 75 86 vvcurveto
73 -66 58 -226 -2 vhcurveto
-5 -52 rlineto
186 -3 52 -34 -55 vvcurveto
-71 -89 -70 -165 -115 vhcurveto
6 -48 rlineto
return
                    </CharString>
                    <CharString index="17">
                        -86 7 callsubr
33 33 29 63 63 36 -28 -40 -38 -34 -29 -56 -23 vhcurveto
-56 28 -49 27 41 vvcurveto
return
                    </CharString>
                    <CharString index="18">
                        485 472 rmoveto
-98 callgsubr
return
                    </CharString>
                    <CharString index="19">
                        51 134 71 133 85 128 rrcurveto
50 -321 vlineto
-5 -52 rlineto
264 hlineto
2 -4 -88 -125 -70 -126 -50 -131 rlinecurve
return
                    </CharString>
                    <CharString index="20">
                        -210 484 -274 hlineto
-6 -50 209 -9 rlineto
-425 -210 -55 vlineto
return
                    </CharString>
                    <CharString index="21">
                        rmoveto
6 62 -181 4 -41 57 -1 135 rlinecurve
234 6 rlineto
180 12 -48 108 -97 hhcurveto
-61 -46 -38 -66 -26 hvcurveto
hintmask 11010111
-30 71 -66 23 -130 8 -7 -62 rcurveline
159 -11 39 -32 3 -140 rrcurveto
-146 -4 -78 -61 -107 vvcurveto
-86 50 -47 66 66 50 43 46 30 vhcurveto
hintmask 10101111
38 -56 73 -30 132 -3 rrcurveto
-128 492 rmoveto
58 24 -63 -121 -3 hvcurveto
-168 -3 rlineto
127 3 31 60 55 hhcurveto
-237 -432 rmoveto
-41 -30 27 63 hvcurveto
hintmask 11001111
74 53 30 102 2 vhcurveto
-48 5 -43 13 -35 vhcurveto
hintmask 10101111
-41 -25 -34 -29 -43 hhcurveto
endchar
                    </CharString>
                    <CharString index="22">
                        rmoveto
-164 93 -120 322 19 vhcurveto
9 60 rlineto
-277 -12 -76 82 145 vvcurveto
120 62 85 282 3 vhcurveto
-5 68 rlineto
-309 -9 -101 -130 -147 vvcurveto
endchar
                    </CharString>
                    <CharString index="23">
                        rmoveto
140 69 79 98 40 36 -13 -25 28 vhcurveto
-233 -338 rlineto
-24 39 -14 52 66 vvcurveto
170 -231 rmoveto
-39 -34 13 24 -28 hvcurveto
233 336 rlineto
23 -38 13 -51 -64 vvcurveto
-141 -70 -79 -98 vhcurveto
-12 -59 rmoveto
136 114 116 177 hvcurveto
hintmask 10011100
84 -23 67 -39 47 vhcurveto
47 66 rlineto
hintmask 01101100
-44 30 -41 -59 rlineto
26 -37 -44 14 -49 hhcurveto
-135 -114 -118 -174 -86 24 -68 40 -47 hvcurveto
-47 -66 rlineto
hintmask 10101100
44 -29 41 59 rlineto
-25 36 43 -14 48 hhcurveto
endchar
                    </CharString>
                    <CharString index="24">
                        rmoveto
-301 -12 -77 106 188 vvcurveto
163 61 113 310 8 vhcurveto
-4 70 rlineto
-335 -13 -107 -163 -188 vvcurveto
-204 97 -153 349 21 vhcurveto
endchar
                    </CharString>
                    <CharString index="25">
                        65 5 rlineto
-5 125 -2 179 232 vvcurveto
-71 hlineto
return
                    </CharString>
                    <CharString index="26">
                        -116 -14 -86 -43 -54 -52 -2 25 -3 51 -1 14 rrcurveto
-200 hlineto
-5 -51 141 -8 3 -114 1 -135 3 -176 rlinecurve
-150 -55 hlineto
return
                    </CharString>
                    <CharString index="27">
                        67 29 41 36 53 vvcurveto
63 -65 42 -84 -104 -58 -60 -54 return
                    </CharString>
                    <CharString index="28">
                        18 -21 24 -5 callgsubr
219 56 348 65 return
                    </CharString>
                    <CharString index="29">
                        rmoveto
6 147 rlineto
-75 hlineto
-3 -147 rlineto
return
                    </CharString>
                    <CharString index="30">
                        rmoveto
25 60 rlineto
-202 61 -86 45 62 67 99 47 70 vvcurveto
42 -35 45 -93 22 vhcurveto
hintmask 11001000
95 25 36 45 41 62 -109 56 60 vvcurveto
53 89 48 208 60 vhcurveto
-22 61 rlineto
-253 -80 -90 -75 -75 -82 113 -50 -52 vvcurveto
-35 -41 -29 -145 -11 vhcurveto
-2 -53 rlineto
hintmask 11010000
128 -7 54 -38 -43 vvcurveto
hintmask 10110000
-54 -104 -49 -87 vvcurveto
-81 88 -51 247 -80 vhcurveto
endchar
                    </CharString>
                    <CharString index="31">
                        rmoveto
32 -12 69 100 14 89 -17 87 rlinecurve
-84 -2 24 -81 11 -79 -49 -102 rlinecurve
return
                    </CharString>
                    <CharString index="32">
                        0 55 429.5 54.5 return
                    </CharString>
                    <CharString index="33">
                        5 63 -371 -1 362 416 rlineto
61 -432 vlineto
-6 -63 357 1 -361 -416 rlineto
-61 vlineto
endchar
                    </CharString>
                    <CharString index="34">
                        -87 68 -53 98 88 68 41 41 44 vhcurveto
return
                    </CharString>
                    <CharString index="35">
                        -181 719 -235 hlineto
-6 -51 169 -8 rlineto
-660 -180 -55 vlineto
return
                    </CharString>
                    <CharString index="36">
                        rmoveto
75 45 -40 -108 hvcurveto
-342 71 364 vlineto
132 -65 55 -99 -78 -60 -35 -37 -47 vhcurveto
return
                    </CharString>
                    <CharString index="37">
                        628 26 callgsubr
-28 -20 hstemhm
94 438 hintmask 11010000
391 628 rmoveto
hintmask 10110000
53 49 58 95 39 hvcurveto
-43 18 rlineto
-68 -30 -29 -43 -32 hhcurveto
hintmask 11010000
-49 -42 121 -72 hhcurveto
-53 -49 -58 -95 -39 hvcurveto
42 -18 rlineto
67 30 30 44 32 49 43 -121 71 hhcurveto
endchar
                    </CharString>
                    <CharString index="38">
                        rmoveto
190 248 4 72 -191 252 -55 -42 191 -247 -192 -239 rlineto
return
                    </CharString>
                    <CharString index="39">
                        0 63 258 56 248 63 return
                    </CharString>
                    <CharString index="40">
                        -71 callsubr
hintmask 10111000
-5 61 -65 -4 rlineto
5 -125 2 -179 -232 vvcurveto
71 hlineto
hintmask 11011000
-38 callgsubr
                    </CharString>
                    <CharString index="41">
                        -159 -73 callgsubr
return
                    </CharString>
                    <CharString index="42">
                        rmoveto
-363 -62 363 hlineto
return
                    </CharString>
                    <CharString index="43">
                        -29 callsubr
303 58 vstem
485 return
                    </CharString>
                    <CharString index="44">
                        rmoveto
hintmask 01011100
264 -127 114 -325 -47 vhcurveto
-690 vlineto
hintmask 10101100
296 -47 156 135 271 vvcurveto
-74 -13 rmoveto
-213 -99 -105 -206 32 vhcurveto
572 vlineto
216 27 89 -91 -222 vvcurveto
endchar
                    </CharString>
                    <CharString index="45">
                        210 16 94 59 79 vvcurveto
return
                    </CharString>
                    <CharString index="46">
                        50 359 50 hstem
133 59 240 59 vstem
306 return
                    </CharString>
                    <CharString index="47">
                        -12 61 207 46 190 60 return
                    </CharString>
                    <CharString index="48">
                        hstemhm
148 58 -49 60 195 56 -52 60 return
                    </CharString>
                    <CharString index="49">
                        rmoveto
-242 -195 -98 -164 -160 vvcurveto
-157 96 -160 240 -194 vhcurveto
49 47 rlineto
-228 177 -86 146 143 vvcurveto
145 85 147 233 178 vhcurveto
endchar
                    </CharString>
                    <CharString index="50">
                        rmoveto
243 195 98 164 160 vvcurveto
157 -97 160 -239 194 vhcurveto
-49 -48 rlineto
228 -177 86 -146 -143 vvcurveto
-144 -86 -147 -232 -178 vhcurveto
endchar
                    </CharString>
                    <CharString index="51">
                        -13 60 594 60 hstem
73 69 340 70 vstem
305 -13 rmoveto
151 96 146 221 217 -82 130 -150 -151 -96 -145 -221 -217 83 -131 149 hvcurveto
return
                    </CharString>
                    <CharString index="52">
                        rmoveto
-91 callsubr
endchar
                    </CharString>
                    <CharString index="53">
                        -17 64 641 -20 hstem
97 73 284 73 vstem
return
                    </CharString>
                    <CharString index="54">
                        6 callgsubr
hstem
61 74 354 75 vstem
return
                    </CharString>
                    <CharString index="55">
                        rmoveto
34 hlineto
63 241 rlineto
3 hlineto
-1 -299 rlineto
49 362 -67 hlineto
-61 -235 rlineto
-3 hlineto
-65 235 rlineto
-67 -362 47 hlineto
-1 299 rlineto
3 hlineto
return
                    </CharString>
                    <CharString index="56">
                        49 185 43 hstem
147 56 221 56 vstem
312 return
                    </CharString>
                    <CharString index="57">
                        6 63 rlineto
-346 625 -73 -688 hlineto
return
                    </CharString>
                    <CharString index="58">
                        -245 56 180 43 -22 -21 162 52 return
                    </CharString>
                    <CharString index="59">
                        21 -21 688 -20 22 -20 hstemhm
276 74 hintmask 10110000
return
                    </CharString>
                    <CharString index="60">
                        -52 50 -34 56 -29 vhcurveto
return
                    </CharString>
                    <CharString index="61">
                        rmoveto
-94 -67 72 142 148 87 81 110 32 30 -6 -10 33 hvcurveto
-164 2 -109 2 -101 vhcurveto
-30 -37 -48 -23 -50 hhcurveto
return
                    </CharString>
                    <CharString index="62">
                        47 -59 callsubr
return
                    </CharString>
                    <CharString index="63">
                        0 90 598 -20 hstem
71 73 341 69 vstem
return
                    </CharString>
                    <CharString index="64">
                        hstem
85 71 313 70 vstem
return
                    </CharString>
                    <CharString index="65">
                        -7 62 194 49 -44 45.5 181.5 62 -58 60 hstemhm
49 69 155 64 168 66 hintmask 10101111
return
                    </CharString>
                    <CharString index="66">
                        157 50 177.5 55 return
                    </CharString>
                    <CharString index="67">
                        17 callsubr
266 71 return
                    </CharString>
                    <CharString index="68">
                        15 -21 27 -12 callsubr
240.5 54 234.5 -20 26 -20 254 -31 callgsubr
127 71 return
                    </CharString>
                    <CharString index="69">
                        55 344 51 hstem
417 57 vstem
167 return
                    </CharString>
                    <CharString index="70">
                        rmoveto
-2 89 1 108 142 vvcurveto
-70 hlineto
return
                    </CharString>
                    <CharString index="71">
                        128 18 64 39 53 vvcurveto
return
                    </CharString>
                    <CharString index="72">
                        -10 61 432 56 152 -31 callgsubr
211 71 return
                    </CharString>
                    <CharString index="73">
                        -32 callgsubr
hstem
275 73 vstem
return
                    </CharString>
                    <CharString index="74">
                        18 callgsubr
289 71 return
                    </CharString>
                    <CharString index="75">
                        rmoveto
277 249 4 73 -275 251 -48 -49 266 -238 -271 -236 rlineto
endchar
                    </CharString>
                    <CharString index="76">
                        rmoveto
0 9 7 6 9 9 7 -6 0 hflex1
0 -9 -7 -7 -9 -9 -7 6 0 hflex1
return
                    </CharString>
                    <CharString index="77">
                        -170 -21 229 58 394 60 return
                    </CharString>
                    <CharString index="78">
                        -68 callgsubr
hstem
return
                    </CharString>
                    <CharString index="79">
                        426 60 -60 63 hstemhm
129 72 return
                    </CharString>
                    <CharString index="80">
                        -1 -94 rlineto
56 hlineto
return
                    </CharString>
                    <CharString index="81">
                        676 62 hstem
131 363 vstem
494 738 -65 callsubr
endchar
                    </CharString>
                    <CharString index="82">
                        0 94 445 -20 hstem
78 71 331 68 vstem
return
                    </CharString>
                    <CharString index="83">
                        68 4 rlineto
-6 124 -2 173 236 vvcurveto
return
                    </CharString>
                    <CharString index="84">
                        56 180 43 119 52 return
                    </CharString>
                    <CharString index="85">
                        115 100 -107 -186 -187 -102 -108 -117 -117 -85 110 179 vhcurveto
return
                    </CharString>
                    <CharString index="86">
                        52 344 52 hstem
403 59 vstem
477 return
                    </CharString>
                    <CharString index="87">
                        -20 -23 callgsubr
return
                    </CharString>
                    <CharString index="88">
                        rmoveto
-35 11 -61 -73 -16 -84 13 -69 rlinecurve
91 4 -25 64 -8 67 41 80 rlinecurve
return
                    </CharString>
                    <CharString index="89">
                        rmoveto
-1 -59 rlineto
357 967 -356 -60 289 -848 hlineto
endchar
                    </CharString>
                    <CharString index="90">
                        -15 59 -29 -21 500 59 -11 -20 hstemhm
73 71 338 70 hintmask 10101100
return
                    </CharString>
                    <CharString index="91">
                        hintmask 000000000000000100000010000000000000000000000000
return
                    </CharString>
                    <CharString index="92">
                        -10 63 -26 -21 620 70 return
                    </CharString>
                    <CharString index="93">
                        47 139 47 hstemhm
return
                    </CharString>
                    <CharString index="94">
                        -4 64 566 70 hstem
83 75 vstem
return
                    </CharString>
                    <CharString index="95">
                        -21 27 -21 return
                    </CharString>
                    <CharString index="96">
                        45 vstem
568 349 rmoveto
212 -116 119 -143 return
                    </CharString>
                    <CharString index="97">
                        0 63 149 56 53 56 248 63 hstem
300 67 vstem
return
                    </CharString>
                    <CharString index="98">
                        -62 callsubr
endchar
                    </CharString>
                    <CharString index="99">
                        rmoveto
2 114 rlineto
-112 hlineto
-1 -114 rlineto
hintmask 11100000
return
                    </CharString>
                    <CharString index="100">
                        75 688 -69 hlineto
return
                    </CharString>
                    <CharString index="101">
                        147 hstemhm
return
                    </CharString>
                    <CharString index="102">
                        10 hlineto
0 6 -1 3 -4 -3 -2 -2 0 hflex1
return
                    </CharString>
                    <CharString index="103">
                        -49 callgsubr
98 50 return
                    </CharString>
                    <CharString index="104">
                        -50 callsubr
endchar
                    </CharString>
                    <CharString index="105">
                        -6 2 -3 5 4 2 2 4 1 vhcurveto
5 hlineto
return
                    </CharString>
                    <CharString index="106">
                        46.5 168 48.5 return
                    </CharString>
                    <CharString index="107">
                        hintmask 010000000000000000000000000000000000000000000000
return
                    </CharString>
                    <CharString index="108">
                        -168 -21 28 -21 169 return
                    </CharString>
                    <CharString index="109">
                        rlineto
-281 return
                    </CharString>
                    <CharString index="110">
                        hmoveto
5 116 rlineto
-100 hlineto
-5 -116 rlineto
return
                    </CharString>
                    <CharString index="111">
                        172 61 187 60 hstem
98 429 vstem
return
                    </CharString>
                    <CharString index="112">
                        -4 60 423 68 return
                    </CharString>
                    <CharString index="113">
                        -15 59 449 60 return
                    </CharString>
                    <CharString index="114">
                        350 rmoveto
return
                    </CharString>
                    <CharString index="115">
                        129 73 return
                    </CharString>
                    <CharString index="116">
                        -27 callgsubr
vstem
return
                    </CharString>
                    <CharString index="117">
                        -29 callgsubr
vstem
return
                    </CharString>
                    <CharString index="118">
                        108 50 109 52 344 52 hstemhm
return
                    </CharString>
                    <CharString index="119">
                        -139.5 49.5 return
                    </CharString>
                    <CharString index="120">
                        -20 109 -20 return
                    </CharString>
                    <CharString index="121">
                        111.5 hintmask 11010000
372 return
                    </CharString>
                    <CharString index="122">
                        1030 hstem
136 71 vstem
476 return
                    </CharString>
                    <CharString index="123">
                        -202 3 2 183 -70 1 rlineto
return
                    </CharString>
                    <CharString index="124">
                        hstemhm
104 72 return
                    </CharString>
                    <CharString index="125">
                        -15 callgsubr
hstemhm
return
                    </CharString>
                    <CharString index="126">
                        hstem
150 329 vstem
426 return
                    </CharString>
                    <CharString index="127">
                        rmoveto
1 114 rlineto
-111 hlineto
return
                    </CharString>
                    <CharString index="128">
                        51 -35 142 -13 vhcurveto
endchar
                    </CharString>
                    <CharString index="129">
                        -214 333 hstem
return
                    </CharString>
                    <CharString index="130">
                        257.5 return
                    </CharString>
                    <CharString index="131">
                        -70.5 return
                    </CharString>
                    <CharString index="132">
                        hstem
92 451 vstem
return
                    </CharString>
                <CharString name=".notdef">
                    443 -200 50 900 50 hstem
5 54 432 54 vstem
5 -200 rmoveto
540 1000 -540 hlineto
77 -50 rmoveto
386 hlineto
-193 -390 rlineto
216 316 rmoveto
-752 vlineto
-186 376 rlineto
-246 -376 rmoveto
752 vlineto
186 -376 rlineto
30 -60 rmoveto
193 -390 rlineto
-386 hlineto
endchar
                </CharString>
                <CharString name="A">
                    -79 callsubr
-6 callgsubr
hintmask 10011100
498 -3 -97 callgsubr
                </CharString>
                <CharString name="AE">
                    -10 callsubr
294 625 -71 callgsubr
                </CharString>
                <CharString name="AEacute">
                    -10 callsubr
253 800 -107 callgsubr
41 -175 -71 callgsubr
                </CharString>
                <CharString name="Aacute">
                    -79 callsubr
-6 callgsubr
hintmask 00111100
204 800 -107 callgsubr
hintmask 10011100
294 -803 -97 callgsubr
                </CharString>
                <CharString name="Abreve">
                    -79 callsubr
85 59 -6 callgsubr
hintmask 00111110
308 776 -105 callsubr
hintmask 10011110
190 -779 rmoveto
hintmask 00111110
-82 callgsubr
hintmask 01011110
-93 callsubr
hintmask 10011110
22 -75 21 7 callgsubr
rrcurveto
hintmask 00111110
-99 callsubr
                </CharString>
                <CharString name="Acircumflex">
                    -79 callsubr
-6 callgsubr
hintmask 00111100
458 771 -100 callgsubr
hintmask 10011100
191 -906 -97 callgsubr
                </CharString>
                <CharString name="Adieresis">
                    -79 callsubr
88 -6 callsubr
155.5 -67 callgsubr
hintmask 00111111
470 779 -100 callsubr
hintmask 10011111
342 -782 rmoveto
hintmask 00111111
-82 callgsubr
hintmask 01011111
-93 callsubr
hintmask 10011111
22 -75 21 7 callgsubr
rrcurveto
hintmask 00111111
-99 callsubr
                </CharString>
                <CharString name="Agrave">
                    -79 callsubr
-6 callgsubr
hintmask 00111100
415 791 -96 callsubr
hintmask 10011100
106 -763 -97 callgsubr
                </CharString>
                <CharString name="Amacron">
                    -79 callsubr
134 62 -6 callgsubr
hintmask 00111110
493 887 -65 callsubr
hintmask 10011110
5 -828 rmoveto
hintmask 00111110
-82 callgsubr
hintmask 01011110
-93 callsubr
hintmask 10011110
22 -75 21 7 callgsubr
rrcurveto
hintmask 00111110
-99 callsubr
                </CharString>
                <CharString name="Aogonek">
                    21 -21 24 -5 callgsubr
216 56 348 65 hstemhm
354 66 hintmask 00111100
547 -231 20 callgsubr
28 vvcurveto
hintmask 01011100
26 32 36 120 57 vhcurveto
-66 229 -68 228 -74 231 rrcurveto
-103 hlineto
hintmask 10011100
-93 callsubr
hintmask 00111100
21 -72 20 -72 20 -72 rrcurveto
-103 -55 -38 -42 -42 -43 callgsubr
-240 857 rmoveto
8 hlineto
35 -116 35 -116 33 -116 rrcurveto
-214 hlineto
34 116 34 116 35 116 rrcurveto
endchar
                </CharString>
                <CharString name="Aring">
                    -79 callsubr
63 -14 callsubr
165 -12 callgsubr
hintmask 0011111110000000
310 987 -98 callsubr
hintmask 1001111110000000
188 -943 rmoveto
hintmask 0011111110000000
-82 callgsubr
hintmask 0101111110000000
-93 callsubr
hintmask 1001111110000000
22 -75 21 7 callgsubr
rrcurveto
hintmask 0011111110000000
-99 callsubr
                </CharString>
                <CharString name="Aringacute">
                    -79 callsubr
63 -14 callsubr
165 -12 callgsubr
hintmask 0011111110000000
204 1068 -107 callgsubr
106 -81 -98 callsubr
hintmask 1001111110000000
188 -943 rmoveto
hintmask 0011111110000000
-82 callgsubr
hintmask 0101111110000000
-93 callsubr
hintmask 1001111110000000
22 -75 21 7 callgsubr
rrcurveto
hintmask 0011111110000000
-99 callsubr
                </CharString>
                <CharString name="Atilde">
                    -79 callsubr
86 26 callgsubr
-6 callgsubr
hintmask 00111111
397 777 -92 callsubr
hintmask 10011111
101 -780 rmoveto
hintmask 00111111
-82 callgsubr
hintmask 01011111
-93 callsubr
hintmask 10011111
22 -75 21 7 callgsubr
rrcurveto
hintmask 00111111
-99 callsubr
                </CharString>
                <CharString name="B">
                    -10 60 -29 -21 319 55 263 60 -9 -20 hstemhm
118 73 267 70 -48 72 hintmask 10110101
552 192 rmoveto
-1 99 -66 50 -100 17 rrcurveto
hintmask 01101110
81 24 62 54 94 vvcurveto
147 -158 41 -252 -30 vhcurveto
-688 vlineto
hintmask 10110101
246 -34 189 53 -1 173 rrcurveto
-361 441 rmoveto
hintmask 10110110
161 18 106 -31 -107 vvcurveto
-98 -72 -45 -195 4 vhcurveto
hintmask 10110101
-317 vmoveto
262 vlineto
192 6 97 -26 -112 vvcurveto
-122 -115 -31 -174 23 vhcurveto
endchar
                </CharString>
                <CharString name="C">
                    -13 callsubr
536 60 -83 callsubr
                </CharString>
                <CharString name="Cacute">
                    -13 callsubr
247 800 -107 callgsubr
289 -740 -83 callsubr
                </CharString>
                <CharString name="Ccaron">
                    -13 callsubr
362 765 -102 callgsubr
177 -705 -83 callsubr
                </CharString>
                <CharString name="Ccedilla">
                    -4 64 -48 -21 635 70 hstemhm
83 75 213 63 hintmask 10111000
434 -123 rmoveto
40 -35 44 -77 48 vhcurveto
56 -13 69 -5 82 5 7 64 rcurveline
-301 -12 -77 106 188 vvcurveto
163 61 113 310 8 vhcurveto
-4 70 rlineto
-335 -13 -107 -163 -188 vvcurveto
hintmask 01111000
-143 48 -118 148 -50 vhcurveto
-16 -30 rlineto
-62 callgsubr
6 -58 rlineto
hintmask 10111000
-36 callsubr
endchar
                </CharString>
                <CharString name="Cdotaccent">
                    -4 64 566 70 83 8 callgsubr
83 75 161.5 -42 callgsubr
vstem
390 779 -78 callsubr
218 -719 -83 callsubr
                </CharString>
                <CharString name="D">
                    -10 63 -33 -21 637 -28 callgsubr
hintmask 10101100
559 358 -63 callsubr
                </CharString>
                <CharString name="Dcaron">
                    -10 63 -33 -21 637 -28 callgsubr
hintmask 10101100
311 773 -102 callgsubr
251 -415 -63 callsubr
                </CharString>
                <CharString name="Dcroat">
                    -79 callgsubr
                </CharString>
                <CharString name="E">
                    -68 callsubr
hstem
8 callsubr
vstem
544 63 rmoveto
-89 callgsubr
                </CharString>
                <CharString name="Eacute">
                    -68 callsubr
hstem
8 callsubr
vstem
230 800 -107 callgsubr
314 -737 rmoveto
-89 callgsubr
                </CharString>
                <CharString name="Ebreve">
                    -68 callsubr
88 59 hstem
8 callsubr
vstem
334 776 -105 callsubr
210 -713 rmoveto
-89 callgsubr
                </CharString>
                <CharString name="Ecaron">
                    -68 callsubr
hstem
8 callsubr
vstem
344 765 -102 callgsubr
203 -702 rmoveto
-89 callgsubr
                </CharString>
                <CharString name="Ecircumflex">
                    -68 callsubr
hstem
8 callsubr
vstem
484 771 -100 callgsubr
211 -840 rmoveto
-89 callgsubr
                </CharString>
                <CharString name="Edieresis">
                    -68 callsubr
91 -6 callsubr
8 callsubr
-20.5 -67 callgsubr
hintmask 11111010
496 779 rmoveto
2 147 rlineto
-74 -147 hlineto
hintmask 11110110
-171 hmoveto
3 147 rlineto
-75 hlineto
1 -147 rlineto
362 -716 rmoveto
hintmask 11111010
-89 callgsubr
                </CharString>
                <CharString name="Edotaccent">
                    -68 callsubr
91 8 callgsubr
8 callsubr
99.5 -42 callgsubr
vstem
372 779 -78 callsubr
244 -716 rmoveto
-89 callgsubr
                </CharString>
                <CharString name="Egrave">
                    -68 callsubr
hstem
8 callsubr
vstem
441 791 -96 callsubr
126 -697 rmoveto
-89 callgsubr
                </CharString>
                <CharString name="Emacron">
                    -68 callsubr
137 62 hstem
8 callsubr
vstem
519 887 -65 callsubr
25 -762 rmoveto
-89 callgsubr
                </CharString>
                <CharString name="Eogonek">
                    -68 callsubr
hstem
8 callsubr
118 66 vstem
520 -175 rmoveto
13 callgsubr
28 vvcurveto
27 32 35 118 57 vhcurveto
1 hlineto
7 63 rlineto
-342 258 293 56 -293 248 337 63 -410 -688 326 hlineto
-99 -53 -36 -42 -41 -43 callgsubr
endchar
                </CharString>
                <CharString name="Eth">
                    -79 callgsubr
                </CharString>
                <CharString name="Euro">
                    223 56 -50 51 119 52 261 -20 hstemhm
152 64 hintmask 01111000
545 38 rmoveto
-197 29 -86 61 -31 101 rrcurveto
245 hlineto
3 51 rlineto
-259 hlineto
-3 20 -1 22 23 vvcurveto
19 1 18 1 17 vhcurveto
262 hlineto
2 52 rlineto
-255 hlineto
25 104 80 56 206 32 -13 69 rcurveline
-234 -45 -98 -87 -31 -125 rrcurveto
-84 -56 74 hlineto
hintmask 10111000
-2 -19 -1 -19 0 -20 0 -22 1 -20 -20 flex1
-73 -56 84 hlineto
35 -133 108 -85 229 -28 rrcurveto
endchar
                </CharString>
                <CharString name="F">
                    21 -21 308 58 259 63 hstem
136 74 vstem
506 308 rmoveto
58 -296 259 342 63 -416 -688 74 308 vlineto
endchar
                </CharString>
                <CharString name="G">
                    -15 callsubr
hstemhm
70 74 316 70 hintmask 01111000
531 6 -37 callsubr
hintmask 10111000
-81 callgsubr
hintmask 01111000
0 callgsubr
                </CharString>
                <CharString name="Gbreve">
                    -15 callsubr
80 59 hstemhm
70 74 316 70 hintmask 01111100
327 776 -105 callsubr
204 -770 -37 callsubr
hintmask 10111100
-81 callgsubr
hintmask 01111100
0 callgsubr
                </CharString>
                <CharString name="Gcommaaccent">
                    -15 callsubr
hstemhm
70 74 157 74 85 70 hintmask 01111100
531 6 -37 callsubr
hintmask 10111100
-81 callgsubr
hintmask 01111100
-34 callgsubr
-258 -308 -101 callsubr
                </CharString>
                <CharString name="Gdotaccent">
                    -15 callsubr
83 -6 callsubr
70 74 150.5 -42 callgsubr
92 70 hintmask 01111110
365 779 -78 callsubr
238 -773 -37 callsubr
hintmask 10111110
-81 callgsubr
hintmask 01111110
0 callgsubr
                </CharString>
                <CharString name="H">
                    21 -21 320 58 310 -20 hstem
101 74 274 74 vstem
449 hmoveto
74 688 -74 -310 -274 310 -74 -688 74 320 274 hlineto
endchar
                </CharString>
                <CharString name="Hbar">
                    21 -21 307 57 133 53 -51 49 -49 189 hstemhm
101 74 274 74 hintmask 11010110
449 364 rmoveto
-274 135 274 hlineto
-499 vmoveto
74 hlineto
hintmask 11100110
497 83 53 -83 vlineto
hintmask 11001110
138 -74 vlineto
hintmask 11010110
-140 -274 vlineto
hintmask 11001110
140 -74 vlineto
hintmask 11100110
-138 -82 -53 82 -497 74 307 274 vlineto
endchar
                </CharString>
                <CharString name="I">
                    -34 callsubr
348 630 -88 callgsubr
                </CharString>
                <CharString name="Iacute">
                    -34 callsubr
206 800 -107 callgsubr
142 -170 -88 callgsubr
                </CharString>
                <CharString name="Ibreve">
                    -32 callgsubr
88 59 hstem
275 73 vstem
311 776 -105 callsubr
37 -146 -88 callgsubr
                </CharString>
                <CharString name="Icircumflex">
                    -34 callsubr
461 771 -100 callgsubr
38 -273 -88 callgsubr
                </CharString>
                <CharString name="Idieresis">
                    -32 callgsubr
91 8 callgsubr
157.5 73 44.5 73 52 73 vstem
472 779 -100 callsubr
190 -149 -88 callgsubr
                </CharString>
                <CharString name="Idotaccent">
                    -32 callgsubr
91 -6 callsubr
275 73 -69.5 -42 callgsubr
hintmask 11101000
349 779 -78 callsubr
hintmask 11110000
71 -149 -88 callgsubr
                </CharString>
                <CharString name="Igrave">
                    -34 callsubr
418 791 -96 callsubr
-47 -130 -88 callgsubr
                </CharString>
                <CharString name="Imacron">
                    -32 callgsubr
137 62 hstem
275 73 vstem
495 887 -65 callsubr
-147 -195 -88 callgsubr
                </CharString>
                <CharString name="Iogonek">
                    -32 callgsubr
hstemhm
189 66 20 73 hintmask 11010000
389 -174 rmoveto
hintmask 11110000
-97 11 -37 18 30 vvcurveto
27 22 32 68 56 vhcurveto
178 hlineto
6 58 rlineto
hintmask 11010000
-181 572 176 58 -426 -58 177 -572 hlineto
hintmask 11110000
-177 -58 184 hlineto
-67 -52 -26 -38 -40 vvcurveto
-55 21 callsubr
                </CharString>
                <CharString name="J">
                    -12 67 574 59 hstem
396 73 vstem
152 688 rmoveto
-59 244 -411 vlineto
-139 -41 -34 -245 10 vhcurveto
-67 vlineto
274 -7 85 74 163 vvcurveto
470 vlineto
endchar
                </CharString>
                <CharString name="K">
                    -13 callgsubr
hintmask 10011100
497 -6 rmoveto
hintmask 00111100
-30 callgsubr
hintmask 01011100
-688 73 318 77 vlineto
endchar
                </CharString>
                <CharString name="Kcommaaccent">
                    -13 callgsubr
94 74 hintmask 10011110
497 -6 rmoveto
hintmask 00111110
-30 callgsubr
hintmask 01011110
-688 73 318 77 vlineto
-11 -616 -101 callsubr
                </CharString>
                <CharString name="L">
                    10 callsubr
552 hmoveto
-3 callsubr
                </CharString>
                <CharString name="Lacute">
                    10 callsubr
239 800 -107 callgsubr
313 -800 -7 callgsubr
                </CharString>
                <CharString name="Lcaron">
                    0 63 625 -20 107 -20 hstem
139 73 248 71 vstem
426 511 -76 callsubr
126 -511 -7 callgsubr
                </CharString>
                <CharString name="Lcommaaccent">
                    -29 callgsubr
106 74 vstem
552 hmoveto
-50 callsubr
151 -292 -101 callsubr
                </CharString>
                <CharString name="Ldot">
                    0 63 235 109 281 -20 hstem
139 73 223 91 vstem
552 hmoveto
-50 callsubr
384 298 rmoveto
6 109 rlineto
-91 hlineto
-6 -109 rlineto
endchar
                </CharString>
                <CharString name="Lslash">
                    10 callsubr
552 hmoveto
6 63 rlineto
-346 312 hlineto
179 93 -13 52 -166 -87 rlineto
255 -73 -293 vlineto
-94 -49 12 -51 82 42 rlineto
-337 vlineto
endchar
                </CharString>
                <CharString name="M">
                    21 -21 111 92 372 113 hstem
85 66.5 318 69.5 vstem
447 688 rmoveto
0 -111 -410 -20 -75 vhcurveto
-5 hlineto
-20 75 -113 410 0 vvcurveto
-93 -688 68 hlineto
-3 575 rlineto
4 hlineto
129 -464 rlineto
58 hlineto
125 464 rlineto
5 hlineto
-3 -575 rlineto
71 688 hlineto
endchar
                </CharString>
                <CharString name="N">
                    -56 callgsubr
448 hmoveto
-7 callsubr
hintmask 10111000
-75 callgsubr
endchar
                </CharString>
                <CharString name="NUL">
                    -107 endchar
                </CharString>
                <CharString name="Nacute">
                    -56 callgsubr
203 800 -107 callgsubr
245 -800 rmoveto
-7 callsubr
hintmask 10111000
-75 callgsubr
endchar
                </CharString>
                <CharString name="Ncaron">
                    -56 callgsubr
318 765 -102 callgsubr
133 -765 rmoveto
-7 callsubr
hintmask 10111000
-75 callgsubr
endchar
                </CharString>
                <CharString name="Ncommaaccent">
                    -40 callgsubr
hstemhm
102 67 113 74 99.5 67.5 hintmask 01111100
448 hmoveto
-7 callsubr
hintmask 10111100
-75 callgsubr
80 -867 -101 callsubr
                </CharString>
                <CharString name="Ntilde">
                    -40 callgsubr
89 26 callgsubr
hstemhm
102 67 286.5 67.5 hintmask 01111110
396 777 -92 callsubr
52 -777 rmoveto
-7 callsubr
hintmask 10111110
-75 callgsubr
endchar
                </CharString>
                <CharString name="O">
                    -53 callsubr
302 -17 -106 callgsubr
                </CharString>
                <CharString name="OE">
                    -68 callsubr
hstem
52 73 186 67 vstem
125 344 rmoveto
192 60 86 126 2 vhcurveto
-560 vlineto
-130 2 -56 83 195 vvcurveto
444 -281 rmoveto
-191 258 159 56 -159 248 187 63 -229 hlineto
-193 -91 -130 -227 -225 88 -106 194 hvcurveto
230 hlineto
endchar
                </CharString>
                <CharString name="Oacute">
                    -53 callsubr
208 808 -107 callgsubr
94 -825 -106 callgsubr
                </CharString>
                <CharString name="Obreve">
                    6 callgsubr
79 59 hstem
61 74 354 75 vstem
312 784 -105 callsubr
-10 -801 -106 callgsubr
                </CharString>
                <CharString name="Ocircumflex">
                    -53 callsubr
462 779 -100 callgsubr
-9 -928 -106 callgsubr
                </CharString>
                <CharString name="Odieresis">
                    6 callgsubr
82 -6 callsubr
61 74 24.5 -67 callgsubr
14 75 vstemhm
474 787 -100 callsubr
hintmask 11110010
142 -804 -106 callgsubr
                </CharString>
                <CharString name="Ograve">
                    -53 callsubr
419 799 -96 callsubr
-94 -785 -106 callgsubr
                </CharString>
                <CharString name="Ohungarumlaut">
                    -53 callsubr
158 800 -92 callgsubr
-85 -816 -106 callgsubr
                </CharString>
                <CharString name="Omacron">
                    6 callgsubr
128 62 hstem
61 74 354 75 vstem
497 895 -65 callsubr
-195 -850 -106 callgsubr
                </CharString>
                <CharString name="Omega">
                    0 58 -32 -21 632 66 hstemhm
89 68 309 71 hintmask 01111000
256 5 rmoveto
-68 164 -31 137 105 vvcurveto
141 55 85 100 100 54 -85 -143 vhcurveto
hintmask 10111000
-105 -29 -137 -67 -162 vhcurveto
2 -5 rlineto
195 58 -120 hlineto
61 138 29 123 101 vvcurveto
171 -77 112 -144 -145 -82 -113 -171 -102 29 -122 61 -137 vhcurveto
-121 -58 195 hlineto
endchar
                </CharString>
                <CharString name="Oslash">
                    -17 callgsubr
134 347 -84 callgsubr
                </CharString>
                <CharString name="Oslashacute">
                    -17 callgsubr
205 808 -107 callgsubr
-71 -461 -84 callgsubr
                </CharString>
                <CharString name="Otilde">
                    6 callgsubr
80 26 callgsubr
hstem
61 74 354 75 vstem
401 785 -92 callsubr
-99 -802 -106 callgsubr
                </CharString>
                <CharString name="P">
                    21 -21 232 66 338 62 -12 -20 hstemhm
123 73 290 72 hintmask 11101100
196 hmoveto
232 vlineto
219 12 143 73 162 vvcurveto
hintmask 11011100
166 -148 87 -287 -46 vhcurveto
-686 vlineto
hintmask 11101100
363 466 rmoveto
-131 -105 -48 -185 11 vhcurveto
332 vlineto
196 27 94 -68 -123 vvcurveto
endchar
                </CharString>
                <CharString name="Q">
                    -15 60 -58 58 598 62 hstemhm
61 74 354 75 hintmask 01111000
505 -144 rmoveto
22 61 -181 69 rlineto
1 vlineto
135 23 84 130 -1 217 rrcurveto
223 -1 -88 125 -152 hhcurveto
-160 -102 -133 -241 hvcurveto
hintmask 10111000
-208 78 -124 135 -14 vhcurveto
-14 -39 rlineto
50 697 rmoveto
117 62 -105 -196 hvcurveto
hintmask 01111000
-193 -61 -104 -114 -118 -61 105 197 vhcurveto
hintmask 10111000
193 61 103 114 vhcurveto
endchar
                </CharString>
                <CharString name="R">
                    -72 callgsubr
265 72 hintmask 10011011
496 -11 -83 callgsubr
                </CharString>
                <CharString name="R_p">
                    1 callsubr
59 -34 -21 26 -21 25 -12 callsubr
23 callsubr
52 176.5 58 -11 -20 119 58 -10 -20 hstemhm
57 62 111 62 59 62 115 60 hintmask 0100100110101111
253 -4 rmoveto
hintmask 0100001110011111
62 10 -85 294 rlineto
37 44 25 66 94 vvcurveto
140 -60 82 -175 -40 vhcurveto
hintmask 0100010110101111
-686 62 262 vlineto
58 3 rlineto
-58 370 rmoveto
80 15 31 -51 -107 vvcurveto
-74 -16 -60 -25 -41 vhcurveto
-70 -3 rlineto
hintmask 0110000110101111
337 -268 rmoveto
-16 -13 2 8 -14 hvcurveto
184 -2 116 -2 100 vhcurveto
21 18 21 15 20 hhcurveto
43 17 -72 -149 -157 -19 -68 -53 hvcurveto
-43 -228 rmoveto
hintmask 0101000110101111
173 vlineto
hintmask 0110000110101111
-2 10 10 -2 10 hhcurveto
93 52 93 218 157 -29 95 -66 -36 -30 -24 -26 -21 hvcurveto
hintmask 1010000101101111
-3 39 -56 -4 rlineto
3 -116 1 -174 -246 vvcurveto
-188 vlineto
endchar
                </CharString>
                <CharString name="Racute">
                    -72 callgsubr
265 72 hintmask 00111011
195 810 -107 callgsubr
hintmask 10011011
301 -821 -83 callgsubr
                </CharString>
                <CharString name="Rcaron">
                    -72 callgsubr
265 72 hintmask 00111011
310 775 -102 callgsubr
hintmask 10011011
189 -786 -83 callgsubr
                </CharString>
                <CharString name="Rcommaaccent">
                    -72 callgsubr
123 74 68 72 hintmask 1001101110000000
496 -11 rmoveto
hintmask 0011011110000000
77 13 -166 297 rlineto
68 48 51 64 93 vvcurveto
140 -106 91 -304 -49 vhcurveto
hintmask 0101101110000000
-686 73 260 vlineto
159 4 rlineto
-159 366 rmoveto
187 29 78 -65 -105 vvcurveto
-77 -41 -55 -57 -39 vhcurveto
-167 -3 rlineto
95 -618 -101 callsubr
                </CharString>
                <CharString name="S">
                    -2 callgsubr
105 63 -87 callgsubr
endchar
                </CharString>
                <CharString name="Sacute">
                    -2 callgsubr
227 804 -107 callgsubr
-122 -741 -87 callgsubr
endchar
                </CharString>
                <CharString name="Scaron">
                    -2 callgsubr
342 769 -102 callgsubr
-234 -706 -87 callgsubr
endchar
                </CharString>
                <CharString name="Scedilla">
                    -166 -21 181 64 -59 59 570 65 hstemhm
106 74 158 63 60 74 hintmask 11011110
209 -245 rmoveto
-36 callsubr
hintmask 10111110
40 -36 45 -79 49 vhcurveto
177 24 72 85 79 166 -355 48 127 vvcurveto
62 67 51 250 -16 vhcurveto
-5 68 2 callsubr
16 -105 -98 -95 -161 355 -45 -134 vvcurveto
hintmask 11011110
-71 -94 -65 -262 23 vhcurveto
-1 -69 49 -3 45 0 40 3 rlinecurve
-8 -15 rlineto
-62 callgsubr
endchar
                </CharString>
                <CharString name="Scommaaccent">
                    -20 callgsubr
104 74 103 74 vstem
105 63 -87 callgsubr
151 -368 -101 callsubr
                </CharString>
                <CharString name="T">
                    12 callgsubr
350 625 -41 callgsubr
endchar
                </CharString>
                <CharString name="Tcaron">
                    12 callgsubr
318 765 -102 callgsubr
35 -140 -41 callgsubr
endchar
                </CharString>
                <CharString name="Tcommaaccent">
                    21 -21 625 63 hstemhm
276 74 -68 74 hintmask 11100000
350 625 -41 callgsubr
hintmask 11010000
-96 -292 -101 callsubr
                </CharString>
                <CharString name="Thorn">
                    21 -21 119 67 330 62 -62 172 hstemhm
124 73 292 73 hintmask 11101100
197 hmoveto
119 vlineto
220 12 145 73 159 vvcurveto
153 -129 81 -236 -22 vhcurveto
hintmask 11011100
113 -73 -688 vlineto
hintmask 11101100
365 7 callsubr
-128 -107 -45 -185 9 vhcurveto
324 vlineto
192 26 100 -65 -121 vvcurveto
endchar
                </CharString>
                <CharString name="U">
                    -54 callsubr
307 -17 -101 callgsubr
                </CharString>
                <CharString name="Uacute">
                    -54 callsubr
205 800 -107 callgsubr
102 -817 -101 callgsubr
                </CharString>
                <CharString name="Ubreve">
                    -17 64 641 -20 108 59 hstem
97 73 284 73 vstem
309 776 -105 callsubr
-2 -793 -101 callgsubr
                </CharString>
                <CharString name="Ucircumflex">
                    -54 callsubr
459 771 -100 callgsubr
-1 -920 -101 callgsubr
                </CharString>
                <CharString name="Udieresis">
                    -17 64 641 -20 111 -6 callsubr
97 73 -13.5 -67 callgsubr
-18 73 hintmask 11101100
471 779 -100 callsubr
hintmask 11110010
150 -796 -101 callgsubr
                </CharString>
                <CharString name="Ugrave">
                    -54 callsubr
416 791 -96 callsubr
-86 -777 -101 callgsubr
                </CharString>
                <CharString name="Uhungarumlaut">
                    -54 callsubr
155 792 -92 callgsubr
-77 -808 -101 callgsubr
                </CharString>
                <CharString name="Umacron">
                    -17 64 641 -20 157 62 hstem
97 73 284 73 vstem
494 887 -65 callsubr
-187 -842 -101 callgsubr
                </CharString>
                <CharString name="Uogonek">
                    -18 65 641 -20 hstem
97 73 47 66 171 73 vstem
410 -234 20 callgsubr
29 vvcurveto
29 31 33 100 63 vhcurveto
81 50 32 59 104 vvcurveto
468 -73 -478 vlineto
-114 -45 -49 -94 -90 -55 57 122 vhcurveto
462 -73 -470 vlineto
-148 75 -84 136 -4 vhcurveto
-68 -45 -23 -36 -37 -43 callgsubr
endchar
                </CharString>
                <CharString name="Uring">
                    -17 64 641 -20 86 -14 callsubr
97 73 -4 -12 callgsubr
-2 73 hintmask 11110110
311 987 -98 callsubr
hintmask 11111001
-4 -957 -101 callgsubr
                </CharString>
                <CharString name="V">
                    -2 67 623 -20 23 -20 hstemhm
55 514 hintmask 10110000
365 -2 rmoveto
hintmask 11010000
74 232 67 229 63 229 rrcurveto
-71 hlineto
-57 -209 -59 -206 -63 -208 rrcurveto
-10 hlineto
hintmask 10110000
-63 208 -60 209 -57 209 -74 -6 rcurveline
64 -229 67 -226 73 -232 rrcurveto
endchar
                </CharString>
                <CharString name="W">
                    -44 callsubr
418 hmoveto
-103 callsubr
                </CharString>
                <CharString name="Wacute">
                    -44 callsubr
209 800 -107 callgsubr
209 -800 rmoveto
-103 callsubr
                </CharString>
                <CharString name="Wcircumflex">
                    -44 callsubr
463 771 -100 callgsubr
106 -903 rmoveto
-103 callsubr
                </CharString>
                <CharString name="Wdieresis">
                    0 90 598 -20 111 -6 callsubr
71 73 16.5 -67 callgsubr
9 69 hintmask 11101100
475 779 -100 callsubr
257 -779 rmoveto
hintmask 11111110
-103 callsubr
                </CharString>
                <CharString name="Wgrave">
                    -44 callsubr
421 791 -96 callsubr
20 -760 rmoveto
-103 callsubr
                </CharString>
                <CharString name="X">
                    18 -21 24 -5 callgsubr
682 7 -4 -20 24 -20 hstemhm
59 510 hintmask 10000110
490 -3 rmoveto
hintmask 00101010
78 6 -209 342 210 343 rlineto
-79 hlineto
-173 -293 rlineto
hintmask 00100110
-179 297 rlineto
hintmask 01010010
-79 -7 210 -342 -210 -343 rlineto
78 hlineto
173 293 rlineto
endchar
                </CharString>
                <CharString name="Y">
                    -48 callsubr
350 hmoveto
-80 callgsubr
                </CharString>
                <CharString name="Yacute">
                    -48 callsubr
208 802 -107 callgsubr
142 -802 rmoveto
-80 callgsubr
                </CharString>
                <CharString name="Ycircumflex">
                    -48 callsubr
462 773 -100 callgsubr
39 -905 rmoveto
-80 callgsubr
                </CharString>
                <CharString name="Ydieresis">
                    21 -21 688 -20 22 -20 111 -6 callsubr
159.5 73 43.5 74 52 73 hintmask 10111110
474 781 -100 callsubr
190 -781 rmoveto
230 vlineto
hintmask 11011110
224 458 rlineto
-76 hlineto
-183 -388 rlineto
hintmask 10111110
-185 390 -78 -3 224 -459 rlineto
-228 vlineto
endchar
                </CharString>
                <CharString name="Ygrave">
                    -48 callsubr
420 793 -96 callsubr
-47 -762 rmoveto
-80 callgsubr
                </CharString>
                <CharString name="Z">
                    -44 callgsubr
hstem
84 460 vstem
539 hmoveto
-74 callgsubr
                </CharString>
                <CharString name="Zacute">
                    -44 callgsubr
hstem
84 460 vstem
218 800 -107 callgsubr
321 -800 rmoveto
-74 callgsubr
                </CharString>
                <CharString name="Zcaron">
                    -44 callgsubr
hstem
84 460 vstem
332 765 -102 callgsubr
210 -765 rmoveto
-74 callgsubr
                </CharString>
                <CharString name="Zdotaccent">
                    -44 callgsubr
91 8 callgsubr
289.5 -42 callgsubr
vstem
360 779 -78 callsubr
251 -779 rmoveto
-74 callgsubr
                </CharString>
                <CharString name="a">
                    -78 callgsubr
-33 callsubr
hintmask 10011110
279 45 -99 callgsubr
                </CharString>
                <CharString name="aacute">
                    -78 callgsubr
-33 callsubr
hintmask 10011110
204 653 -107 callgsubr
75 -608 -99 callgsubr
                </CharString>
                <CharString name="abreve">
                    -78 callgsubr
81 59 -33 callsubr
hintmask 10011111
309 629 -105 callsubr
-30 -584 rmoveto
-86 callgsubr
-37 -45 -63 -29 -62 hhcurveto
hintmask 01011111
180 -48 rmoveto
hintmask 00111111
65 5 rlineto
-104 callsubr
hintmask 10011111
-73 callsubr
hintmask 01011111
-65 callgsubr
                </CharString>
                <CharString name="acircumflex">
                    -78 callgsubr
-33 callsubr
hintmask 10011110
459 624 -100 callgsubr
-29 -711 -99 callgsubr
                </CharString>
                <CharString name="acute">
                    618 231 hstem
199 267 vstem
199 651 -107 callgsubr
endchar
                </CharString>
                <CharString name="acute.cap">
                    618 231 hstem
199 267 vstem
199 651 -107 callgsubr
endchar
                </CharString>
                <CharString name="adieresis">
                    -78 callgsubr
84 147 18 callgsubr
-0.5 -67 callgsubr
-26 71 hintmask 1001110110000000
471 632 -100 callsubr
122 -587 rmoveto
hintmask 1001111001000000
-86 callgsubr
hintmask 1001110110000000
-37 -45 -63 -29 -62 hhcurveto
hintmask 0101110101000000
180 -48 rmoveto
hintmask 0011111001000000
65 5 rlineto
-104 callsubr
hintmask 1001111001000000
-73 callsubr
hintmask 0101110101000000
-65 callgsubr
                </CharString>
                <CharString name="ae">
                    -42 callsubr
554 -7 -86 callsubr
                </CharString>
                <CharString name="aeacute">
                    -42 callsubr
204 651 -107 callgsubr
350 -658 -86 callsubr
                </CharString>
                <CharString name="agrave">
                    -78 callgsubr
-33 callsubr
hintmask 10011110
416 644 -96 callsubr
-114 -568 -99 callgsubr
                </CharString>
                <CharString name="amacron">
                    -78 callgsubr
130 62 -33 callsubr
hintmask 10011111
494 740 -65 callsubr
-215 -633 rmoveto
-86 callgsubr
-37 -45 -63 -29 -62 hhcurveto
hintmask 01011111
180 -48 rmoveto
hintmask 00111111
65 5 rlineto
-104 callsubr
hintmask 10011111
-73 callsubr
hintmask 01011111
-65 callgsubr
                </CharString>
                <CharString name="ampersand">
                    -13 60 586 67 hstemhm
53 70 10 69 hintmask 11010000
575 32 rmoveto
-47 55 -42 49 -37 42 38 67 35 90 26 106 -63 7 rcurveline
-18 -86 -27 -79 -29 -62 rrcurveto
-144 163 -65 69 64 vvcurveto
65 51 60 194 -9 vhcurveto
-6 67 rlineto
-235 5 -73 -101 -93 vvcurveto
-49 23 -44 46 -60 vhcurveto
hintmask 11110000
-100 -63 -49 -73 -81 vvcurveto
-85 55 -69 100 70 72 40 89 60 vhcurveto
33 -39 37 -43 39 -49 rrcurveto
-297 62 rmoveto
-66 -33 46 63 56 35 59 73 51 hvcurveto
37 -44 48 -53 58 -68 rrcurveto
-74 -47 -54 -36 -51 hhcurveto
endchar
                </CharString>
                <CharString name="aogonek">
                    -14 59 -22 -21 253 49 182 62 18 callgsubr
149 66 74 71 hintmask 10111110
499 -232 rmoveto
7 58 rlineto
-97 11 -37 18 27 vvcurveto
hintmask 01111110
27 33 35 119 58 vhcurveto
-104 callsubr
hintmask 10111110
-87 65 -53 92 90 71 57 56 46 vhcurveto
2 -23 4 -41 2 -24 rrcurveto
-112 -59 -40 -42 -44 -43 callgsubr
-229 277 rmoveto
-68 -45 35 62 82 75 48 214 -23 hvcurveto
-49 0 -26 2 -32 vhcurveto
-54 -47 -66 -43 -65 hhcurveto
endchar
                </CharString>
                <CharString name="approxequal">
                    114 60 67 60 45 60 66 61 hstem
71 478 vstem
410 346 rmoveto
60 38 53 109 41 hvcurveto
-46 18 rlineto
-68 -29 -27 -52 -35 -4 callgsubr
46 -19 rlineto
71 31 27 53 36 59 53 -126 87 hhcurveto
-232 vmoveto
60 38 53 109 41 hvcurveto
-45 19 rlineto
-69 -30 -26 -52 -36 -4 callgsubr
47 -18 rlineto
70 30 27 54 36 59 53 -127 87 hhcurveto
endchar
                </CharString>
                <CharString name="aring">
                    -78 callgsubr
59 -14 callsubr
86 71 9 -12 callgsubr
-10 71 hintmask 1001111111000000
311 840 -98 callsubr
-32 -748 rmoveto
hintmask 1001111100100000
-86 callgsubr
hintmask 1001111111000000
-37 -45 -63 -29 -62 hhcurveto
hintmask 0101111100100000
180 -48 rmoveto
hintmask 0011111100100000
65 5 rlineto
-104 callsubr
hintmask 1001111100100000
-73 callsubr
hintmask 0101111100100000
-65 callgsubr
                </CharString>
                <CharString name="aringacute">
                    -78 callgsubr
59 -14 callsubr
86 71 9 -12 callgsubr
-10 71 hintmask 1001111100100000
204 924 -107 callgsubr
hintmask 1001111111000000
107 -84 -98 callsubr
-32 -748 rmoveto
hintmask 1001111100100000
-86 callgsubr
hintmask 1001111111000000
-37 -45 -63 -29 -62 hhcurveto
hintmask 0101111100100000
180 -48 rmoveto
hintmask 0011111100100000
65 5 rlineto
-104 callsubr
hintmask 1001111100100000
-73 callsubr
hintmask 0101111100100000
-65 callgsubr
                </CharString>
                <CharString name="asciicircum">
                    547 -20 hstem
72 484 vstem
501 180 rmoveto
55 39 -239 328 -17 -4 -228 -325 51 -38 185 270 rlineto
endchar
                </CharString>
                <CharString name="asciitilde">
                    221 67 101 67 hstem
51 522 vstem
422 221 rmoveto
65 43 72 133 43 hvcurveto
-50 19 rlineto
-90 -31 -29 -67 -39 -61 -68 168 -91 hhcurveto
-65 -46 -74 -131 -42 hvcurveto
50 -19 rlineto
90 30 30 67 38 63 69 -168 91 hhcurveto
endchar
                </CharString>
                <CharString name="asterisk">
                    325 441 hstem
313 49 vstem
415 325 rmoveto
39 23 -72 158 167 57 -12 43 -173 -18 -4 174 -47 4 -36 -172 -164 51 -20 -42 153 -87 -98 -141 35 -29 127 115 rlineto
endchar
                </CharString>
                <CharString name="asterisk.alt">
                    707 -20 hstemhm
283 23 callgsubr
-7 23 callgsubr
hintmask 10100000
343 615 rmoveto
38 144 -70 12 -3 -150 rlineto
-48 -19 rmoveto
-105 105 -45 -55 128 -78 rlineto
158 -24 rmoveto
143 39 -24 67 -132 -72 rlineto
-152 -61 rmoveto
-144 -39 25 -66 131 71 rlineto
123 -17 rmoveto
107 -106 44 55 -127 79 rlineto
hintmask 11000000
-107 -41 rmoveto
-38 -145 70 -11 3 150 rlineto
endchar
                </CharString>
                <CharString name="at">
                    -173 59 179 58 349 59 166 59 hstem
70 62 117 66 164 64 vstem
503 -168 rmoveto
58 vlineto
-298 -36 -73 161 267 vvcurveto
272 95 143 127 80 38 -58 -108 6 vhcurveto
-138 11 -91 -93 -174 vvcurveto
-130 54 -80 75 45 31 23 34 31 vhcurveto
1 -16 2 -19 1 -13 60 7 rcurveline
-3 108 -3 96 212 vvcurveto
167 -56 92 -126 -168 -123 -188 -294 -289 100 -197 333 44 vhcurveto
-104 291 rmoveto
-55 -29 58 107 130 39 76 125 -28 hvcurveto
-303 vlineto
-22 -22 -26 -18 -32 hhcurveto
endchar
                </CharString>
                <CharString name="atilde">
                    -78 callgsubr
82 26 callgsubr
-33 callsubr
hintmask 1001111110000000
397 630 -92 callsubr
-118 -585 rmoveto
-86 callgsubr
-37 -45 -63 -29 -62 hhcurveto
hintmask 0101111110000000
180 -48 rmoveto
hintmask 0011111110000000
65 5 rlineto
-104 callsubr
hintmask 1001111110000000
-73 callsubr
hintmask 0101111110000000
-65 callgsubr
                </CharString>
                <CharString name="b">
                    -12 61 442 60 224 -31 callgsubr
115 71 295 70 hintmask 11011100
270 -12 rmoveto
146 135 115 189 158 -86 101 -117 -66 -55 -29 -33 -41 hvcurveto
292 vlineto
hintmask 11101100
-71 -6 rlineto
-760 vlineto
hintmask 11011100
-18 48 53 -9 54 hhcurveto
24 61 rmoveto
-34 -37 7 13 -37 hvcurveto
372 vlineto
30 39 48 20 48 19 callgsubr
-81 -80 -106 hvcurveto
endchar
                </CharString>
                <CharString name="backslash">
                    -177 -21 hstem
20 582 vstem
81 796 rmoveto
-61 -27 517 -967 65 19 rlineto
endchar
                </CharString>
                <CharString name="bar">
                    778 -20 hstem
281 66 vstem
281 778 rmoveto
-979 66 985 vlineto
endchar
                </CharString>
                <CharString name="braceleft">
                    260 -11 callgsubr
-230 -77 callsubr
                </CharString>
                <CharString name="braceleft.cap">
                    314 -11 callgsubr
-176 -77 callsubr
                </CharString>
                <CharString name="braceright">
                    261 -8 callgsubr
-229 -77 callgsubr
                </CharString>
                <CharString name="braceright.cap">
                    314 -8 callgsubr
-176 -77 callgsubr
                </CharString>
                <CharString name="bracketleft">
                    -198 4 callgsubr
-198 -18 callgsubr
                </CharString>
                <CharString name="bracketleft.cap">
                    -144 4 callgsubr
-144 -18 callgsubr
                </CharString>
                <CharString name="bracketright">
                    -197 11 callgsubr
-138 -18 callsubr
                </CharString>
                <CharString name="bracketright.cap">
                    -144 11 callgsubr
-85 -18 callsubr
                </CharString>
                <CharString name="breve">
                    627 59 hstem
109 409 vstem
308 627 -105 callsubr
endchar
                </CharString>
                <CharString name="breve.cap">
                    627 59 hstem
109 409 vstem
308 627 -105 callsubr
endchar
                </CharString>
                <CharString name="bullet">
                    199 263 hstem
177 270 vstem
447 332 rmoveto
76 -56 54 -78 -76 -60 -52 -80 -76 58 -55 77 76 59 52 81 vhcurveto
endchar
                </CharString>
                <CharString name="bullet.alt">
                    218 223 hstem
203 218 vstem
420 218 rmoveto
2 223 rlineto
-218 hlineto
-2 -223 rlineto
endchar
                </CharString>
                <CharString name="c">
                    5 callsubr
hstem
100 71 vstem
100 261 -85 callsubr
                </CharString>
                <CharString name="cacute">
                    5 callsubr
hstem
100 71 vstem
237 651 -107 callgsubr
-137 -390 -85 callsubr
                </CharString>
                <CharString name="caron">
                    688 13 callsubr
hstem
120 385 vstem
313 616 -102 callgsubr
endchar
                </CharString>
                <CharString name="caron.alt">
                    614 276 hstem
272 71 vstem
238 626 -76 callsubr
endchar
                </CharString>
                <CharString name="caron.alt.cap">
                    614 276 hstem
272 71 vstem
238 626 -76 callsubr
endchar
                </CharString>
                <CharString name="caron.cap">
                    688 13 callsubr
hstem
120 385 vstem
313 616 -102 callgsubr
endchar
                </CharString>
                <CharString name="ccaron">
                    5 callsubr
141 13 callsubr
hstem
100 71 vstem
352 616 -102 callgsubr
-249 -355 -85 callsubr
                </CharString>
                <CharString name="ccedilla">
                    -4 60 -49 -21 37 -21 477 68 hstemhm
100 71 213 63 hintmask 10011100
447 -128 rmoveto
hintmask 00111100
39 -35 44 -75 47 vhcurveto
hintmask 10011100
50 -8 59 -2 69 4 9 60 rcurveline
-277 -12 -76 82 145 vvcurveto
120 62 85 282 3 vhcurveto
-5 68 rlineto
-309 -9 -101 -130 -147 vvcurveto
hintmask 01011100
-117 47 -94 143 -38 vhcurveto
-14 -26 rlineto
-62 callgsubr
6 -58 rlineto
hintmask 10011100
-36 callsubr
endchar
                </CharString>
                <CharString name="cdotaccent">
                    5 callsubr
83 8 callgsubr
100 71 138.5 -42 callgsubr
vstem
380 630 -78 callsubr
-208 -369 -85 callsubr
                </CharString>
                <CharString name="cedilla">
                    -52 callgsubr
                </CharString>
                <CharString name="cedilla.cap">
                    -52 callgsubr
                </CharString>
                <CharString name="cent">
                    41 61 366 66 154 -20 hstem
96 67 vstem
163 297 rmoveto
77 40 68 146 21 vhcurveto
-43 -332 rlineto
-105 33 -38 58 75 vvcurveto
334 -256 rmoveto
8 61 -57 2 -49 6 -41 8 rlinecurve
43 350 35 2 40 0 45 -2 rlinecurve
9 66 -43 2 -39 -1 -35 -3 rlinecurve
21 156 rlineto
-63 hlineto
-20 -163 rlineto
-195 -31 -60 -101 -105 vvcurveto
-98 51 -82 146 -40 vhcurveto
-22 -163 rlineto
63 hlineto
18 150 42 -8 48 -4 55 -2 rlinecurve
endchar
                </CharString>
                <CharString name="check.1">
                    -30 785 hstem
92 474 vstem
566 731 rmoveto
-73 24 -83 -205 -70 -232 -54 -249 rlinecurve
-3 hlineto
-129 316 -62 -28 163 -387 64 6 64 270 83 255 100 230 rlinecurve
endchar
                </CharString>
                <CharString name="check.2">
                    9 -12 callsubr
32 -21 548 -20 hstemhm
109 438 hintmask 01011000
410 -6 rmoveto
69 16 -152 292 220 428 -71 28 -187 -402 -98 197 -66 -24 125 -236 rlineto
hintmask 00111000
-141 -288 rlineto
hintmask 10011000
47 -17 131 254 rlineto
endchar
                </CharString>
                <CharString name="circumflex">
                    622 205 hstem
120 385 vstem
459 622 -100 callgsubr
endchar
                </CharString>
                <CharString name="circumflex.cap">
                    622 205 hstem
120 385 vstem
459 622 -100 callgsubr
endchar
                </CharString>
                <CharString name="colon">
                    0 113 258 114 hstemhm
253 112 -103.5 14 callsubr
371 -8 callsubr
102 -371 rmoveto
4 113 rlineto
-112 hlineto
-4 -113 rlineto
endchar
                </CharString>
                <CharString name="colon.alt">
                    101 114 258 114 hstemhm
258.5 111 -108 14 callsubr
473 -8 callsubr
108 -372 20 callsubr
-1 -114 rlineto
endchar
                </CharString>
                <CharString name="colonmonetary">
                    26 61 511 65 hstemhm
83 64 137.5 55.5 25 53 11 54 hintmask 11110100
379 107 rmoveto
-34 8 -30 8 -26 11 39 431 rcurveline
27 8 31 7 36 6 rrcurveto
-275 -242 rmoveto
90 36 70 98 44 vhcurveto
-35 -393 rlineto
-69 41 -30 61 87 vvcurveto
hintmask 11111100
212 -426 rmoveto
54 hlineto
10 118 rlineto
hintmask 11110100
32 -4 34 -4 37 -2 13 61 rcurveline
-42 3 -38 4 -35 5 43 493 rcurveline
29 3 32 2 34 1 -4 65 rcurveline
-28 -1 -27 -2 -25 -3 10 112 rcurveline
-54 hlineto
-10 -119 -33 -5 -30 -7 -27 -8 rlinecurve
12 139 rlineto
-55 hlineto
-13 -159 rlineto
-141 -58 -54 -101 -118 vvcurveto
-114 46 -80 103 -50 vhcurveto
-17 -171 rlineto
hintmask 11111100
55 hlineto
13 150 27 -9 29 -8 32 -6 rlinecurve
endchar
                </CharString>
                <CharString name="comma">
                    22 callsubr
289 81 vstem
224 -201 rmoveto
37 -13 96 92 36 114 -37 127 rlinecurve
-106 -6 58 -126 -6 -99 -78 -89 rlinecurve
endchar
                </CharString>
                <CharString name="commaaccent">
                    -303 227 hstem
277 74 vstem
249 -292 -101 callsubr
                </CharString>
                <CharString name="commaaccent.cap">
                    -303 227 hstem
277 74 vstem
249 -292 -101 callsubr
                </CharString>
                <CharString name="commaaccent.rot">
                    626 226 hstem
264 74 vstem
367 841 -19 callsubr
endchar
                </CharString>
                <CharString name="copyright">
                    8 42 104 51 282 54 97 42 hstem
58 45 101 55 262 46 vstem
567 349 rmoveto
207 -104 124 -141 -146 -118 -136 -204 -210 110 -122 148 141 110 125 216 vhcurveto
-464 -6 rmoveto
179 94 116 123 117 84 -112 -181 -187 -86 -108 -116 -122 -94 108 185 vhcurveto
293 -138 rmoveto
-109 -6 -28 52 96 vvcurveto
81 18 55 116 4 vhcurveto
-5 54 rlineto
-136 -10 -48 -86 -102 vvcurveto
-116 46 -83 140 10 vhcurveto
endchar
                </CharString>
                <CharString name="d">
                    -26 callgsubr
hintmask 1001001110000000
305 47 -46 callsubr
hintmask 0101001110000000
143 -49 rmoveto
hintmask 0011001110000000
-24 callsubr
246 vlineto
hintmask 1000110110000000
-72 -6 rlineto
-229 vlineto
hintmask 1001001110000000
-36 callgsubr
                </CharString>
                <CharString name="dagger">
                    528.5 57 -52 57 hstemhm
278.5 61 -60 69.5 hintmask 10100000
332 135 rmoveto
15 395 199 -3 4 57 rlineto
hintmask 10010000
16 callsubr
hintmask 01010000
-1 -182 -194 3 -3 -57 rlineto
hintmask 01100000
197 -3 -1 -413 11 -8 rlineto
endchar
                </CharString>
                <CharString name="daggerdbl">
                    307.5 56 -52 56 162 56 -51 56 hstemhm
279 57.5 -57 65 -64.5 69 hintmask 01101000
333 79 rmoveto
hintmask 10101000
7 230 200 -3 3 56 rlineto
hintmask 10100100
-201 3 5 166 199 -3 4 56 rlineto
hintmask 01100010
16 callsubr
hintmask 01010010
-182 vlineto
-195 3 -3 -56 rlineto
hintmask 01010100
198 -3 -1 -167 -201 3 -3 -56 rlineto
hintmask 01101000
204 -3 rlineto
-248 vlineto
11 -7 rlineto
endchar
                </CharString>
                <CharString name="dcaron">
                    -26 callgsubr
108 71 hintmask 1001001111000000
582 626 -76 callsubr
-277 -579 -46 callsubr
hintmask 0101001111000000
143 -49 rmoveto
hintmask 0011001111000000
-24 callsubr
246 vlineto
hintmask 1000110111000000
-72 -6 rlineto
-229 vlineto
hintmask 1001001111000000
-36 callgsubr
                </CharString>
                <CharString name="dcroat">
                    -13 60 -28 -21 25 -21 487 60 -5 -20 123 48 -48 132 hstemhm
73 71 292 72 hintmask 1001010110000000
305 47 rmoveto
-94 -67 72 142 147 87 81 110 32 30 -6 -10 33 hvcurveto
-163 2 -109 2 -101 vhcurveto
-30 -37 -48 -23 -50 hhcurveto
hintmask 0101010110000000
143 -49 rmoveto
hintmask 0011010110000000
-24 callsubr
112 81 48 -81 vlineto
hintmask 1001001110000000
84 vlineto
-72 -6 rlineto
hintmask 1000110110000000
-78 -152 -48 152 -103 vlineto
hintmask 1001010110000000
3 -20 -21 2 -21 hhcurveto
-160 -141 -111 -195 -160 89 -96 117 68 57 32 36 40 hvcurveto
endchar
                </CharString>
                <CharString name="degree">
                    355 55 281 55 hstem
124 60 257 60 vstem
501 555 rmoveto
117 -79 74 -103 -103 -92 -78 -122 -117 78 -74 103 103 93 78 122 vhcurveto
-60 hmoveto
-89 -1 -56 -56 -73 hhcurveto
-76 -53 60 80 2 hvcurveto
85 1 55 56 74 hhcurveto
76 53 -59 -77 -2 hvcurveto
endchar
                </CharString>
                <CharString name="dieresis">
                    630 8 callgsubr
156.5 -67 callgsubr
vstem
471 630 -100 callsubr
endchar
                </CharString>
                <CharString name="dieresis.cap">
                    630 8 callgsubr
156.5 -67 callgsubr
vstem
471 630 -100 callsubr
endchar
                </CharString>
                <CharString name="divide">
                    76 93 123 60 123 93 hstem
269.5 85 cntrmask 11100000
354 475 15 callgsubr
278 -123 rmoveto
-470 -60 469 hlineto
-192 -216 15 callgsubr
endchar
                </CharString>
                <CharString name="dollar">
                    28 61 -54 53 509 54 -53 61 hstemhm
116 73 263 73 hintmask 10011100
189 521 rmoveto
1 42 42 32 111 3 -36 -200 rcurveline
-65 40 -54 39 1 44 rrcurveto
263 -342 rmoveto
-46 -47 -38 -109 -6 vhcurveto
38 215 65 -40 54 -39 -1 -46 rlinecurve
hintmask 01011100
-182 -275 rmoveto
hintmask 10101100
21 124 rlineto
164 13 70 70 73 vvcurveto
2 77 -90 58 -87 53 41 225 rcurveline
36 -2 41 -4 47 -7 7 67 rcurveline
-41 5 -37 3 -33 1 24 123 rcurveline
-65 1 rlineto
hintmask 01011100
-21 -125 -166 -9 -66 -66 -1 -72 rlinecurve
-1 -75 90 -55 86 -52 -44 -242 rcurveline
-40 1 -46 5 -54 9 -13 -68 rcurveline
50 -6 45 -3 40 -1 -23 -121 rcurveline
endchar
                </CharString>
                <CharString name="dotaccent">
                    -46 callgsubr
                </CharString>
                <CharString name="dotaccent.cap">
                    -46 callgsubr
                </CharString>
                <CharString name="dotlessi">
                    -75 callsubr
-14 callgsubr
575 hmoveto
5 55 rlineto
-87 callsubr
endchar
                </CharString>
                <CharString name="e">
                    -60 callsubr
-43 callsubr
508 -12 -107 callsubr
                </CharString>
                <CharString name="eacute">
                    -60 callsubr
-43 callsubr
216 659 -107 callgsubr
292 -671 -107 callsubr
                </CharString>
                <CharString name="ebreve">
                    -60 callsubr
83 59 -43 callsubr
321 635 -105 callsubr
187 -647 -107 callsubr
                </CharString>
                <CharString name="ecaron">
                    -60 callsubr
144 -20 -43 callsubr
331 624 -102 callgsubr
180 -636 -107 callsubr
                </CharString>
                <CharString name="ecircumflex">
                    -60 callsubr
-43 callsubr
471 630 -100 callgsubr
188 -774 -107 callsubr
                </CharString>
                <CharString name="edieresis">
                    -60 callsubr
86 -6 callsubr
85 71 12.5 -67 callgsubr
-15 70 hintmask 11110110
483 638 -100 callsubr
hintmask 11111101
339 -650 -107 callsubr
                </CharString>
                <CharString name="edotaccent">
                    -60 callsubr
86 8 callgsubr
85 71 132.5 -42 callgsubr
107 70 vstem
359 638 -78 callsubr
221 -650 -107 callsubr
                </CharString>
                <CharString name="egrave">
                    -60 callsubr
-43 callsubr
428 650 -96 callsubr
103 -631 -107 callsubr
                </CharString>
                <CharString name="eight">
                    -13 58 598 58 hstemhm
91 70 -58 70 281 68 -58 70 hintmask 11100100
300 -13 rmoveto
142 92 80 102 88 -82 52 -86 47 hvcurveto
hintmask 11011000
96 46 60 56 86 vvcurveto
95 -87 62 -114 -139 -79 -88 -85 -81 70 -52 78 -46 vhcurveto
hintmask 11100100
-97 -48 -63 -67 -85 vvcurveto
-98 87 -64 122 vhcurveto
hintmask 11011000
-127 551 rmoveto
55 47 50 94 89 51 -47 -66 -64 -49 -48 -81 -39 vhcurveto
-79 44 -72 44 71 vvcurveto
hintmask 11100100
138 -493 rmoveto
-96 -54 50 71 64 48 55 84 40 hvcurveto
87 -48 84 -46 -73 vvcurveto
-65 -59 -48 -94 vhcurveto
endchar
                </CharString>
                <CharString name="eight.den">
                    -244 46 205 -21 27 -21 176 -45 callsubr
hintmask 10111010
303 -244 rmoveto
hintmask 10111001
-70 callgsubr
hintmask 10110110
-80 callsubr
vhcurveto
hintmask 11010110
-47 callsubr
hintmask 10111010
-58 callgsubr
hintmask 10110110
-90 callsubr
hintmask 10111001
-91 callgsubr
                </CharString>
                <CharString name="eight.inf">
                    -178 -48 callgsubr
-178 -94 callsubr
                </CharString>
                <CharString name="eight.num">
                    461 46 184 -20 26 -20 196 -45 callsubr
hintmask 10111010
303 461 rmoveto
hintmask 10111001
-70 callgsubr
hintmask 11010110
-64 callgsubr
hintmask 11011010
-71 -28 -44 -41 -54 vvcurveto
hintmask 10111010
-64 62 -43 93 vhcurveto
hintmask 10110110
-90 callsubr
hintmask 11011001
-91 callgsubr
                </CharString>
                <CharString name="eight.small">
                    -11 -48 callgsubr
-11 -94 callsubr
                </CharString>
                <CharString name="eight.sup">
                    350 -48 callgsubr
350 -94 callsubr
                </CharString>
                <CharString name="ellipsis">
                    0 116 hstem
25 callgsubr
100 103 100 104 99 vstem
562 hmoveto
5 116 rlineto
-99 hlineto
-5 -116 rlineto
-104 3 callsubr
-103 3 callsubr
endchar
                </CharString>
                <CharString name="emacron">
                    -60 callsubr
132 62 -43 callsubr
506 746 -65 callsubr
2 -696 -107 callsubr
                </CharString>
                <CharString name="emdash">
                    295 54 hstem
69 491 vstem
560 349 rmoveto
-491 -54 486 hlineto
endchar
                </CharString>
                <CharString name="endash">
                    295 54 hstem
92 446 vstem
538 349 rmoveto
-446 -54 440 hlineto
endchar
                </CharString>
                <CharString name="eogonek">
                    -4 53 -38 -21 266 46 190 60 hstemhm
85 71 133 66 114 70 hintmask 10111110
482 -233 rmoveto
8 58 rlineto
-98 11 -37 19 27 vvcurveto
hintmask 01111110
26 33 33 120 49 vhcurveto
hintmask 10111110
8 59 -273 8 -81 57 -7 137 rlinecurve
381 10 rlineto
172 20 -76 119 -145 hhcurveto
-138 -112 -127 -163 -163 83 -93 263 -10 hvcurveto
-104 -49 -38 -42 -41 vvcurveto
-48 52 -36 141 -13 vhcurveto
-160 725 rmoveto
101 48 -75 -111 -2 hvcurveto
-313 -8 rlineto
123 6 64 71 96 hhcurveto
endchar
                </CharString>
                <CharString name="equal">
                    4 callsubr
527 480 rmoveto
-429 -60 428 hlineto
1 -187 rmoveto
-429 -61 428 hlineto
endchar
                </CharString>
                <CharString name="eth">
                    -13 59 407 58 179 -20 hstem
73 70 337 68 vstem
301 -13 rmoveto
132 115 97 189 143 -56 127 -120 113 hvcurveto
111 60 -18 44 -131 -70 -38 32 -44 31 -49 30 rlinecurve
-43 -47 43 -26 38 -26 33 -26 rlinecurve
-128 -69 20 -43 146 79 42 -39 33 -39 26 -41 rlinecurve
-168 30 -172 -94 -200 vvcurveto
-159 102 -96 126 vhcurveto
10 59 rmoveto
-99 -69 81 123 153 110 97 198 -70 hvcurveto
20 -52 9 -54 -56 vvcurveto
-143 -68 -79 -101 vhcurveto
endchar
                </CharString>
                <CharString name="exclam">
                    0 110 hstemhm
257 107.5 24 callsubr
46 hintmask 10100000
340 252 rmoveto
3 124 20 244 6 130 rrcurveto
-91 hlineto
3 -130 13 -244 -124 vvcurveto
hintmask 11000000
69 -252 rmoveto
3 110 rlineto
-108 hlineto
-2 -110 rlineto
endchar
                </CharString>
                <CharString name="exclamdown">
                    579 109 hstemhm
260.5 107.5 -83 46 hintmask 11000000
261 688 rmoveto
-1 -109 rlineto
107 hlineto
2 109 rlineto
hintmask 10100000
-84 -252 rmoveto
-4 -124 -19 -244 -6 -130 rrcurveto
91 hlineto
-3 130 -13 244 124 vvcurveto
endchar
                </CharString>
                <CharString name="f">
                    0 54 422 56 180 70 hstem
254 71 vstem
531 54 rmoveto
-206 422 217 56 -217 9 hlineto
125 32 35 220 11 vhcurveto
-6 70 -243 -13 -73 -93 -1 -144 rlinecurve
-154 hlineto
-7 -56 rlineto
161 -422 -155 -54 426 hlineto
endchar
                </CharString>
                <CharString name="five">
                    9 -21 637 63 hstem
137 64.5 23 callsubr
67 vstem
526 226 rmoveto
90 -77 76 -255 24 vhcurveto
15 209 rlineto
290 hlineto
6 63 rlineto
-357 hlineto
-22 -323 rlineto
254 -17 79 -56 -68 vvcurveto
-89 -92 -56 -256 -25 vhcurveto
4 -66 rlineto
285 23 126 93 122 vvcurveto
endchar
                </CharString>
                <CharString name="five.den">
                    -49 callsubr
hstemhm
-22 callgsubr
hintmask 10111100
471 -91 rmoveto
hintmask 11011100
-104 callgsubr
hintmask 10111100
-9 callsubr
                </CharString>
                <CharString name="five.inf">
                    -179 -16 callgsubr
-25 rmoveto
-104 callgsubr
-9 callsubr
                </CharString>
                <CharString name="five.num">
                    460 56 180 43 119 52 hstem
182 52 181 56 vstem
-63 callgsubr
endchar
                </CharString>
                <CharString name="five.small">
                    -12 56 -35 -21 236 43 119 52 hstemhm
-22 callgsubr
hintmask 01111100
471 142 rmoveto
60 -58 50 -184 15 vhcurveto
10 119 rlineto
212 hlineto
6 52 rlineto
-267 hlineto
-16 -214 rlineto
182 -11 59 -32 -40 vvcurveto
hintmask 10111100
-50 -67 -33 -185 -14 vhcurveto
4 -56 rlineto
hintmask 01111100
-9 callsubr
                </CharString>
                <CharString name="five.sup">
                    349 -16 callgsubr
503 rmoveto
-104 callgsubr
-9 callsubr
                </CharString>
                <CharString name="fiveeighths">
                    -4 callsubr
97 -23 callsubr
hstemhm
148 58 -49 60 -35 52 178 56 -53 56 -55 60 hintmask 1011111100101000
-69 callgsubr
hintmask 1011111110000100
5 callgsubr
-70 callgsubr
hintmask 1011111101010000
-80 callsubr
vhcurveto
hintmask 1101111101001000
-47 callsubr
hintmask 1011111110001000
-71 -28 -44 -41 -54 vvcurveto
hintmask 1011111110000100
-64 62 -43 93 vhcurveto
hintmask 1011111101010000
-90 callsubr
hintmask 1011111110000100
-91 callgsubr
                </CharString>
                <CharString name="fivesixths">
                    -243 49 185 43 279 50 97 -23 callsubr
hstemhm
147 56 -21 52 181 56 -47 56 hintmask 1111110110000000
-69 callgsubr
hintmask 1110011001000000
236 -606 -103 callgsubr
                </CharString>
                <CharString name="four">
                    21 -21 149 63 479 -31 callgsubr
104 56 257 67 hintmask 11011100
564 149 rmoveto
7 63 rlineto
-87 256 hlineto
-67 -8 rlineto
-248 -257 vlineto
hintmask 11101100
6 81 60 267 31 131 rrcurveto
hintmask 11011100
-77 6 -51 -208 -28 -214 3 -126 rlinecurve
313 -149 67 149 hlineto
endchar
                </CharString>
                <CharString name="four.den">
                    -139.5 -61 callgsubr
-140 -95 callgsubr
                </CharString>
                <CharString name="four.inf">
                    -73.5 -61 callgsubr
-74 -95 callgsubr
                </CharString>
                <CharString name="four.num">
                    565.5 -61 callgsubr
565 -95 callgsubr
                </CharString>
                <CharString name="four.small">
                    0 143 -49.5 49.5 hstemhm
-41 callsubr
hintmask 01110000
499 93 rmoveto
4 50 rlineto
-64 hlineto
1 156 -56 -4 1 -152 rlineto
-178 hlineto
3 45 45 181 21 73 -63 5 rcurveline
-37 -134 -20 -138 1 -82 228 1 rcurveline
hintmask 10110000
-27 callsubr
hintmask 01110000
-1 94 rlineto
endchar
                </CharString>
                <CharString name="four.sup">
                    454.5 -61 callgsubr
454 -95 callgsubr
                </CharString>
                <CharString name="fourfifths">
                    -49 callsubr
108 50 202.5 49.5 hstemhm
157 50 -25 52 150.5 55 -24.5 56 hintmask 1011110110000000
499 565 rmoveto
4 50 rlineto
-64 hlineto
1 156 -56 -4 1 -152 rlineto
hintmask 1011111010000000
-178 hlineto
3 45 45 181 21 73 -63 5 rcurveline
-37 -134 -20 -138 1 -82 228 1 rcurveline
-27 callsubr
-1 94 rlineto
-363 -253 -73 callgsubr
hintmask 1101110101000000
395 -454 rmoveto
-104 callgsubr
-9 callsubr
                </CharString>
                <CharString name="fraction">
                    -178 1013 hstem
52 512 vstem
112 -178 rmoveto
452 987 -60 26 -452 -987 rlineto
endchar
                </CharString>
                <CharString name="fraction.afrc">
                    313 50 hstem
76 472 vstem
76 313 -73 callgsubr
endchar
                </CharString>
                <CharString name="g">
                    -30 callsubr
hstem
75 71 298 71 vstem
149 -191 -97 callsubr
                </CharString>
                <CharString name="gbreve">
                    -30 callsubr
84 59 hstem
75 71 298 71 vstem
322 634 -105 callsubr
-173 -825 -97 callsubr
                </CharString>
                <CharString name="gcommaaccent">
                    -30 callsubr
hstem
75 71 128 74 96 71 vstem
377 848 -19 callsubr
-228 -1039 -97 callsubr
                </CharString>
                <CharString name="gdotaccent">
                    -30 callsubr
87 8 callgsubr
75 71 143.5 -42 callgsubr
81 71 vstem
360 637 -78 callsubr
-139 -828 -97 callsubr
                </CharString>
                <CharString name="germandbls">
                    -6 62 -35 -21 719 62 hstemhm
108 70 121 69 51 72 12 70 hintmask 10111010
368 393 rmoveto
hintmask 01111110
65 123 52 124 vvcurveto
72 -50 75 -112 -142 -79 -112 -155 vhcurveto
-514 70 530 vlineto
122 46 67 90 72 33 -48 -51 vhcurveto
-93 -120 -57 -85 vvcurveto
hintmask 10111010
-120 204 -37 -87 vvcurveto
-53 -57 -46 -145 18 vhcurveto
-3 -66 rlineto
204 -14 71 85 82 124 -205 41 81 vvcurveto
endchar
                </CharString>
                <CharString name="grave">
                    782 -20 hstem
165 266 vstem
431 642 -96 callsubr
endchar
                </CharString>
                <CharString name="grave.cap">
                    782 -20 hstem
165 266 vstem
431 642 -96 callsubr
endchar
                </CharString>
                <CharString name="greater">
                    -23 685 hstem
452 67 vstem
148 -23 rmoveto
371 314 rlineto
62 vlineto
-363 309 -42 -51 338 -284 rlineto
-10 vlineto
-345 -290 rlineto
endchar
                </CharString>
                <CharString name="greaterequal">
                    21 61 hstem
447 72.5 vstem
447 390 rmoveto
-9 vlineto
-331 -182 25 -56 379 209 -1 60 -371 238 -31 -54 rlineto
-22 -514 rmoveto
-61 435 61 vlineto
endchar
                </CharString>
                <CharString name="guillemotleft">
                    4 -21 572 -20 17 callgsubr
-17 -57 callgsubr
                </CharString>
                <CharString name="guillemotleft.cap">
                    57 572 17 callgsubr
57 -57 callgsubr
                </CharString>
                <CharString name="guillemotright">
                    4 -21 572 -20 9 callgsubr
-17 -69 callsubr
-208 -44 -69 callsubr
endchar
                </CharString>
                <CharString name="guillemotright.cap">
                    57 572 9 callgsubr
57 -69 callsubr
-208 -44 -69 callsubr
endchar
                </CharString>
                <CharString name="guilsinglleft">
                    4 -21 573 -20 19 callsubr
-17 -25 callgsubr
                </CharString>
                <CharString name="guilsinglleft.cap">
                    57 573 19 callsubr
57 -25 callgsubr
                </CharString>
                <CharString name="guilsinglright">
                    4 -21 573 -20 hstem
418 55 vstem
194 -17 -32 callsubr
                </CharString>
                <CharString name="guilsinglright.cap">
                    57 573 hstem
418 55 vstem
194 57 -32 callsubr
                </CharString>
                <CharString name="h">
                    -19 callgsubr
224 -20 26 -20 callsubr
hintmask 11011100
333 490 rmoveto
76 44 -40 -108 hvcurveto
-342 71 364 vlineto
132 -65 55 -99 -73 -58 -31 -35 -46 vhcurveto
296 vlineto
hintmask 11101100
-71 -6 rlineto
-775 71 439 vlineto
hintmask 11011100
22 callgsubr
                </CharString>
                <CharString name="hbar">
                    21 -21 490 60 97 48 -48 134 -6 -20 callsubr
hintmask 11101110
333 490 rmoveto
76 44 -40 -108 hvcurveto
-342 71 364 vlineto
131 -65 55 -99 -73 -58 -31 -35 -46 vhcurveto
163 151 48 -151 vlineto
hintmask 11010110
86 vlineto
hintmask 11101110
-71 -6 rlineto
-80 -83 -48 83 -647 71 439 vlineto
22 callgsubr
                </CharString>
                <CharString name="hcoslug">
                    -100 75 5 10 -6 10 -4 11 -10 10 -9 7 0 12 -11 11 -7 15 -15 26 -25 26 -15 8 -8 15 -12 12 0 14 -9 10 -10 19 -9 11 2 8 -7 32 71.5 22.5 514 -20 hstemhm
87 64 10 16 -3 8 5 40 -35 12 -1 12 14 10 -2 10 -10 42 -31 9 -1 7 3 12 -6 11 9 40 -29 13 -9 10 0 12 -4 11 -2 12 -5 16 18 11 10 8 hintmask 000000100000000000010110000010000010000010010000
537 700 rmoveto
-450 hlineto
hintmask 100000000000000000011010000000100000001000000000
-800 450 vlineto
-300 396 rmoveto
-17 11 -11 17 -16 vhcurveto
9 13 5 12 12 vvcurveto
18 -9 11 -13 -12 -8 -9 -13 vhcurveto
49 -64 rmoveto
12 -12 9 -12 9 -11 15 25 3 18 -17 17 -7 -7 -10 -9 -14 -9 rrcurveto
-39 -93 rmoveto
12 9 3 6 8 hvcurveto
-12 callsubr
22 -14 13 rrcurveto
-8 -8 -4 -11 -11 vvcurveto
-23 17 -18 22 vhcurveto
91 34 rmoveto
-22 19 13 -9 15 hhcurveto
15 9 9 13 8 hvcurveto
5 -1 rlineto
-44 -1 -27 -27 -32 hhcurveto
-22 -17 8 26 -25 hvcurveto
-23 -21 -25 -11 -32 hhcurveto
-45 -36 30 40 31 21 24 40 13 hvcurveto
-16 17 -7 13 22 vvcurveto
32 31 32 51 46 25 -30 -26 -10 -2 -8 -5 -7 vhcurveto
20 15 -8 -20 2 hvcurveto
18 12 14 10 19 hhcurveto
21 16 -15 -24 -23 -16 -17 -21 -14 -12 7 12 -6 hvcurveto
-12 -7 -12 -10 -11 -15 rrcurveto
hintmask 000000000000000000010000000000000100000000000000
-72 -105 rmoveto
-8 10 -5 -10 vlineto
hintmask 000000000000000010000000000000000100000000000000
-15 vlineto
-3 1 -1 2 2 1 1 4 1 vhcurveto
4 -1 rlineto
-2 -7 -3 -3 -6 -6 -3 4 0 hflex1
hintmask 000000000000000001000000000000010000000000000000
15 -5 5 5 7 vlineto
hintmask 000000000000000100000000100000000000000000000000
-75 -21 -31 callsubr
-16 callsubr
22 hmoveto
-54 callgsubr
hintmask 000000000000001000000000000000000000000100000000
132 -1 rmoveto
0 6 -2 4 -3 -5 -1 -5 0 hflex1
0 -6 1 -4 5 3 2 4 0 hflex1
-16 callsubr
-120 -9 rmoveto
4 hlineto
hintmask 000000000000000001000010000000000000000000000000
19 -4 5 vlineto
hintmask 000000000000000000010000000010000000000000000000
13 -6 hlineto
4 2 3 3 5 hhcurveto
7 2 -5 -6 hvcurveto
hintmask 000000000000000100000000000000010000000000000000
-14 5 -5 vlineto
hintmask 000000000010000000000000000010000000000000000000
-17 5 3 hlineto
hintmask 000000000000000001000000000010000000000000000000
13 vlineto
3 -1 3 -3 -3 -3 -3 -5 vhcurveto
-11 3 -5 vlineto
-16 callsubr
-16 hlineto
-71 5 rmoveto
6 hlineto
hintmask 000000000000000000100010000000000000000000000000
31 -6 5 vlineto
hintmask 000000000000000000010000001000000000000000000000
38 hlineto
hintmask 000000000000000001000000001000000000000000000000
-15 -5 vlineto
8 -2 -1 2 -6 hhcurveto
-8 hlineto
hintmask 000000000000000000100001000000000000000000000000
-14 3 vlineto
4 0 1 5 1 hvcurveto
5 hlineto
hintmask 000000000000000100000000100000000000000000000000
-17 -5 vlineto
5 -1 0 1 -4 hhcurveto
-3 hlineto
hintmask 000000000000000100000001000000000000000000000000
-12 7 -5 vlineto
-16 callsubr
-23 hlineto
hintmask 000000000000000010000000000000000100000000000000
133 10 rmoveto
5 hlineto
-4 3 3 -3 3 hhcurveto
3 1 2 1 hvcurveto
hintmask 000000000000000000100000000000000100000000000000
7 -18 -4 12 vvcurveto
4 4 5 7 3 3 -1 -3 2 vhcurveto
1 4 rlineto
5 -10 -5 hlineto
4 -3 -2 1 -3 hhcurveto
-2 -2 -1 -2 hvcurveto
hintmask 000000000010000000000000000000000000100000000000
-5 18 2 -11 vvcurveto
-5 -3 -4 -7 -5 -3 2 2 -2 vhcurveto
-1 -3 rlineto
-5 hlineto
hintmask 000000000000000000100000000000000000100000000000
38 38 rmoveto
-5 5 hlineto
hintmask 000000000000000000010000000000000000000100000000
14 hlineto
hintmask 000000000000000000100000000000000000000100000000
-20 vlineto
4 1 4 3 4 hhcurveto
hintmask 000000000100000000000000000000000000000010000000
7 0 5 -6 0 -9 0 -7 -3 -9 0 flex1
-6 -3 2 4 -2 hvcurveto
-3 -6 rlineto
-4 hlineto
hintmask 100000000000000000010000000000000000000010000000
39 -6 rmoveto
3 3 2 4 hvcurveto
-3 7 -9 18 0 vvcurveto
-3 5 18 -5 -4 hlineto
7 -15 6 15 rlineto
-4 5 13 -5 -4 hlineto
hintmask 000000001000000000000000000000000000000010000000
-10 -24 rlineto
-7 -3 -4 -5 -6 hhcurveto
-6 -3 3 4 3 2 2 3 hvcurveto
hintmask 100000000000000000010000000000000000000010000000
5 1 -5 -2 -2 hvcurveto
hintmask 000000010000000000000000000000000000000000000000
45 -24 rmoveto
-6 -4 vlineto
-2 -4 -2 -3 -3 -3 rrcurveto
2 -2 2 -2 1 1 1 1 1 hflex1
3 -1 rlineto
-5 -1 -2 -4 -6 hhcurveto
hintmask 100000000000000000000000000000000000000001000000
-4 0 -2 2 -3 3 -3 -3 -4 -2 -6 flex1
-7 -5 4 6 6 4 3 6 2 hvcurveto
-3 3 -2 3 4 vvcurveto
hintmask 000000000001000000000000000000000000000000100000
5 4 6 9 6 4 -4 -5 -5 -3 -2 -5 -3 vhcurveto
2 -2 4 -5 3 -3 2 2 2 3 1 2 rrcurveto
-5 6 hlineto
hintmask 000000000100000000000000000000000010000000000000
-114 4 rmoveto
11 4 hlineto
-3 -2 2 2 2 1 1 0 hvcurveto
0 -1 1 -2 -2 -2 -2 -6 vhcurveto
hintmask 100000000000000000000000000000000000000000010000
132 -13 rmoveto
hintmask 000100000000000000000000000000000000000000010000
15 9 8 11 vhcurveto
hintmask 000100000000000000000000000000000000000000000000
5 4 -2 -3 3 hvcurveto
4 6 vlineto
-16 -6 vlineto
hintmask 000000100000000000000000000000000000000000000000
9 -3 -2 3 -6 hhcurveto
-6 -4 -5 -12 hvcurveto
0 callsubr
-11 4 -6 8 vhcurveto
hintmask 000010000000000000000000000000000000000000000000
6 3 6 6 1 hvcurveto
6 hlineto
hintmask 100000000000000000000000000000000000000000000000
-10 -1 -6 -7 -11 hhcurveto
hintmask 100000000000000000000000000000000000000000010000
-13 -8 7 14 hvcurveto
hintmask 000000100000000000000000000000000000000000100000
-29 4 rmoveto
2 1 2 3 3 vvcurveto
3 -2 2 -3 -2 -2 -1 -3 -2 2 -3 3 -3 vhcurveto
hintmask 010000000000000000000000000000000000010000000000
-68 -11 rmoveto
-2 callsubr
hintmask 100000000000000000000000000000000000010000000000
-6 -1 -4 -5 -8 hhcurveto
-10 -6 6 9 hvcurveto
hintmask 000000000010000000000000000000000000010000000000
10 7 6 8 11 4 -7 -10 -1 vhcurveto
hintmask 010000000000000000000000000001000000000000000000
-89 hmoveto
-2 callsubr
1 callgsubr
-6 -1 -4 -5 -8 hhcurveto
hintmask 100000000000000000000000010000000000000000000000
-10 -6 6 9 hvcurveto
hintmask 000000000010000000000000010000000000000000000000
10 7 6 8 vhcurveto
hintmask 000000000010000000000000000000001000000000000000
11 4 -7 -10 -1 hvcurveto
hintmask 010000000000000000000010000001000000000000000000
-63 2 -31 callsubr
252 hmoveto
0 callsubr
0 9 7 6 9 9 7 -6 0 hflex1
hintmask 010000000000000000000010000001000000000000000000
0 -9 -7 -7 -9 -9 -7 6 0 hflex1
hintmask 000001000000000000000000000001000000010000000000
-138 2 rmoveto
-5 callsubr
-70 hmoveto
-5 callsubr
hintmask 010000000000000000000000000100000000000000000000
-22 -2 rmoveto
-54 callgsubr
0 callsubr
252 hmoveto
-54 callgsubr
1 callgsubr
-208 -10 rmoveto
4 hlineto
hintmask 000001000000000000000000000000001000000000000000
19 -5 5 5 1 vlineto
hintmask 000000000000010000000000000000001000000000000000
10 7 4 6 4 2 -1 -1 2 vhcurveto
8 2 rlineto
hintmask 010000000000000000000000000000000000100000000000
-39 4 -5 vlineto
hintmask 100000000000000000000000000000000010000000000000
-17 5 4 hlineto
hintmask 000001000000000000000000000000000010000000000000
19 -11 vlineto
hintmask 010000000000000000000000000000000010000000000000
-19 4 -5 vlineto
1 callgsubr
-17 hlineto
hintmask 100000000000000000000000000000000001000000000000
69 5 rmoveto
4 hlineto
hintmask 000001000000000000000000000000000001000000000000
19 -4 5 vlineto
hintmask 000000000010000000000000000000000000000001000000
13 -6 hlineto
5 2 3 2 4 hhcurveto
4 2 -2 -4 -3 -2 -2 -3 -2 -3 1 3 hvcurveto
1 vlineto
-1 -3 -3 -4 -1 hvcurveto
hintmask 010000000000000000000000000000000000000001000000
-12 6 -5 vlineto
hintmask 100000000000000000000000000000000001000000000000
-19 hlineto
hintmask 100000000000000000000010000000000000000000000000
-183 5 rmoveto
6 hlineto
hintmask 000000100000000000000010000000000000000000000000
31 -6 5 vlineto
hintmask 000000000000100000000001000000000000000000000000
21 -5 -5 hlineto
hintmask 000000100000000000000001000000000000000000000000
-12 16 12 -5 5 vlineto
hintmask 000000000000100000000000000100000000000000000000
21 -5 -6 hlineto
hintmask 010000000000000000000000000100000000000000000000
-31 6 -5 vlineto
hintmask 100000000000000000000001000000000000000000000000
-21 5 5 hlineto
hintmask 001000000000000000000001000000000000000000000000
14 -16 vlineto
hintmask 010000000000000000000001000000000000000000000000
-14 5 -5 vlineto
hintmask 100000000000000000000010000000000000000000000000
-21 hlineto
hintmask 100000000000000000000000000000000000000000100000
234 7 rmoveto
-2 2 -4 5 -4 4 rrcurveto
-2 -2 -1 -2 -3 vvcurveto
-4 3 -3 4 2 2 1 2 2 vhcurveto
111 -2 rmoveto
0 -3 -2 -3 -4 -4 -2 3 0 hflex1
0 3 2 3 4 4 2 -3 0 hflex1
endchar
                </CharString>
                <CharString name="hungarumlaut">
                    619 243 hstem
152 424 vstem
152 643 -92 callgsubr
endchar
                </CharString>
                <CharString name="hungarumlaut.cap">
                    619 243 hstem
152 424 vstem
152 643 -92 callgsubr
endchar
                </CharString>
                <CharString name="hyphen">
                    292 61 hstem
140 349 vstem
489 353 rmoveto
-349 -61 345 hlineto
endchar
                </CharString>
                <CharString name="i">
                    -75 callsubr
91 -6 callsubr
295.5 74 24 callsubr
71 hintmask 11110000
-10 callgsubr
282 -630 rmoveto
5 55 rlineto
hintmask 11101000
-87 callsubr
endchar
                </CharString>
                <CharString name="iacute">
                    -75 callsubr
-14 callgsubr
227 651 -107 callgsubr
348 -651 rmoveto
5 55 rlineto
-87 callsubr
endchar
                </CharString>
                <CharString name="ibreve">
                    -75 callsubr
88 59 -14 callgsubr
332 627 -105 callsubr
243 -627 rmoveto
5 55 rlineto
-87 callsubr
endchar
                </CharString>
                <CharString name="icircumflex">
                    -75 callsubr
-14 callgsubr
481 622 -100 callgsubr
245 -754 rmoveto
5 55 rlineto
-87 callsubr
endchar
                </CharString>
                <CharString name="idieresis">
                    -75 callsubr
91 8 callgsubr
178.5 73 47.5 71 51 73 vstem
493 630 -100 callsubr
396 -630 rmoveto
5 55 rlineto
-87 callsubr
endchar
                </CharString>
                <CharString name="igrave">
                    -75 callsubr
243 -20 -14 callgsubr
439 642 -96 callsubr
159 -611 rmoveto
5 55 rlineto
-87 callsubr
endchar
                </CharString>
                <CharString name="imacron">
                    -75 callsubr
137 62 -14 callgsubr
516 738 -65 callsubr
59 -676 rmoveto
5 55 rlineto
-87 callsubr
endchar
                </CharString>
                <CharString name="iogonek">
                    -75 callsubr
91 -6 callsubr
204 66 25.5 74 24 callsubr
71 hintmask 11101000
-10 callgsubr
111 -805 rmoveto
hintmask 11110100
-97 10 -37 19 30 vvcurveto
27 23 32 73 57 vhcurveto
209 hlineto
5 55 rlineto
hintmask 11100100
-87 callsubr
hintmask 11110100
212 hlineto
-69 -52 -28 -39 -41 vvcurveto
-54 21 callsubr
                </CharString>
                <CharString name="j">
                    -194 68 610.5 54.5 91 -6 callsubr
342 72.5 -67.5 71 hintmask 11110000
411 630 rmoveto
7 147 rlineto
-74 hlineto
-4 -147 rlineto
-232 -91 rmoveto
-5 -50 rlineto
hintmask 11101000
244 -9 rlineto
-447 vlineto
-116 -39 -33 -250 -10 vhcurveto
-3 -68 rlineto
280 10 83 74 156 vvcurveto
493 vlineto
endchar
                </CharString>
                <CharString name="k">
                    -39 callsubr
hintmask 1001010110000000
496 -6 rmoveto
hintmask 0011100110000000
-3 callgsubr
hintmask 0011010110000000
-9 callgsubr
hintmask 0101011010000000
-1 callgsubr
endchar
                </CharString>
                <CharString name="kcommaaccent">
                    -39 callsubr
107 74 hintmask 1001010111000000
496 -6 rmoveto
hintmask 0011100111000000
-3 callgsubr
hintmask 0011010111000000
-9 callgsubr
hintmask 0101011011000000
-1 callgsubr
-11 -546 -101 callsubr
                </CharString>
                <CharString name="l">
                    9 callsubr
526 hmoveto
6 55 rlineto
-72 callsubr
endchar
                </CharString>
                <CharString name="lacute">
                    9 callsubr
208 886 -107 callgsubr
318 -886 rmoveto
6 55 rlineto
-72 callsubr
endchar
                </CharString>
                <CharString name="lcaron">
                    -27 callgsubr
178 71 vstem
495 626 -76 callsubr
31 -626 rmoveto
6 55 rlineto
-72 callsubr
endchar
                </CharString>
                <CharString name="lcommaaccent">
                    0 55 664 55 hstemhm
279 72 -64 74 hintmask 11010000
526 hmoveto
6 55 rlineto
hintmask 11100000
-72 callsubr
hintmask 11010000
160 -292 -101 callsubr
                </CharString>
                <CharString name="ldot">
                    0 55 243 109 312 55 hstem
279 72 224 90 vstem
526 hmoveto
6 55 rlineto
-72 callsubr
563 298 rmoveto
6 109 rlineto
-90 hlineto
-6 -109 rlineto
endchar
                </CharString>
                <CharString name="less">
                    -23 685 hstem
107 66 vstem
471 662 rmoveto
-364 -309 rlineto
-62 vlineto
369 -314 42 50 -345 290 rlineto
10 vlineto
339 285 rlineto
endchar
                </CharString>
                <CharString name="lessequal">
                    21 61 hstem
105 73 vstem
178 390 rmoveto
329 206 -30 54 -371 -238 -2 -60 380 -209 25 56 -331 182 rlineto
352 -299 rmoveto
-435 -61 435 hlineto
endchar
                </CharString>
                <CharString name="lslash">
                    9 callsubr
526 hmoveto
6 55 rlineto
-181 340 hlineto
140 73 -13 51 -127 -67 rlineto
322 -235 vlineto
-6 -51 169 -8 rlineto
-300 vlineto
-146 -77 13 -51 133 70 rlineto
-302 -180 -55 vlineto
endchar
                </CharString>
                <CharString name="m">
                    18 callsubr
76 68 143 60 141 68 hintmask 11011100
230 490 rmoveto
43 14 -24 -60 hvcurveto
-406 60 433 vlineto
7 0 6 -1 6 vhcurveto
25 27 30 13 27 hhcurveto
43 15 -24 -62 hvcurveto
-404 68 431 vlineto
81 -36 39 -59 -47 -42 -27 -30 -32 vhcurveto
38 -13 -29 19 -42 hhcurveto
-45 -43 -28 -34 -31 hvcurveto
hintmask 10111100
-5 51 -63 -4 rlineto
5 -125 2 -179 -232 vvcurveto
68 hlineto
hintmask 11011100
198 -2 148 -3 96 vhcurveto
31 30 34 17 27 hhcurveto
endchar
                </CharString>
                <CharString name="macron">
                    -26 callsubr
                </CharString>
                <CharString name="macron.cap">
                    -26 callsubr
                </CharString>
                <CharString name="minus">
                    292 60 hstem
98 429 vstem
527 352 rmoveto
-429 -60 428 hlineto
endchar
                </CharString>
                <CharString name="mu">
                    1 callsubr
62 -30 -21 26 -21 533 -20 23 -20 22 -20 -40 callsubr
hintmask 0110000111000000
175 -182 rmoveto
-5 211 rlineto
-29 26 37 -13 46 hhcurveto
72 56 35 37 43 hvcurveto
hintmask 0101000111000000
5 -61 rlineto
hintmask 0100101011000000
-82 callsubr
hintmask 0110000111000000
-199 2 -142 3 -96 vhcurveto
-32 -48 -49 -21 -58 hhcurveto
-73 -43 38 101 hvcurveto
353 vlineto
hintmask 1010010011000000
-72 -5 rlineto
-725 vlineto
endchar
                </CharString>
                <CharString name="multiply">
                    536 -20 hstem
101 422 vstem
478 107 rmoveto
45 45 -167 170 164 166 -44 45 -164 -167 -166 170 -45 -45 167 -170 -163 -166 44 -43 162 165 rlineto
endchar
                </CharString>
                <CharString name="n">
                    21 -21 490 61 -11 -20 callsubr
hintmask 11011000
333 490 -67 callsubr
                </CharString>
                <CharString name="nacute">
                    21 -21 490 61 -11 -20 callsubr
hintmask 11011000
206 663 -107 callgsubr
127 -173 -67 callsubr
                </CharString>
                <CharString name="naira">
                    0 100 108 59 -55 54 147 59 -57 54 109 110 hstemhm
117 60 278.5 59.5 hintmask 10101111
176 578 rmoveto
6 hlineto
48 -109 rlineto
-54 hlineto
1 -203 rmoveto
-1 149 rlineto
78 hlineto
66 -149 rlineto
58 hmoveto
-66 149 rlineto
144 -149 hlineto
-18 -266 rmoveto
77 hlineto
hintmask 11010111
208 79 59 -79 146 79 59 -79 216 -60 vlineto
hintmask 10101111
1 -219 rlineto
-168 hlineto
-96 219 rlineto
-75 hlineto
hintmask 11010111
-216 -81 -59 81 -146 -81 -59 81 -208 60 vlineto
hintmask 10101111
212 167 vlineto
107 -112 rmoveto
-49 112 rlineto
55 -112 hlineto
endchar
                </CharString>
                <CharString name="ncaron">
                    -15 callgsubr
180 -20 callsubr
hintmask 11011100
321 628 -102 callgsubr
15 -138 -66 callgsubr
endchar
                </CharString>
                <CharString name="ncommaaccent">
                    18 callsubr
112 71 119 74 77 71 hintmask 11011100
333 490 -66 callgsubr
-59 -782 -101 callsubr
                </CharString>
                <CharString name="nine">
                    270 55 314 60 hstem
87 66 316 68 vstem
202 -24 rmoveto
229 111 106 155 192 vvcurveto
174 -93 91 -130 -121 -106 -89 -142 -202 220 -62 156 147 vhcurveto
-22 -128 -85 -103 -185 -82 rrcurveto
-18 439 rmoveto
100 70 62 83 94 69 -70 -143 -8 0 -7 -1 -8 vhcurveto
-143 -130 -172 38 166 vvcurveto
endchar
                </CharString>
                <CharString name="nine.den">
                    -64 43 31 -21 175 50 hstemhm
145 56 220 57 hintmask 10111000
228 -252 rmoveto
169 66 81 100 125 vvcurveto
114 -69 61 -97 -90 -77 -61 -91 vhcurveto
hintmask 11111000
-132 163 -35 109 94 vhcurveto
-14 -81 -59 -58 -138 -51 rrcurveto
hintmask 10111000
-5 268 rmoveto
60 48 37 57 67 48 -43 -90 vhcurveto
-2 0 -3 -2 vvcurveto
-100 -76 -120 23 96 vvcurveto
endchar
                </CharString>
                <CharString name="nine.inf">
                    -165 -21 188 -50 callgsubr
-186 -90 callgsubr
                </CharString>
                <CharString name="nine.num">
                    641 -50 callgsubr
453 -90 callgsubr
                </CharString>
                <CharString name="nine.small">
                    169 -50 callgsubr
-19 -90 callgsubr
                </CharString>
                <CharString name="nine.sup">
                    530 -50 callgsubr
342 -90 callgsubr
                </CharString>
                <CharString name="notequal">
                    4 callsubr
526 172 rmoveto
1 61 rlineto
-218 hlineto
69 187 rlineto
148 hlineto
1 60 rlineto
-127 hlineto
52 142 -54 18 -59 -160 rlineto
-241 -60 219 hlineto
-70 -187 rlineto
-149 -61 127 hlineto
-53 -143 55 -18 59 161 rlineto
endchar
                </CharString>
                <CharString name="ntilde">
                    -15 callgsubr
120 26 callgsubr
-23 callgsubr
hintmask 11011110
399 640 -92 callsubr
-66 -150 -71 callsubr
hintmask 10111110
-5 61 -65 -4 rlineto
5 -125 2 -179 -232 vvcurveto
71 hlineto
hintmask 11011110
-38 callgsubr
                </CharString>
                <CharString name="numbersign">
                    21 -21 201 61 166 61 199 -20 hstem
56 513 vstem
378 262 rmoveto
-149 hlineto
17 166 rlineto
149 hlineto
-43 -428 rmoveto
53 hlineto
20 201 rlineto
115 hlineto
7 61 rlineto
-116 hlineto
17 166 rlineto
115 hlineto
6 61 rlineto
-115 hlineto
20 199 rlineto
-53 hlineto
-20 -199 rlineto
-149 hlineto
20 199 rlineto
-54 hlineto
-20 -199 rlineto
-114 hlineto
-6 -61 rlineto
114 hlineto
-17 -166 rlineto
-113 hlineto
-6 -61 rlineto
113 hlineto
-20 -201 rlineto
54 hlineto
20 201 rlineto
149 hlineto
endchar
                </CharString>
                <CharString name="numero">
                    20 -21 22 -21 138 55 60 57 326 56 -4 -20 hstemhm
58 25 callgsubr
138 25 callgsubr
42 60 115 59 hintmask 0111101111000000
464 253 rmoveto
70 55 82 147 142 -45 68 -64 -70 -55 -81 -147 -142 46 -69 63 hvcurveto
hintmask 1011011111000000
-213 -253 rmoveto
62 -1 rlineto
688 vlineto
-60 1 3 -503 rlineto
-2 hlineto
-129 503 rlineto
-67 hlineto
hintmask 0111101111000000
-688 60 vlineto
-3 533 rlineto
2 hlineto
357 -223 rmoveto
-34 -25 60 107 100 22 59 32 34 27 -60 -106 -102 -22 -58 -34 hvcurveto
106 -172 rmoveto
55 -217 -55 vlineto
endchar
                </CharString>
                <CharString name="o">
                    -53 callgsubr
302 -15 -105 callgsubr
                </CharString>
                <CharString name="oacute">
                    -53 callgsubr
205 655 -107 callgsubr
97 -670 -105 callgsubr
                </CharString>
                <CharString name="obreve">
                    6 callsubr
78 59 hstem
73 72 336 71 vstem
309 631 -105 callsubr
-7 -646 -105 callgsubr
                </CharString>
                <CharString name="ocircumflex">
                    -53 callgsubr
459 626 -100 callgsubr
-6 -773 -105 callgsubr
                </CharString>
                <CharString name="odieresis">
                    6 callsubr
81 -6 callsubr
73 72 11.5 -67 callgsubr
9 71 hintmask 11101100
471 634 -100 callsubr
hintmask 11111110
145 -649 -105 callgsubr
                </CharString>
                <CharString name="oe">
                    -7 59 204.5 46 183.5 59 hstem
47 71 177 61 154 63 vstem
557 -7 rmoveto
8 60 -163 7 -43 55 -3 139 rlinecurve
217 5 rlineto
181 11 -36 105 -98 hhcurveto
-55 -42 -35 -64 -26 hvcurveto
67 -24 -41 32 -52 hhcurveto
-98 -65 -102 -186 -178 57 -86 92 60 45 42 73 26 hvcurveto
32 -72 68 -40 130 -3 rrcurveto
-121 494 rmoveto
60 16 -65 -117 -2 hvcurveto
-154 -5 rlineto
128 4 31 59 45 hhcurveto
-224 -435 rmoveto
-63 -31 69 154 148 34 63 52 54 37 -78 -144 -140 -30 -72 -53 hvcurveto
endchar
                </CharString>
                <CharString name="ogonek">
                    -55 callgsubr
                </CharString>
                <CharString name="ogonek.cap">
                    -55 callgsubr
                </CharString>
                <CharString name="ograve">
                    -53 callgsubr
417 646 -96 callsubr
-92 -630 -105 callgsubr
                </CharString>
                <CharString name="ohungarumlaut">
                    -53 callgsubr
155 647 -92 callgsubr
-82 -661 -105 callgsubr
                </CharString>
                <CharString name="omacron">
                    6 callsubr
127 62 hstem
73 72 336 71 vstem
494 742 -65 callsubr
-192 -695 -105 callgsubr
                </CharString>
                <CharString name="one">
                    0 61 499 153 -6 -31 callgsubr
306 69 hintmask 10011000
540 hmoveto
6 61 rlineto
-171 652 hlineto
hintmask 10101000
-69 -6 rlineto
hintmask 11001000
-78 vlineto
-181 -23 1 -51 180 10 rlineto
-504 -192 -61 vlineto
endchar
                </CharString>
                <CharString name="one.den">
                    -233 -64 callsubr
-233 rmoveto
-98 callgsubr
endchar
                </CharString>
                <CharString name="one.inf">
                    -167 -64 callsubr
-167 rmoveto
-98 callgsubr
endchar
                </CharString>
                <CharString name="one.num">
                    472 51 276.5 128 hstem
303 58 vstem
-89 callsubr
endchar
                </CharString>
                <CharString name="one.small">
                    0 -64 callsubr
hmoveto
-98 callgsubr
endchar
                </CharString>
                <CharString name="one.sup">
                    361 -64 callsubr
361 rmoveto
-98 callgsubr
endchar
                </CharString>
                <CharString name="oneeighth">
                    -4 callsubr
109 51 276.5 128 hstemhm
148 58 -49 60 86 58 51 56 -52 60 hintmask 1011111101100000
-94 callgsubr
5 callgsubr
hintmask 1011111101010000
-70 callgsubr
hintmask 1011111011100000
-80 callsubr
vhcurveto
hintmask 1101111011100000
-47 callsubr
hintmask 1011111101100000
-58 callgsubr
hintmask 1011111011100000
-90 callsubr
hintmask 1011111101010000
-91 callgsubr
                </CharString>
                <CharString name="onefifth">
                    -49 callsubr
108 -24 callgsubr
182 52 69 58 54 56 hintmask 1011111111000000
-94 callgsubr
395 -454 rmoveto
hintmask 1101111111000000
-104 callgsubr
hintmask 1011111111000000
-9 callsubr
                </CharString>
                <CharString name="onehalf">
                    21 callgsubr
98 -24 callgsubr
303 58 42 59 hintmask 10111111
-94 callgsubr
401 -596 -39 callgsubr
hintmask 01111111
-71 -89 -70 -165 -115 vhcurveto
hintmask 10111111
6 -48 rlineto
endchar
                </CharString>
                <CharString name="onequarter">
                    12 callsubr
403 -24 callgsubr
157 50 96 58 23.5 55 hintmask 11110100
-94 callgsubr
hintmask 11111110
423 -503 -95 callgsubr
                </CharString>
                <CharString name="onesixth">
                    -243 49 185 43 279 3 callgsubr
hstem
147 56 100 58 63 56 vstem
-94 callgsubr
236 -606 -103 callgsubr
                </CharString>
                <CharString name="onethird">
                    -245 55 344 51 108 3 callgsubr
hstem
303 58 56 57 vstem
-94 callgsubr
91 -608 rmoveto
-106 callsubr
endchar
                </CharString>
                <CharString name="ordfeminine">
                    135 51 87 48 153 42 123 55 hstem
134 60 220 60 vstem
284 321 rmoveto
-52 -38 21 47 61 59 36 161 -16 hvcurveto
-43 2 -31 1 -27 vhcurveto
-26 -35 -50 -22 -48 hhcurveto
140 -40 rmoveto
55 4 rlineto
-2 58 -3 53 90 vvcurveto
152 -68 47 -234 9 vhcurveto
-6 -55 182 -8 57 -22 8 -93 rlinecurve
-187 12 -92 -63 -87 vvcurveto
-67 57 -38 77 64 53 28 30 34 vhcurveto
2 -17 2 -22 1 -11 rrcurveto
-293 -95 rmoveto
-51 360 51 vlineto
endchar
                </CharString>
                <CharString name="ordmasculine">
                    135 51 87 51 322 50 hstem
119 61 265 61 vstem
119 479 rmoveto
-130 78 -76 107 111 91 86 132 128 -79 77 -108 -109 -91 -87 -130 vhcurveto
193 -155 rmoveto
-80 -52 56 109 100 51 57 80 82 52 -57 -108 -101 -52 -56 -81 hvcurveto
183 -189 rmoveto
51 -364 -51 vlineto
endchar
                </CharString>
                <CharString name="oslash">
                    -17 callsubr
144 275 -84 callsubr
                </CharString>
                <CharString name="oslashacute">
                    -17 callsubr
205 655 -107 callgsubr
-61 -380 -84 callsubr
                </CharString>
                <CharString name="otilde">
                    6 callsubr
79 26 callgsubr
hstem
73 72 336 71 vstem
398 632 -92 callsubr
-96 -647 -105 callgsubr
                </CharString>
                <CharString name="p">
                    -168 -12 callsubr
170 61 -33 -21 497 60 -11 -20 hstemhm
117 71 293 70 hintmask 01101011
290 48 rmoveto
-33 -33 6 13 -36 hvcurveto
-1 168 -3 106 -2 98 rrcurveto
30 40 49 22 50 19 callgsubr
-85 -81 -106 hvcurveto
-102 -231 rmoveto
hintmask 01011011
177 vlineto
hintmask 01101011
-5 25 26 -2 24 hhcurveto
154 134 114 191 158 -87 101 -116 -70 -56 -31 -36 -42 hvcurveto
hintmask 10100111
-5 56 -65 -4 rlineto
5 -118 2 -169 -250 vvcurveto
-188 vlineto
endchar
                </CharString>
                <CharString name="paragraph">
                    118 60 452 69 hstemhm
63 69 159 63 -55.5 54.5 107 63 hintmask 11101100
460 178 rmoveto
-39 1 -35 4 -33 7 rrcurveto
433 vlineto
32 6 36 2 39 -1 rrcurveto
-328 -227 rmoveto
93 54 79 112 35 vhcurveto
1 -406 rlineto
-106 37 -61 72 90 vvcurveto
hintmask 11110100
222 -523 rmoveto
246 vlineto
-5 33 35 -3 38 hhcurveto
-217 vlineto
63 8 rlineto
790 vlineto
-290 2 -170 -131 -179 vvcurveto
-120 85 -92 143 -40 vhcurveto
-267 vlineto
endchar
                </CharString>
                <CharString name="parenleft">
                    -228 15 callsubr
802 -58 callsubr
                </CharString>
                <CharString name="parenleft.cap">
                    -175 15 callsubr
855 -58 callsubr
                </CharString>
                <CharString name="parenright">
                    -227 16 callgsubr
-227 -57 callsubr
                </CharString>
                <CharString name="parenright.cap">
                    -175 16 callgsubr
-175 -57 callsubr
                </CharString>
                <CharString name="percent">
                    -13 55 -38 -21 256 56 101 55 196 57 -5 -20 hstemhm
61 58 95 58 81 57 96 57 hintmask 1011101111000000
171 704 rmoveto
-63 -47 -62 -98 -93 41 -55 61 61 48 61 97 94 -41 56 -60 hvcurveto
hintmask 0111011111000000
322 -5 rmoveto
-411 -687 51 -29 410 689 rlineto
hintmask 1011101111000000
-375 -25 rmoveto
29 17 -34 -62 -64 -18 -36 -31 -29 -17 36 62 63 18 35 31 hvcurveto
286 -660 rmoveto
61 48 61 98 93 -40 56 -60 -63 -47 -62 -98 -93 40 -55 61 hvcurveto
3 55 rmoveto
-30 -17 36 63 62 18 36 31 30 17 -35 -62 -63 -18 -37 -31 hvcurveto
endchar
                </CharString>
                <CharString name="period">
                    0 113 hstem
255.5 112 vstem
365 hmoveto
5 113 rlineto
-112 hlineto
-5 -113 rlineto
endchar
                </CharString>
                <CharString name="periodcentered">
                    284 114 hstem
23 callsubr
112 vstem
368 284 rmoveto
3 114 rlineto
-112 hlineto
-3 -114 rlineto
endchar
                </CharString>
                <CharString name="peso">
                    21 -21 210 66 144 60 -55 53 159 61 -12 -20 hstemhm
124 68 hintmask 11011010
192 478 rmoveto
154 vlineto
164 25 90 -66 11 -113 rrcurveto
-265 -202 rmoveto
149 264 vlineto
-14 -113 -95 -44 -155 8 rrcurveto
hintmask 11100110
407 144 rmoveto
60 -74 vlineto
-7 162 -137 90 -257 -46 rrcurveto
-206 -88 -60 88 -420 68 210 vlineto
181 11 124 66 24 133 rrcurveto
endchar
                </CharString>
                <CharString name="plus">
                    292 60 hstem
280 64 vstem
546 292 rmoveto
1 60 rlineto
-203 213 -64 -213 -203 -60 203 -213 64 213 hlineto
endchar
                </CharString>
                <CharString name="plusminus">
                    77 60 194 62 hstem
280 64 vstem
535 77 rmoveto
1 60 rlineto
-192 194 194 hlineto
1 62 rlineto
-195 203 -64 -203 -194 -62 194 -194 -192 -60 hlineto
endchar
                </CharString>
                <CharString name="published">
                    8 42 212 47 170 46 113 42 hstem
56 46 131 51 90 50 99 -11 callsubr
-144 -109 -35 callgsubr
85 119 121 -22 callsubr
182 -184 rmoveto
1 0 47 59 vvcurveto
82 8 58 40 91 vvcurveto
97 -62 42 -129 -19 vhcurveto
-366 vlineto
141 241 rmoveto
-68 -34 -25 -56 6 vhcurveto
64 1 68 -1 38 vhcurveto
60 7 30 -28 -62 vvcurveto
endchar
                </CharString>
                <CharString name="q">
                    -167 -12 callsubr
169 60 442 62 hstemhm
73 71 296 71 hintmask 10111100
440 -188 rmoveto
hintmask 01111100
71 6 rlineto
705 vlineto
19 -48 -44 9 -52 hhcurveto
-151 -143 -114 -195 -158 87 -97 118 67 55 30 35 40 hvcurveto
-136 -5 rmoveto
-93 -67 72 141 149 86 80 110 33 32 -6 -13 35 hvcurveto
-369 vlineto
-30 -37 -49 -24 -50 hhcurveto
endchar
                </CharString>
                <CharString name="question">
                    0 109 577 66 hstem
210 104 152 74 vstem
103 686 rmoveto
289 -18 74 -50 -58 vvcurveto
-87 -212 -66 -9 -157 vhcurveto
49 -2 rlineto
15 144 231 62 121 vvcurveto
86 -98 72 -332 19 vhcurveto
203 -752 rmoveto
2 109 rlineto
-104 hlineto
-2 -109 rlineto
endchar
                </CharString>
                <CharString name="questiondown">
                    -64 66 577 109 hstem
85 74 152 103 vstem
313 688 rmoveto
-4 -109 rlineto
103 hlineto
4 109 rlineto
106 -686 rmoveto
-288 18 -75 50 58 vvcurveto
87 212 66 10 157 vhcurveto
-49 2 rlineto
-16 -144 -231 -62 -121 vvcurveto
-86 97 -72 332 -19 vhcurveto
endchar
                </CharString>
                <CharString name="quotedbl">
                    416 324 hstem
162 90 147.5 89 vstem
448 416 rmoveto
42 285 -3 39 rlineto
-90 hlineto
5 -324 rlineto
-190 hmoveto
42 285 -4 39 rlineto
-91 hlineto
6 -324 rlineto
endchar
                </CharString>
                <CharString name="quotedblbase">
                    22 callsubr
190 79 152 80 vstem
129 -202 rmoveto
35 -12 95 93 31 114 -34 126 rlinecurve
-104 -6 55 -125 -3 -99 -75 -91 rlinecurve
230 1 rmoveto
35 -13 96 93 31 114 -32 126 rlinecurve
-104 -6 54 -124 -4 -100 -76 -90 rlinecurve
endchar
                </CharString>
                <CharString name="quotedblleft">
                    429 336 hstem
137 80 151 79 vstem
506 752 rmoveto
-35 13 -95 -95 -29 -114 35 -127 rlinecurve
102 9 -55 124 4 100 73 90 rlinecurve
-229 hmoveto
-36 13 -95 -94 -30 -114 34 -128 rlinecurve
101 9 -53 124 6 100 73 90 rlinecurve
endchar
                </CharString>
                <CharString name="quotedblright">
                    403 336 hstem
192 79 152 79 vstem
132 416 rmoveto
36 -13 94 95 30 114 -35 127 rlinecurve
-102 -9 55 -124 -4 -100 -74 -90 rlinecurve
230 hmoveto
36 -13 95 94 30 114 -34 128 rlinecurve
-100 -9 52 -124 -5 -100 -74 -90 rlinecurve
endchar
                </CharString>
                <CharString name="quoteleft">
                    429 336 hstem
250 81 vstem
395 752 rmoveto
-38 13 -95 -94 -35 -114 38 -128 rlinecurve
102 9 -55 125 7 99 76 90 rlinecurve
endchar
                </CharString>
                <CharString name="quoteright">
                    403 336 hstem
309 81 vstem
246 416 rmoveto
37 -13 95 93 35 114 -38 129 rlinecurve
-102 -9 55 -125 -7 -99 -75 -90 rlinecurve
endchar
                </CharString>
                <CharString name="quotesinglbase">
                    22 callsubr
305 82 vstem
241 -201 rmoveto
37 -13 96 93 36 114 -37 126 rlinecurve
-106 -6 57 -125 -5 -99 -78 -90 rlinecurve
endchar
                </CharString>
                <CharString name="quotesingle">
                    403 337 hstem
284.5 97.5 vstem
336 403 rmoveto
48 297 -4 40 rlineto
-98 hlineto
5 -337 rlineto
endchar
                </CharString>
                <CharString name="r">
                    -21 callgsubr
hintmask 11010000
487 hmoveto
7 55 rlineto
-37 callgsubr
rrcurveto
hintmask 10110000
-33 callgsubr
hintmask 11010000
-81 callsubr
endchar
                </CharString>
                <CharString name="racute">
                    -21 callgsubr
hintmask 11010000
230 660 -107 callgsubr
257 -660 rmoveto
7 55 rlineto
-37 callgsubr
rrcurveto
hintmask 10110000
-33 callgsubr
hintmask 11010000
-81 callsubr
endchar
                </CharString>
                <CharString name="rcaron">
                    0 55 429 55 19 -20 159 -20 hstemhm
232 70 hintmask 11011000
345 625 -102 callgsubr
145 -625 rmoveto
7 55 rlineto
-37 callgsubr
rrcurveto
hintmask 10111000
-33 callgsubr
hintmask 11011000
-81 callsubr
endchar
                </CharString>
                <CharString name="rcommaaccent">
                    -21 callgsubr
-37 74 hintmask 11001000
487 hmoveto
7 55 rlineto
hintmask 10110000
-37 callgsubr
-33 callgsubr
hintmask 11010000
-81 callsubr
hintmask 11001000
155 -292 -101 callsubr
                </CharString>
                <CharString name="registered">
                    222 38 186.5 23 callgsubr
96 37 94 38 hstem
52 43 132 45 104 44 111 42 vstem
573 491 rmoveto
158 -110 99 -148 -3 vhcurveto
-156 -2 -107 -107 -160 vvcurveto
-158 103 -96 156 148 114 109 160 vhcurveto
-42 -4 rmoveto
-144 -96 -83 -125 -125 -90 79 141 138 92 89 128 127 89 -78 -142 vhcurveto
-144 -130 rmoveto
46 8 -67 99 rlineto
29 18 25 25 32 vvcurveto
55 -64 33 -129 -18 vhcurveto
-250 45 87 vlineto
60 1 rlineto
-60 129 rmoveto
67 5 37 -17 -32 vvcurveto
-20 -14 -18 -20 -13 vhcurveto
-70 -2 rlineto
endchar
                </CharString>
                <CharString name="registered.alt">
                    8 42 239.5 43 149.5 48 108 42 hstem
56 46 123 50 86 51 111 -11 callsubr
-143 -110 -35 callgsubr
86 119 120 -22 callsubr
270 -188 rmoveto
55 7 -63 156 rlineto
27 27 21 38 46 vvcurveto
74 -51 49 -136 -24 vhcurveto
-368 50 132 vlineto
50 3 rlineto
-50 191 rmoveto
55 11 31 -27 -51 vvcurveto
-33 -11 -28 -19 -21 vhcurveto
-56 -1 rlineto
endchar
                </CharString>
                <CharString name="ring">
                    605 47 139 47 hstem
177 -12 callgsubr
vstem
322 838 -98 callsubr
endchar
                </CharString>
                <CharString name="ring.cap">
                    605 47 139 47 hstem
177 -12 callgsubr
vstem
322 838 -98 callsubr
endchar
                </CharString>
                <CharString name="ruble">
                    0 194 -54 54 109 56 276 62 -11 -20 hstemhm
156 70 265 70 hintmask 01110110
491 503 rmoveto
-110 -85 -32 -180 -2 vhcurveto
272 vlineto
170 19 95 -46 -101 vvcurveto
-22 -363 rmoveto
6 54 rlineto
-249 111 hlineto
215 8 120 58 140 vvcurveto
hintmask 01101110
148 -145 65 -260 -38 vhcurveto
-327 -100 -56 100 -107 -100 -56 100 vlineto
hintmask 10110110
-140 70 vlineto
hintmask 01110110
140 vlineto
endchar
                </CharString>
                <CharString name="rupee">
                    15 -21 23 -21 25 -12 callsubr
260 51.5 227.5 -20 111 60 -10 -20 hstemhm
92 64 112 64 48 62 77 64 hintmask 0100111011110000
292 -4 rmoveto
hintmask 0001110111110000
63 10 -87 295 rlineto
37 44 27 66 93 vvcurveto
140 -61 82 -179 -40 vhcurveto
hintmask 0010111011110000
-686 64 264 vlineto
58 4 rlineto
-58 365 rmoveto
80 15 32 -49 -106 vvcurveto
-77 -16 -58 -26 -39 vhcurveto
-70 -3 rlineto
414 229 rmoveto
-139 15 -51 -82 -71 -125 139 -45 -101 vvcurveto
hintmask 1000111011110000
-50 -30 -42 -108 12 vhcurveto
1 -62 rlineto
152 -13 49 84 76 127 -141 47 95 vvcurveto
46 26 40 104 -13 vhcurveto
endchar
                </CharString>
                <CharString name="rupeeindia">
                    6 -21 432 54 157 60 hstem
98 454 vstem
534 23 rmoveto
-153 124 -86 65 -97 29 138 26 85 66 16 84 rrcurveto
110 54 -109 hlineto
-9 69 -51 58 -87 30 rrcurveto
257 hlineto
4 60 rlineto
-447 hlineto
-5 -60 175 -17 79 -63 15 -77 rlinecurve
-267 -54 267 hlineto
-14 -75 -75 -57 -168 -15 -14 -54 rcurveline
142 -40 70 -54 166 -137 rrcurveto
endchar
                </CharString>
                <CharString name="s">
                    -3 59 -28 callsubr
238 73 hintmask 11011000
489 542 rmoveto
hintmask 10111000
-85 callgsubr
endchar
                </CharString>
                <CharString name="sacute">
                    -3 59 -28 callsubr
238 73 hintmask 10111000
208 653 -107 callgsubr
hintmask 11011000
281 -111 rmoveto
hintmask 10111000
-85 callgsubr
endchar
                </CharString>
                <CharString name="scaron">
                    -3 59 426 60 -60 63 145 13 callsubr
hstemhm
129 72 238 73 hintmask 10111110
323 618 -102 callgsubr
hintmask 11011110
169 -76 rmoveto
hintmask 10111110
-85 callgsubr
endchar
                </CharString>
                <CharString name="scedilla">
                    -165 -21 182 60 -57 57 -28 callsubr
146 63 29 73 hintmask 11001101
218 -244 rmoveto
hintmask 10101111
-36 callsubr
40 -36 45 -79 48 vhcurveto
hintmask 10101101
161 19 56 66 64 139 -311 21 99 vvcurveto
46 57 46 234 -22 vhcurveto
hintmask 11010101
-3 65 rlineto
hintmask 11001101
-272 22 -88 -88 -80 -135 310 -14 -106 vvcurveto
-52 -68 -49 -247 21 vhcurveto
-3 -64 47 -3 42 0 37 2 rlinecurve
-8 -16 rlineto
hintmask 11001111
-62 callgsubr
endchar
                </CharString>
                <CharString name="schwa">
                    -13 60 189.5 46.5 206 62 hstem
86 69 314 71 vstem
289 -13 rmoveto
139 112 126 163 175 -92 95 -331 5 hvcurveto
-9 -62 272 -8 82 -56 7 -137 rlinecurve
-380 -10 rlineto
-172 -20 75 -119 145 hhcurveto
13 60 rmoveto
-100 -48 75 110 1 hvcurveto
314 9 rlineto
-123 -6 -64 -71 -97 hhcurveto
endchar
                </CharString>
                <CharString name="scommaaccent">
                    -3 59 -28 callsubr
75 74 89 73 hintmask 11011100
489 542 rmoveto
hintmask 10111100
-85 callgsubr
-244 -781 -101 callsubr
                </CharString>
                <CharString name="section">
                    -119 63 689 63 hstemhm
84 64 -18 73 219 72 -18 65 hintmask 11100100
148 309 rmoveto
38 48 35 61 23 vhcurveto
99 -44 120 -31 -62 vvcurveto
-37 -47 -36 -60 -24 vhcurveto
-99 44 -122 30 64 vvcurveto
hintmask 11101000
346 -262 rmoveto
43 -32 32 -45 26 vhcurveto
hintmask 11010100
70 31 54 49 56 139 -338 18 96 vvcurveto
49 64 55 240 -8 vhcurveto
-4 63 rlineto
-274 9 -99 -94 -81 vvcurveto
-43 33 -32 45 -26 vhcurveto
hintmask 11101000
-70 -31 -54 -48 -57 -139 338 -19 -96 vvcurveto
-49 -68 -55 -239 9 vhcurveto
-4 -63 rlineto
282 -10 101 95 81 vvcurveto
endchar
                </CharString>
                <CharString name="semicolon">
                    371 114 hstemhm
263 111.5 -78.5 82 hintmask 11000000
374 371 20 callsubr
-2 -114 rlineto
hintmask 10100000
-31 -572 rmoveto
37 -13 96 92 37 113 -37 128 rlinecurve
-106 -7 57 -125 -6 -99 -78 -89 rlinecurve
endchar
                </CharString>
                <CharString name="servicemark">
                    323 47 14 69 172 63 -42 47 hstemhm
50 49 87 49 60 -1 callsubr
hintmask 11101111
410 384 -52 callsubr
hintmask 10011111
-293 -255 rmoveto
-47 vlineto
131 53 51 51 hvcurveto
83 -136 34 58 vvcurveto
27 28 21 90 -2 vhcurveto
-2 47 rlineto
-119 4 -46 -55 -48 -81 136 -33 -58 vvcurveto
-28 -33 -27 -102 3 vhcurveto
endchar
                </CharString>
                <CharString name="seven">
                    16 -21 29 -21 620 65 hstemhm
101 443 -72 72 hintmask 10110000
254 -5 rmoveto
hintmask 01101000
72 214 98 214 120 205 rrcurveto
60 -438 vlineto
-5 -65 rlineto
370 hlineto
2 -4 -122 -199 -99 -208 -71 -209 rlinecurve
endchar
                </CharString>
                <CharString name="seven.den">
                    153 -45 callgsubr
-240 rmoveto
hintmask 10100000
-88 callsubr
endchar
                </CharString>
                <CharString name="seven.inf">
                    219 -45 callgsubr
-174 rmoveto
hintmask 10100000
-88 callsubr
endchar
                </CharString>
                <CharString name="seven.num">
                    858 -45 callgsubr
465 rmoveto
hintmask 10100000
-88 callsubr
endchar
                </CharString>
                <CharString name="seven.small">
                    14 -21 28 -21 386 52 hstemhm
156 326 -61 61 hintmask 10110000
275 -7 rmoveto
hintmask 01101000
-88 callsubr
endchar
                </CharString>
                <CharString name="seven.sup">
                    747 -45 callgsubr
354 rmoveto
hintmask 10100000
-88 callsubr
endchar
                </CharString>
                <CharString name="seveneighths">
                    -4 callsubr
495 52 -59 callsubr
-55 61 hintmask 1011111010000000
275 465 rmoveto
hintmask 1011111000100000
-88 callsubr
-138 -66 callsubr
5 callgsubr
hintmask 1011111001000000
-70 callgsubr
hintmask 1011110110000000
-80 callsubr
vhcurveto
hintmask 1101110110000000
-47 callsubr
hintmask 1011111010000000
-71 -28 -44 -41 -54 vvcurveto
hintmask 1011111000100000
-64 62 -43 93 vhcurveto
hintmask 1011110110000000
-90 callsubr
hintmask 1011111001000000
-91 callgsubr
                </CharString>
                <CharString name="six">
                    -11 60 314 55 295 -20 hstem
89 69 314 68 vstem
313 -11 rmoveto
121 106 89 143 200 -221 62 -155 -144 hvcurveto
22 128 83 103 184 80 -30 63 rcurveline
-229 -112 -105 -155 -192 vvcurveto
-173 92 -92 132 vhcurveto
6 60 rmoveto
-93 -68 70 143 9 0 8 1 9 hvcurveto
143 127 170 -38 -165 vvcurveto
-101 -68 -62 -85 vhcurveto
endchar
                </CharString>
                <CharString name="six.den">
                    -243 -51 callsubr
-243 -103 callgsubr
                </CharString>
                <CharString name="six.inf">
                    -177 -51 callsubr
-177 -103 callgsubr
                </CharString>
                <CharString name="six.num">
                    462 49 174 -20 31 43 hstemhm
147 56 221 56 hintmask 10111000
312 462 rmoveto
90 78 60 91 hvcurveto
hintmask 11111000
133 -165 35 -109 -96 vhcurveto
14 82 60 58 137 53 -21 50 rcurveline
-169 -66 -80 -101 -124 vvcurveto
hintmask 10111000
-114 68 -61 97 vhcurveto
6 49 rmoveto
-67 -48 44 89 hvcurveto
2 0 3 2 vvcurveto
102 75 119 -22 -97 vvcurveto
-59 -48 -37 -58 vhcurveto
endchar
                </CharString>
                <CharString name="six.small">
                    -10 -51 callsubr
-10 -103 callgsubr
                </CharString>
                <CharString name="six.sup">
                    351 -51 callsubr
351 -103 callgsubr
                </CharString>
                <CharString name="slash">
                    -203 1000 hstem
24 579 vstem
543 797 rmoveto
-519 -977 63 -23 516 972 rlineto
endchar
                </CharString>
                <CharString name="space">
                    endchar
                </CharString>
                <CharString name="sterling">
                    0 61 251 57 337 -20 hstem
76 462 vstem
531 62 rmoveto
-301 -2 26 252 rlineto
209 hlineto
4 57 rlineto
-207 hlineto
23 208 30 44 223 13 -5 72 rcurveline
-259 -21 -56 -85 -25 -231 rrcurveto
-104 hlineto
-5 -57 rlineto
103 hlineto
-26 -252 -85 -1 rlineto
-59 455 vlineto
endchar
                </CharString>
                <CharString name="t">
                    -35 callsubr
hintmask 11011000
516 -10 rmoveto
7 61 rlineto
-188 4 -53 27 98 vvcurveto
303 229 56 -229 158 vlineto
hintmask 11101000
-71 -6 rlineto
-152 -105 vlineto
-8 -56 rlineto
113 -314 hlineto
hintmask 11011000
-130 78 -50 227 1 vhcurveto
endchar
                </CharString>
                <CharString name="tcaron">
                    -35 callsubr
153 71 hintmask 11011100
401 656 -76 callsubr
115 -666 -59 callgsubr
endchar
                </CharString>
                <CharString name="tcommaaccent">
                    -35 callsubr
41 74 hintmask 11011100
516 -10 -59 callgsubr
-221 -292 -101 callsubr
                </CharString>
                <CharString name="thorn">
                    1 callsubr
62 -33 -21 496 60 224 -31 callgsubr
115 71 296 70 hintmask 0110101110000000
290 49 rmoveto
-34 -32 4 14 -38 hvcurveto
375 vlineto
29 39 48 20 49 hhcurveto
91 69 -77 -139 -145 -86 -81 -106 hvcurveto
-104 -231 rmoveto
hintmask 0101101110000000
177 vlineto
hintmask 0110101110000000
-5 27 28 -3 26 hhcurveto
149 136 114 191 158 -88 101 -117 -66 -54 -29 -33 -41 hvcurveto
292 vlineto
hintmask 1010110110000000
-71 -6 rlineto
-964 vlineto
endchar
                </CharString>
                <CharString name="three">
                    -12 66 571 63 hstem
464 67 vstem
115 -12 rmoveto
297 14 119 84 114 vvcurveto
80 -71 72 -212 32 vhcurveto
271 242 -5 62 rlineto
-397 -63 326 hlineto
-277 -247 rlineto
-35 vlineto
224 -26 74 -58 -66 vvcurveto
-74 -94 -51 -260 -14 vhcurveto
endchar
                </CharString>
                <CharString name="three.den">
                    -245 -38 callsubr
-245 rmoveto
-106 callsubr
endchar
                </CharString>
                <CharString name="three.inf">
                    -179 -38 callsubr
-179 rmoveto
-106 callsubr
endchar
                </CharString>
                <CharString name="three.num">
                    460 2 callgsubr
hstem
417 57 vstem
24 callgsubr
-106 callsubr
endchar
                </CharString>
                <CharString name="three.small">
                    -12 -38 callsubr
-12 rmoveto
-106 callsubr
endchar
                </CharString>
                <CharString name="three.sup">
                    349 -38 callsubr
349 rmoveto
-106 callsubr
endchar
                </CharString>
                <CharString name="threeeighths">
                    -4 callsubr
97 2 callgsubr
hstemhm
148 58 -49 60 195 56 -51 57 hintmask 1011111110010000
24 callgsubr
-106 callsubr
-86 -202 -73 callgsubr
5 callgsubr
-70 callgsubr
hintmask 1011111101100000
-80 callsubr
vhcurveto
hintmask 1101111101010000
-47 callsubr
hintmask 1011111110010000
-58 callgsubr
hintmask 1011111101100000
-90 callsubr
hintmask 1011111110010000
-91 callgsubr
                </CharString>
                <CharString name="threefifths">
                    -49 callsubr
108 10 callgsubr
-22 callgsubr
-54 57 hintmask 0011111111000000
24 callgsubr
hintmask 0011111110100000
-106 callsubr
-86 -202 -73 callgsubr
hintmask 1101111111000000
395 -454 rmoveto
-104 callgsubr
-9 callsubr
                </CharString>
                <CharString name="threequarters">
                    12 callsubr
403 10 callgsubr
-41 callsubr
-22.5 57 hintmask 11111010
24 callgsubr
hintmask 11111001
-106 callsubr
-86 -202 -73 callgsubr
hintmask 11111110
423 -503 -95 callgsubr
                </CharString>
                <CharString name="tilde">
                    -70 callsubr
                </CharString>
                <CharString name="tilde.cap">
                    -70 callsubr
                </CharString>
                <CharString name="trademark">
                    643 45 hstem
115 48 132 -1 callsubr
vstem
163 643 rmoveto
79 45 -207 hlineto
-4 -45 rlineto
84 -315 48 hlineto
247 56 -52 callsubr
endchar
                </CharString>
                <CharString name="two">
                    0 63 567 67 hstem
445 70 vstem
539 hmoveto
63 -361 vlineto
216 177 121 117 142 vvcurveto
113 -87 88 -307 -3 vhcurveto
-6 -67 rlineto
259 -1 71 -57 -89 vvcurveto
-120 -123 -114 -228 -190 vhcurveto
6 -59 rlineto
endchar
                </CharString>
                <CharString name="two.den">
                    21 callgsubr
hstemhm
403 59 hintmask 10110000
477 -233 -39 callgsubr
hintmask 01110000
-71 -89 -70 -165 -115 vhcurveto
hintmask 10110000
6 -48 rlineto
endchar
                </CharString>
                <CharString name="two.inf">
                    -167 -21 callsubr
-167 -55 callsubr
                </CharString>
                <CharString name="two.num">
                    472 -21 callsubr
472 -55 callsubr
                </CharString>
                <CharString name="two.small">
                    0 -21 callsubr
hmoveto
-91 callsubr
endchar
                </CharString>
                <CharString name="two.sup">
                    361 -21 callsubr
361 -55 callsubr
                </CharString>
                <CharString name="twofifths">
                    -49 callsubr
11 callsubr
182 52 169 59 -47 56 hintmask 0011111110000000
477 472 rmoveto
-91 callsubr
-79 -66 callsubr
hintmask 1101111101000000
395 -454 rmoveto
-104 callgsubr
-9 callsubr
                </CharString>
                <CharString name="twothirds">
                    -245 55 344 51 11 callsubr
403 59 -45 57 hintmask 11111100
477 472 rmoveto
-91 callsubr
-79 -66 callsubr
91 -608 rmoveto
hintmask 11111010
-106 callsubr
endchar
                </CharString>
                <CharString name="u">
                    -76 callgsubr
-40 callsubr
hintmask 01000111
455 -2 -96 callgsubr
                </CharString>
                <CharString name="uacute">
                    -76 callgsubr
-40 callsubr
hintmask 10000111
207 654 -107 callgsubr
hintmask 01000111
248 -656 -96 callgsubr
                </CharString>
                <CharString name="ubreve">
                    -76 callgsubr
109 59 -40 callsubr
hintmask 1000011110000000
312 630 -105 callsubr
hintmask 0100011110000000
143 -632 rmoveto
hintmask 0010101110000000
-82 callsubr
hintmask 1000011110000000
-198 2 -142 3 -96 vhcurveto
-33 -47 -49 -22 -58 hhcurveto
-74 -43 39 109 hvcurveto
345 vlineto
hintmask 1001001110000000
-72 -5 rlineto
-362 vlineto
-133 65 -54 97 78 60 36 37 46 vhcurveto
endchar
                </CharString>
                <CharString name="ucircumflex">
                    -76 callgsubr
-40 callsubr
hintmask 10000111
462 625 -100 callgsubr
hintmask 01000111
144 -759 -96 callgsubr
                </CharString>
                <CharString name="udieresis">
                    -76 callgsubr
112 147 17 callsubr
-17.5 -67 callgsubr
-32 71 hintmask 1000011011000000
473 633 -100 callsubr
hintmask 0100011100100000
296 -635 rmoveto
hintmask 0010101100100000
-82 callsubr
hintmask 1000011100100000
-198 2 -142 3 -96 vhcurveto
-33 -47 -49 -22 -58 hhcurveto
-74 -43 39 109 hvcurveto
345 vlineto
hintmask 1001001100100000
-72 -5 rlineto
-362 vlineto
-133 65 -54 97 78 60 36 37 46 vhcurveto
endchar
                </CharString>
                <CharString name="ugrave">
                    -76 callgsubr
-40 callsubr
hintmask 10000111
419 645 -96 callsubr
hintmask 01000111
59 -616 -96 callgsubr
                </CharString>
                <CharString name="uhungarumlaut">
                    -76 callgsubr
-40 callsubr
hintmask 10000111
158 646 -92 callgsubr
hintmask 01000111
68 -647 -96 callgsubr
                </CharString>
                <CharString name="umacron">
                    -76 callgsubr
158 62 -40 callsubr
hintmask 1000011110000000
496 741 -65 callsubr
hintmask 0100011110000000
-41 -681 rmoveto
hintmask 0010101110000000
-82 callsubr
hintmask 1000011110000000
-198 2 -142 3 -96 vhcurveto
-33 -47 -49 -22 -58 hhcurveto
-74 -43 39 109 hvcurveto
345 vlineto
hintmask 1001001110000000
-72 -5 rlineto
-362 vlineto
-133 65 -54 97 78 60 36 37 46 vhcurveto
endchar
                </CharString>
                <CharString name="underscore">
                    -113 57 hstem
45 534 vstem
579 -56 rmoveto
-534 -57 534 hlineto
endchar
                </CharString>
                <CharString name="underscore.alt">
                    -113 57 hstem
-4 633 vstem
629 -56 rmoveto
-633 -57 633 hlineto
endchar
                </CharString>
                <CharString name="uni00A0">
                    endchar
                </CharString>
                <CharString name="uogonek">
                    -13 61 -24 -21 533 -20 23 -20 22 -20 17 callsubr
126 66 74 71 hintmask 10001111
496 -231 rmoveto
7 58 rlineto
-98 11 -37 18 27 vvcurveto
hintmask 01010111
27 33 36 119 57 vhcurveto
-5 125 -2 179 232 vvcurveto
-71 hlineto
hintmask 10001111
-181 2 -133 2 -91 vhcurveto
-51 -48 -50 -35 -60 hhcurveto
-71 -41 39 109 hvcurveto
345 vlineto
hintmask 10100111
-72 -5 rlineto
-362 vlineto
-133 63 -54 95 76 65 49 52 46 vhcurveto
5 -77 rlineto
-111 -58 -41 -42 -44 vvcurveto
hintmask 10001111
-51 52 -34 142 -13 vhcurveto
endchar
                </CharString>
                <CharString name="uring">
                    -76 callgsubr
87 -14 callsubr
104 72 -7 -12 callgsubr
-17 71 hintmask 1000011101100000
314 841 -98 callsubr
hintmask 0100011110010000
141 -796 rmoveto
hintmask 0010101110010000
-82 callsubr
hintmask 1000011110010000
-198 2 -142 3 -96 vhcurveto
-33 -47 -49 -22 -58 hhcurveto
-74 -43 39 109 hvcurveto
345 vlineto
hintmask 1001001110010000
-72 -5 rlineto
-362 vlineto
-133 65 -54 97 78 60 36 37 46 vhcurveto
endchar
                </CharString>
                <CharString name="v">
                    -4 69 474 -20 22 -20 hstemhm
61 505 hintmask 10110000
318 65 rmoveto
-8 hlineto
-66 159 -57 159 -54 158 -72 -4 rcurveline
62 -180 68 -180 75 -181 rrcurveto
93 hlineto
hintmask 11010000
75 180 70 182 62 181 rrcurveto
-72 hlineto
hintmask 10110000
-53 -157 -58 -159 -65 -158 rrcurveto
endchar
                </CharString>
                <CharString name="w">
                    -25 callsubr
425 hmoveto
-102 callsubr
                </CharString>
                <CharString name="wacute">
                    -25 callsubr
205 651 -107 callgsubr
220 -651 rmoveto
-102 callsubr
                </CharString>
                <CharString name="wcircumflex">
                    -25 callsubr
460 622 -100 callgsubr
116 -754 rmoveto
-102 callsubr
                </CharString>
                <CharString name="wdieresis">
                    0 94 445 -20 111 -6 callsubr
78 71 7.5 -67 callgsubr
8 68 hintmask 11101100
471 630 -100 callsubr
268 -630 rmoveto
hintmask 11110110
-102 callsubr
                </CharString>
                <CharString name="wgrave">
                    0 94 445 -20 263 -20 hstem
78 71 331 68 vstem
417 642 -96 callsubr
31 -611 rmoveto
-102 callsubr
                </CharString>
                <CharString name="x">
                    19 -21 23 -5 callgsubr
536 -20 22 -20 hstemhm
62 501 hintmask 10001100
482 -2 rmoveto
hintmask 00110100
78 5 -201 267 204 269 rlineto
-77 hlineto
-169 -227 rlineto
hintmask 01001100
-177 229 -77 -5 205 -268 -206 -268 rlineto
76 hlineto
171 227 rlineto
endchar
                </CharString>
                <CharString name="y">
                    -51 callgsubr
85 -197 -95 callsubr
                </CharString>
                <CharString name="yacute">
                    -51 callgsubr
212 653 -107 callgsubr
-127 -850 -95 callsubr
                </CharString>
                <CharString name="ycircumflex">
                    -51 callgsubr
467 624 -100 callgsubr
-231 -953 -95 callsubr
                </CharString>
                <CharString name="ydieresis">
                    -176 -21 736 -20 22 -20 111 -6 callsubr
164.5 -67 callgsubr
hintmask 10111100
479 632 -100 callsubr
-80 -829 rmoveto
175 24 49 50 69 175 rrcurveto
hintmask 11011100
77 188 59 159 49 140 rrcurveto
-68 hlineto
-38 -102 -76 -226 -50 -120 rrcurveto
-7 hlineto
hintmask 10111100
-67 148 -66 153 -58 149 -73 -4 rcurveline
61 -148 97 -228 71 -151 rrcurveto
2 hlineto
-41 -95 -30 -23 -142 -23 rrcurveto
endchar
                </CharString>
                <CharString name="yen">
                    0 188 -55 55 116 55 329 -20 22 -20 hstemhm
276.5 71 hintmask 01101100
540 133 rmoveto
1 55 rlineto
-194 hlineto
-1 97 11 19 rlineto
184 55 -154 hlineto
hintmask 01110100
180 329 rlineto
-73 hlineto
-179 -341 rlineto
hintmask 01101100
-183 343 -77 -3 181 -328 rlineto
-155 -55 186 hlineto
11 -19 -1 -97 rlineto
-196 hlineto
-1 -55 rlineto
197 hlineto
hintmask 10101100
-1 -133 rlineto
72 hlineto
hintmask 01101100
-1 133 rlineto
endchar
                </CharString>
                <CharString name="ygrave">
                    -51 callgsubr
424 644 -96 callsubr
-316 -810 -95 callsubr
                </CharString>
                <CharString name="z">
                    -47 callgsubr
25 callsubr
538 hmoveto
-74 callsubr
                </CharString>
                <CharString name="zacute">
                    -47 callgsubr
25 callsubr
219 651 -107 callgsubr
319 -651 rmoveto
-74 callsubr
                </CharString>
                <CharString name="zcaron">
                    -47 callgsubr
149 13 callsubr
25 callsubr
334 616 -102 callgsubr
207 -616 rmoveto
-74 callsubr
                </CharString>
                <CharString name="zdotaccent">
                    -47 callgsubr
91 8 callgsubr
290.5 -42 callgsubr
vstem
361 630 -78 callsubr
249 -630 rmoveto
-74 callsubr
                </CharString>
                <CharString name="zero">
                    -56 callsubr
-163 360 rmoveto
185 60 109 112 86 54 -68 -118 19 vhcurveto
-329 -171 rlineto
-1 20 -1 21 22 vvcurveto
170 -300 rmoveto
-85 -54 67 114 -21 hvcurveto
328 171 rlineto
1 -19 1 -19 -20 vvcurveto
-185 -57 -109 -113 vhcurveto
endchar
                </CharString>
                <CharString name="zero.alt">
                    -56 callsubr
9 654 rmoveto
111 57 -114 -186 -185 -57 -109 -113 -111 -59 114 186 185 60 109 112 hvcurveto
endchar
                </CharString>
                <CharString name="zero.den">
                    -244 -61 callsubr
-244 -93 callgsubr
                </CharString>
                <CharString name="zero.inf">
                    -178 -61 callsubr
-178 -93 callgsubr
                </CharString>
                <CharString name="zero.num">
                    461 -61 callsubr
461 -93 callgsubr
                </CharString>
                <CharString name="zero.small">
                    -11 -61 callsubr
-11 -93 callgsubr
                </CharString>
                <CharString name="zero.sup">
                    350 -61 callsubr
350 -93 callgsubr
                </CharString>
                <CharString name="less_exclam_hyphen_hyphen.liga">
                    -23 685 -662 110 182 61 hstemhm
-1661 66 -15 349 264 108 -71 46 1054 349 hintmask 00101011
-914 252 rmoveto
3 124 20 244 6 130 rrcurveto
-91 hlineto
3 -130 13 -244 -124 vvcurveto
hintmask 10001011
-337 410 rmoveto
hintmask 00110101
-364 -309 rlineto
-62 vlineto
hintmask 10010101
369 -314 42 50 rlineto
hintmask 00110101
-315 265 rlineto
490 hlineto
4 61 rlineto
-493 hlineto
308 259 rlineto
456 -320 rmoveto
1285 hlineto
4 61 rlineto
-1289 hlineto
hintmask 01110101
-91 -353 rmoveto
3 110 rlineto
-108 hlineto
-2 -110 rlineto
endchar
                </CharString>
                <CharString name="equal_equal_equal.liga">
                    49 61 187 60 187 60 hstem
-1152 1679 vstem
527 604 rmoveto
-1679 -60 1678 hlineto
1 -187 rmoveto
-1679 -60 1678 hlineto
1 -187 rmoveto
-1679 -61 1678 hlineto
endchar
                </CharString>
                <CharString name="equal_equal_greater.liga">
                    -23 685 -490 61 187 60 hstemhm
-1152 1671 hintmask 01010000
114 611 rmoveto
hintmask 01110000
156 -131 rlineto
-1422 -60 1493 hlineto
111 -93 rlineto
-10 vlineto
-100 -84 rlineto
-1504 -61 1432 hlineto
-173 -145 rlineto
hintmask 10010000
41 -50 371 314 rlineto
62 vlineto
-363 309 rlineto
endchar
                </CharString>
                <CharString name="equal_less_less.liga">
                    -23 685 -490 61 187 60 hstemhm
-1152 1670 hintmask 10010000
162 612 rmoveto
-41 50 rlineto
hintmask 00110000
-214 -182 rlineto
-1059 -60 988 hlineto
-79 -67 rlineto
-62 vlineto
hintmask 01010000
68 -58 rlineto
-977 -61 1049 hlineto
hintmask 10010000
229 -195 42 50 -345 290 rlineto
10 vlineto
350 hmoveto
339 285 -41 50 -364 -309 rlineto
-62 vlineto
369 -314 42 50 -345 290 rlineto
endchar
                </CharString>
                <CharString name="exclam_equal_equal.liga">
                    -203 1000 -748 61 187 60 187 60 hstemhm
-1152 1679 -1129 579 hintmask 00101000
527 357 rmoveto
-769 hlineto
hintmask 00011000
100 187 rlineto
668 hlineto
1 60 rlineto
-638 hlineto
hintmask 00010100
88 165 rlineto
hintmask 10000100
-60 28 rlineto
hintmask 00010100
-103 -193 rlineto
-966 -60 935 hlineto
hintmask 00100100
-100 -187 rlineto
-835 -60 803 hlineto
hintmask 01000100
-99 -187 rlineto
-704 -61 672 hlineto
-122 -229 rlineto
hintmask 10000100
63 -23 rlineto
hintmask 01000100
134 252 rlineto
931 hlineto
1 61 rlineto
-900 hlineto
hintmask 00100100
99 187 rlineto
800 hlineto
endchar
                </CharString>
                <CharString name="greater_equal_greater.liga">
                    -23 685 -490 61 187 60 hstemhm
-1143 1662 hintmask 10010000
114 611 rmoveto
hintmask 00110000
156 -131 rlineto
-1150 hlineto
hintmask 10010000
-214 182 -42 -51 338 -284 rlineto
-10 vlineto
-345 -290 41 -50 rlineto
hintmask 01010000
230 195 rlineto
1152 hlineto
-173 -145 rlineto
hintmask 10010000
41 -50 371 314 rlineto
62 vlineto
-363 309 rlineto
hintmask 01010000
196 -429 rmoveto
-1152 hlineto
69 58 rlineto
62 vlineto
hintmask 00110000
-79 67 rlineto
1151 hlineto
111 -93 rlineto
-10 vlineto
endchar
                </CharString>
                <CharString name="greater_greater_equal.liga">
                    -23 685 -490 61 187 60 hstemhm
-1143 1670 hintmask 10010000
-1094 662 rmoveto
-42 -51 338 -284 rlineto
-10 vlineto
-345 -290 41 -50 371 314 rlineto
62 vlineto
350 hmoveto
hintmask 00110000
-79 67 rlineto
986 hlineto
1 60 rlineto
-1057 hlineto
hintmask 10010000
-214 182 -42 -51 338 -284 rlineto
-10 vlineto
-345 -290 41 -50 rlineto
hintmask 01010000
230 195 rlineto
1048 hlineto
1 61 rlineto
-977 hlineto
69 58 rlineto
endchar
                </CharString>
                <CharString name="hyphen_hyphen_greater.liga">
                    -23 685 -370 61 hstemhm
-1110 1629 hintmask 10100000
114 611 rmoveto
hintmask 01100000
307 -258 rlineto
-1531 -61 1532 hlineto
-315 -265 rlineto
hintmask 10100000
41 -50 rlineto
hintmask 01100000
371 314 rlineto
62 vlineto
hintmask 10100000
-363 309 rlineto
endchar
                </CharString>
                <CharString name="less_equal_equal.liga">
                    -23 685 -490 61 187 60 hstemhm
-1143 1670 hintmask 10010000
-1077 327 rmoveto
hintmask 00110000
111 93 rlineto
1492 hlineto
1 60 rlineto
-1422 hlineto
157 132 rlineto
hintmask 10010000
-41 50 -364 -309 rlineto
-62 vlineto
369 -314 42 50 rlineto
hintmask 01010000
-173 145 rlineto
1431 hlineto
1 61 rlineto
-1504 hlineto
-100 84 rlineto
endchar
                </CharString>
                <CharString name="less_equal_greater.liga">
                    -23 685 -490 61 187 60 hstemhm
-1143 1662 hintmask 10010000
114 611 rmoveto
hintmask 00110000
156 -131 rlineto
-1165 hlineto
157 132 rlineto
hintmask 10010000
-41 50 -364 -309 rlineto
-62 vlineto
369 -314 42 50 rlineto
hintmask 01010000
-173 145 rlineto
1185 hlineto
-173 -145 rlineto
hintmask 10010000
41 -50 371 314 rlineto
62 vlineto
-363 309 rlineto
hintmask 01010000
196 -429 rmoveto
-1329 hlineto
-100 84 rlineto
10 vlineto
hintmask 00110000
111 93 rlineto
1307 hlineto
111 -93 rlineto
-10 vlineto
endchar
                </CharString>
                <CharString name="less_equal_less.liga">
                    -23 685 -490 61 187 60 hstemhm
-1143 1661 hintmask 10010000
518 27 rmoveto
-345 290 rlineto
10 vlineto
339 285 -41 50 rlineto
hintmask 00110000
-214 -182 rlineto
-1152 hlineto
157 132 rlineto
hintmask 10010000
-41 50 -364 -309 rlineto
-62 vlineto
369 -314 42 50 rlineto
hintmask 01010000
-173 145 rlineto
1152 hlineto
hintmask 10010000
229 -195 rlineto
-1553 340 rmoveto
10 vlineto
hintmask 00110000
111 93 rlineto
1152 hlineto
-79 -67 rlineto
-62 vlineto
hintmask 01010000
68 -58 rlineto
-1152 hlineto
endchar
                </CharString>
                <CharString name="less_hyphen_greater.liga">
                    -23 685 -370 61 hstemhm
-1143 1662 hintmask 10100000
156 662 rmoveto
-42 -51 rlineto
hintmask 01100000
307 -258 rlineto
-1467 hlineto
308 259 rlineto
hintmask 10100000
-41 50 -364 -309 rlineto
-62 vlineto
369 -314 42 50 rlineto
hintmask 01100000
-315 265 rlineto
1469 hlineto
-315 -265 rlineto
hintmask 10100000
41 -50 371 314 rlineto
62 vlineto
endchar
                </CharString>
                <CharString name="less_hyphen_hyphen.liga">
                    -23 685 -370 61 hstemhm
-1143 1632 hintmask 01100000
-1046 353 rmoveto
308 259 rlineto
hintmask 10100000
-41 50 rlineto
hintmask 01100000
-364 -309 rlineto
-62 vlineto
hintmask 10100000
369 -314 42 50 rlineto
hintmask 01100000
-315 265 rlineto
1532 hlineto
4 61 rlineto
endchar
                </CharString>
                <CharString name="ampersand_ampersand.liga">
                    -13 60 586 67 hstem
-387 70 10 69 291 70 10 69 vstem
449 178 rmoveto
38 67 35 90 26 106 -63 7 rcurveline
-18 -86 -27 -79 -29 -62 rrcurveto
-144 163 -65 69 64 vvcurveto
65 51 60 194 -9 vhcurveto
-6 67 rlineto
-235 5 -73 -101 -93 vvcurveto
-49 23 -44 46 -60 vhcurveto
-100 -63 -49 -73 -81 vvcurveto
-5 0 -4 1 -5 vhcurveto
-45 51 38 67 35 90 26 106 rlinecurve
-63 7 -18 -86 -27 -79 -29 -62 rlinecurve
-144 163 -65 69 64 vvcurveto
65 51 60 194 -9 vhcurveto
-6 67 rlineto
-235 5 -73 -101 -93 vvcurveto
-49 23 -44 46 -60 vhcurveto
-100 -63 -49 -73 -81 vvcurveto
-85 55 -69 100 70 72 40 89 60 vhcurveto
-39 33 71 -90 134 hhcurveto
70 72 40 89 60 hvcurveto
33 -39 37 -43 39 -49 56 47 rcurveline
-47 55 -42 49 -37 42 rrcurveto
-667 -131 rmoveto
-66 -33 46 63 56 35 59 73 51 hvcurveto
37 -44 48 -53 58 -68 rrcurveto
-74 -47 -54 -36 -51 hhcurveto
440 hmoveto
-66 -33 46 63 56 35 59 73 51 hvcurveto
37 -44 48 -53 58 -68 rrcurveto
-74 -47 -54 -36 -51 hhcurveto
endchar
                </CharString>
                <CharString name="bar_bar.liga">
                    -224 66 319 66 vstem
-224 778 rmoveto
-979 66 985 vlineto
319 -6 rmoveto
-979 66 985 vlineto
endchar
                </CharString>
                <CharString name="bar_greater.liga">
                    -201 985 hstem
-233 572 vstem
-233 778 rmoveto
-979 66 vlineto
506 492 rlineto
62 vlineto
-506 431 rlineto
-895 vmoveto
809 vlineto
439 -371 rlineto
-10 vlineto
endchar
                </CharString>
                <CharString name="colon_equal.liga">
                    145 113 135 114 hstem
-370 736 vstem
-259 393 rmoveto
2 114 rlineto
-112 hlineto
-1 -114 rlineto
736 87 rmoveto
-529 -60 528 hlineto
-624 -275 rmoveto
2 114 rlineto
-112 hlineto
-1 -114 rlineto
736 88 rmoveto
-529 -61 528 hlineto
endchar
                </CharString>
                <CharString name="equal_equal.liga">
                    172 61 187 60 hstem
-527 1054 vstem
527 480 rmoveto
-1054 -60 1053 hlineto
1 -187 rmoveto
-1054 -61 1053 hlineto
endchar
                </CharString>
                <CharString name="equal_greater.liga">
                    -23 685 -490 61 187 60 hstemhm
-527 1046 hintmask 01010000
114 611 rmoveto
hintmask 01110000
156 -131 rlineto
-797 -60 868 hlineto
111 -93 rlineto
-10 vlineto
-100 -84 rlineto
-879 -61 807 hlineto
-173 -145 rlineto
hintmask 10010000
41 -50 371 314 rlineto
62 vlineto
-363 309 rlineto
endchar
                </CharString>
                <CharString name="exclam_equal.liga">
                    -203 1000 -625 61 187 60 hstemhm
-527 1054 -833 579 hintmask 00110000
526 420 rmoveto
1 60 rlineto
-407 hlineto
hintmask 00101000
153 289 rlineto
hintmask 10001000
-60 28 rlineto
hintmask 00101000
-168 -317 rlineto
-572 -60 540 hlineto
hintmask 01001000
-100 -187 rlineto
-440 -61 408 hlineto
-187 -352 rlineto
hintmask 10001000
63 -23 rlineto
hintmask 01001000
199 375 rlineto
570 hlineto
1 61 rlineto
-539 hlineto
hintmask 00101000
100 187 rlineto
endchar
                </CharString>
                <CharString name="greater_equal.liga">
                    -23 685 hstem
-387 805 vstem
-367 -23 rmoveto
783 314 rlineto
62 vlineto
-775 309 -22 -51 700 -284 rlineto
-10 vlineto
-707 -290 rlineto
804 170 rmoveto
-804 -330 21 -50 783 314 rlineto
endchar
                </CharString>
                <CharString name="hyphen_greater.liga">
                    -23 685 -370 61 hstemhm
-485 1004 hintmask 01100000
114 611 rmoveto
307 -258 rlineto
-906 -61 907 hlineto
-315 -265 rlineto
hintmask 10100000
41 -50 rlineto
hintmask 01100000
371 314 rlineto
62 vlineto
hintmask 10100000
-363 309 rlineto
endchar
                </CharString>
                <CharString name="hyphen_hyphen.liga">
                    292 61 hstem
-423 349 148 349 vstem
-74 353 rmoveto
-349 -61 345 hlineto
501 61 rmoveto
-349 -61 345 hlineto
endchar
                </CharString>
                <CharString name="less_bar.liga">
                    -201 985 hstem
-344 566 vstem
-344 353 rmoveto
-62 vlineto
500 -492 rlineto
66 985 hlineto
-66 -6 rlineto
-434 -451 rmoveto
434 366 rlineto
-803 vlineto
-434 427 rlineto
endchar
                </CharString>
                <CharString name="less_equal.liga">
                    -23 685 hstem
-251 317 rmoveto
10 vlineto
700 284 -22 51 -775 -309 rlineto
-62 vlineto
783 -314 21 50 rlineto
-21 -210 rmoveto
21 50 -804 330 rlineto
-66 vlineto
endchar
                </CharString>
                <CharString name="less_hyphen.liga">
                    -23 685 -370 61 hstemhm
-518 1007 hintmask 01100000
-421 353 rmoveto
308 259 rlineto
hintmask 10100000
-41 50 rlineto
hintmask 01100000
-364 -309 rlineto
-62 vlineto
hintmask 10100000
369 -314 42 50 rlineto
hintmask 01100000
-315 265 rlineto
907 hlineto
4 61 rlineto
endchar
                </CharString>
                <CharString name="less_slash.liga">
                    -203 1000 -820 685 hstemhm
-518 66 219 579 hintmask 10110000
-118 36 rmoveto
-334 281 rlineto
10 vlineto
339 285 rlineto
hintmask 01110000
-41 50 -364 -309 rlineto
-62 vlineto
369 -314 -84 -157 rlineto
hintmask 10110000
63 -23 516 972 -60 28 rlineto
endchar
                </CharString>
                <CharString name="plus_plus.liga">
                    292 60 hstem
-267 64 405 64 vstem
266 565 rmoveto
-64 -213 -405 213 -64 -213 -203 -60 203 -213 64 213 405 -213 64 213 202 hlineto
1 60 rlineto
-203 hlineto
endchar
                </CharString>
                <CharString name="question_question.liga">
                    0 109 577 66 hstem
-311 104 152 74 90 104 152 74 vstem
-418 686 rmoveto
289 -18 74 -50 -58 vvcurveto
-87 -212 -66 -9 -157 vhcurveto
49 -2 rlineto
15 144 231 62 121 vvcurveto
86 -98 72 -332 19 vhcurveto
413 -66 rmoveto
289 -18 74 -50 -58 vvcurveto
-87 -212 -66 -9 -157 vhcurveto
49 -2 rlineto
15 144 231 62 121 vvcurveto
86 -98 72 -332 19 vhcurveto
-217 -752 rmoveto
2 109 rlineto
-104 hlineto
-2 -109 rlineto
524 hmoveto
2 109 rlineto
-104 hlineto
-2 -109 rlineto
endchar
                </CharString>
                <CharString name="slash_greater.liga">
                    -203 1000 -820 685 hstemhm
-366 579 239 67 hintmask 10110000
213 769 rmoveto
-60 28 -519 -977 63 -23 427 805 328 -275 rlineto
-10 vlineto
-345 -290 rlineto
hintmask 01110000
41 -50 371 314 rlineto
62 vlineto
-363 309 rlineto
endchar
                </CharString>
                <CharString name="underscore_underscore.liga">
                    -113 57 hstem
-629 1258 vstem
629 -56 rmoveto
-1258 -57 1258 hlineto
endchar
                </CharString>
                <CharString name="ampersand.spacer">
                    endchar
                </CharString>
                <CharString name="bar.spacer">
                    endchar
                </CharString>
                <CharString name="colon.spacer">
                    endchar
                </CharString>
                <CharString name="equal.spacer">
                    endchar
                </CharString>
                <CharString name="exclam.spacer">
                    endchar
                </CharString>
                <CharString name="greater.spacer">
                    endchar
                </CharString>
                <CharString name="hyphen.spacer">
                    endchar
                </CharString>
                <CharString name="less.spacer">
                    endchar
                </CharString>
                <CharString name="LIG">
                    endchar
                </CharString>
                <CharString name="plus.spacer">
                    endchar
                </CharString>
                <CharString name="question.spacer">
                    endchar
                </CharString>
                <CharString name="slash.spacer">
                    endchar
                </CharString>
                <CharString name="underscore.spacer">
                    endchar
                </CharString>
                <CharString name="uniE0A0">
                    -136 63 193 127 320 64 64 64 hstemhm
0 64 0 128 0 64 128 64 0 128 0 64 hintmask 1111010101000000
512 631 rmoveto
-71 -57 -57 -71 hvcurveto
hintmask 1111010010000000
-47 26 -41 38 -22 vhcurveto
-18 vlineto
-64 -64 -64 -64 -53 -42 -11 -18 -33 vhcurveto
303 vlineto
hintmask 1111101101000000
38 22 26 41 47 vvcurveto
71 -57 57 -71 -71 -57 -57 -71 vhcurveto
hintmask 1111010101000000
-47 26 -41 38 -22 vhcurveto
-419 vlineto
hintmask 1111101010000000
-38 -22 -26 -41 -47 vvcurveto
-71 57 -57 71 71 57 57 71 34 -13 30 -21 23 vhcurveto
23 19 30 18 49 hhcurveto
128 128 128 128 hvcurveto
18 vlineto
hintmask 1111010101000000
38 22 26 41 47 vvcurveto
71 -57 57 -71 vhcurveto
hintmask 1111101101000000
-384 63 rmoveto
35 29 -29 -35 -35 -29 -29 -35 -35 -29 29 35 35 29 29 35 hvcurveto
384 -256 rmoveto
-35 -29 29 35 35 29 29 35 35 29 -29 -35 -35 -29 -29 -35 hvcurveto
-384 -512 rmoveto
-35 -29 29 35 35 29 29 35 35 29 -29 -35 -35 -29 -29 -35 hvcurveto
endchar
                </CharString>
                <CharString name="uniE0B0">
                    -205 1209 hstem
-20 692 vstem
-18 1004 rmoveto
-2 -1209 692 570 rlineto
endchar
                </CharString>
                <CharString name="uniE0B2">
                    -205 1209 hstem
-20 692 vstem
672 -205 rmoveto
-2 1209 -690 -639 rlineto
endchar
                </CharString>
            <CharString index="0">
                rmoveto
22 -33 73 41 110 75 62 58 rlinecurve
-61 57 -50 -63 -93 -89 -63 -46 rlinecurve
return
            </CharString>
            <CharString index="1">
                rmoveto
160 103 134 240 -1 hvcurveto
223 -1 -88 125 -152 hhcurveto
-160 -102 -133 -241 -222 89 -126 152 hvcurveto
8 14 callgsubr
116 63 -105 -196 -193 -62 -104 -113 -117 -62 105 197 193 62 103 113 hvcurveto
endchar
            </CharString>
            <CharString index="2">
                rmoveto
136 114 116 177 172 -96 103 -134 -135 -114 -118 -174 -173 97 -103 132 hvcurveto
12 59 rmoveto
-100 -69 83 148 139 69 79 97 100 70 -82 -147 -141 -69 -79 -98 hvcurveto
endchar
            </CharString>
            <CharString index="3">
                60 -58 50 -184 15 vhcurveto
10 119 rlineto
212 hlineto
6 52 rlineto
-267 hlineto
-16 -214 rlineto
182 -11 59 -32 -40 vvcurveto
-50 -67 -33 -185 -14 vhcurveto
4 -56 rlineto
return
            </CharString>
            <CharString index="4">
                rmoveto
90 78 60 91 133 -165 35 -109 -96 hvcurveto
14 82 60 58 137 53 -21 50 rcurveline
-169 -66 -80 -101 -124 vvcurveto
-114 68 -61 97 vhcurveto
6 49 rmoveto
-67 -48 44 89 hvcurveto
2 0 3 2 vvcurveto
102 75 119 -22 -97 vvcurveto
-59 -48 -37 -58 vhcurveto
endchar
            </CharString>
            <CharString index="5">
                rmoveto
192 168 -37 36 -152 -132 -151 132 -45 -43 190 -161 rlineto
return
            </CharString>
            <CharString index="6">
                rmoveto
138 82 85 152 hvcurveto
468 -73 -478 vlineto
-114 -45 -49 -94 -90 -55 57 122 vhcurveto
462 -73 -470 vlineto
-152 79 -83 131 vhcurveto
endchar
            </CharString>
            <CharString index="7">
                rmoveto
46 43 -191 162 rlineto
-3 hlineto
-191 -169 37 -35 151 131 rlineto
return
            </CharString>
            <CharString index="8">
                rmoveto
-86 callgsubr
-37 -45 -63 -29 -62 hhcurveto
hintmask 01011110
180 -48 rmoveto
hintmask 00111110
65 5 rlineto
-104 callsubr
hintmask 10011110
-73 callsubr
hintmask 01011110
-65 callgsubr
            </CharString>
            <CharString index="9">
                5 51 rlineto
-129 407 hlineto
-58 -5 rlineto
-68 vlineto
-138 -18 2 -44 136 9 2 callsubr
-144 -51 vlineto
return
            </CharString>
            <CharString index="10">
                rmoveto
hintmask 00111100
-82 callgsubr
hintmask 01011100
-93 callsubr
hintmask 10011100
22 -75 21 7 callgsubr
rrcurveto
hintmask 00111100
-99 callsubr
            </CharString>
            <CharString index="11">
                rmoveto
hintmask 00101011
-82 callsubr
hintmask 10000111
-198 2 -142 3 -96 vhcurveto
-33 -47 -49 -22 -58 hhcurveto
-74 -43 39 109 hvcurveto
345 vlineto
hintmask 10010011
-72 -5 rlineto
-362 vlineto
-133 65 -54 97 78 60 36 37 46 vhcurveto
endchar
            </CharString>
            <CharString index="12">
                rmoveto
4 50 rlineto
-64 hlineto
1 156 -56 -4 1 -152 rlineto
-178 hlineto
3 45 45 181 21 73 -63 5 rcurveline
-37 -134 -20 -138 1 -82 228 1 rcurveline
-27 callsubr
-1 94 rlineto
endchar
            </CharString>
            <CharString index="13">
                -89 callsubr
-83 -66 callsubr
return
            </CharString>
            <CharString index="14">
                rmoveto
112 73 95 141 138 -63 85 -110 -113 -72 -96 -140 -139 63 -84 110 hvcurveto
6 409 rmoveto
78 42 -69 -114 -110 -40 -66 -80 -78 -42 68 115 110 40 66 80 hvcurveto
endchar
            </CharString>
            <CharString index="15">
                rmoveto
35 -23 55 58 67 87 37 62 rlinecurve
-75 35 -27 -62 -49 -96 -43 -61 rlinecurve
229 -1 rmoveto
35 -23 56 59 67 87 37 61 rlinecurve
-77 32 -26 -64 -49 -91 -43 -61 rlinecurve
return
            </CharString>
            <CharString index="16">
                93 -304 rmoveto
-66 -38 31 42 39 35 31 59 23 hvcurveto
60 -29 56 -28 -41 vvcurveto
-38 -40 -30 -66 vhcurveto
endchar
            </CharString>
            <CharString index="17">
                rmoveto
169 66 81 100 125 vvcurveto
114 -69 61 -97 -90 -77 -61 -91 -132 163 -35 109 94 vhcurveto
-14 -81 -59 -58 -138 -51 rrcurveto
-5 268 rmoveto
60 48 37 57 67 48 -43 -90 vhcurveto
-2 0 -3 -2 vvcurveto
-100 -76 -120 23 96 vvcurveto
endchar
            </CharString>
            <CharString index="18">
                -342 258 293 56 -293 248 337 63 -410 -688 408 hlineto
endchar
            </CharString>
            <CharString index="19">
                rmoveto
176 58 -426 -58 177 -572 -177 -58 425 hlineto
6 58 rlineto
-181 hlineto
endchar
            </CharString>
            <CharString index="20">
                rmoveto
-1 -69 rlineto
311 -20 120 111 102 166 -355 48 127 vvcurveto
62 67 51 250 -16 vhcurveto
-5 68 2 callsubr
16 -105 -98 -95 -161 355 -45 -134 vvcurveto
-71 -94 -65 -262 23 vhcurveto
return
            </CharString>
            <CharString index="21">
                -73 -49 35 62 82 75 48 214 -23 hvcurveto
-58 1 -42 2 -38 vhcurveto
return
            </CharString>
            <CharString index="22">
                -272 22 -88 -88 -80 -135 310 -14 -106 vvcurveto
-52 -68 -49 -247 21 vhcurveto
-3 -64 rlineto
297 -19 94 87 83 139 -311 21 99 vvcurveto
46 57 46 234 -22 vhcurveto
return
            </CharString>
            <CharString index="23">
                rmoveto
193 63 104 113 47 39 -17 -34 29 vhcurveto
-254 -454 rlineto
-24 50 -13 70 88 vvcurveto
180 -302 rmoveto
-47 -38 17 33 -29 hvcurveto
253 454 rlineto
24 -50 13 -69 -88 vvcurveto
-194 -63 -103 -113 vhcurveto
-12 -62 rmoveto
160 103 134 240 -1 hvcurveto
hintmask 10011100
-1 114 -23 89 -43 59 45 79 rcurveline
hintmask 01101100
-47 26 -36 -65 rlineto
30 -36 -46 16 -54 hhcurveto
-160 -102 -133 -241 -114 24 -89 43 -59 hvcurveto
-44 -79 rlineto
hintmask 10101100
48 -25 34 63 rlineto
-29 37 46 -16 53 hhcurveto
endchar
            </CharString>
            <CharString index="24">
                rmoveto
hintmask 00110111
77 13 -166 297 rlineto
68 48 51 64 93 vvcurveto
140 -106 91 -304 -49 vhcurveto
hintmask 01011011
-686 73 260 vlineto
159 4 rlineto
-159 366 rmoveto
187 29 78 -65 -105 vvcurveto
-77 -41 -55 -57 -39 vhcurveto
-167 -3 rlineto
endchar
            </CharString>
            <CharString index="25">
                74 6 -66 229 -68 228 -74 231 rlinecurve
-103 hlineto
return
            </CharString>
            <CharString index="26">
                -111 2 -104 1 -77 vhcurveto
-243 -21 -76 118 190 vvcurveto
160 60 121 305 5 vhcurveto
-5 70 rlineto
-333 -12 -101 -163 -195 vvcurveto
return
            </CharString>
            <CharString index="27">
                230 vlineto
hintmask 11010000
224 458 rlineto
-76 hlineto
-183 -388 rlineto
hintmask 10110000
-185 390 -78 -3 224 -459 rlineto
-228 vlineto
endchar
            </CharString>
            <CharString index="28">
                -10 63 -33 -21 324 53 260 -28 callgsubr
hintmask 10110110
559 358 rmoveto
hintmask 01101110
264 -127 114 -325 -47 vhcurveto
-313 -82 -53 82 -324 vlineto
hintmask 10110110
296 -47 156 135 271 vvcurveto
-379 -299 rmoveto
264 155 vlineto
3 53 rlineto
-158 255 hlineto
216 27 89 -91 -222 vvcurveto
-213 -99 -105 -206 32 vhcurveto
endchar
            </CharString>
            <CharString index="29">
                -14 59 -27 -21 26 -21 253 49 182 62 return
            </CharString>
            <CharString index="30">
                rmoveto
252 80 89 76 74 vvcurveto
hintmask 11001000
83 -113 49 52 vvcurveto
35 42 30 144 11 vhcurveto
3 52 rlineto
hintmask 10101000
-129 7 -54 38 43 vvcurveto
hintmask 10110000
54 104 50 86 vvcurveto
81 -87 51 -248 80 vhcurveto
-24 -60 rlineto
202 -61 86 -44 -63 -67 -100 -47 -70 vvcurveto
-42 36 -45 93 -22 vhcurveto
hintmask 11001000
-95 -25 -36 -45 -41 -62 108 -55 -61 vvcurveto
-52 -89 -49 -208 -59 vhcurveto
endchar
            </CharString>
            <CharString index="31">
                -13 61 -29 -21 26 -21 533 -20 23 -20 22 -20 return
            </CharString>
            <CharString index="32">
                3 -563 rlineto
-5 hlineto
-266 563 rlineto
-84 -688 68 hlineto
-2 575 rlineto
6 hlineto
return
            </CharString>
            <CharString index="33">
                5 65 -381 -1 376 561 rlineto
63 -443 vlineto
-7 -65 373 2 -378 -562 rlineto
-63 vlineto
endchar
            </CharString>
            <CharString index="34">
                rmoveto
472 50 -472 hlineto
return
            </CharString>
            <CharString index="35">
                10 -21 32 -21 23 -21 260 54.5 320.5 62 -13 -20 hstemhm
116 73 return
            </CharString>
            <CharString index="36">
                rmoveto
6 -357 -125 hlineto
39 120 41 120 39 117 rrcurveto
6 -625 rmoveto
264 hlineto
6 63 rlineto
-203 258 171 56 -171 248 199 63 -316 hlineto
-80 -229 -79 -230 -75 -229 rrcurveto
72 hlineto
22 69 23 71 24 72 rrcurveto
143 hlineto
endchar
            </CharString>
            <CharString index="37">
                106 67 55 64 54 -56 33 -60 30 hvcurveto
return
            </CharString>
            <CharString index="38">
                -63 callgsubr
-395 -301 -73 callgsubr
return
            </CharString>
            <CharString index="39">
                51 276.5 128 return
            </CharString>
            <CharString index="40">
                73 169.5 73 return
            </CharString>
            <CharString index="41">
                -71 callsubr
hintmask 10111100
-5 61 -65 -4 rlineto
5 -125 2 -179 -232 vvcurveto
71 hlineto
hintmask 11011100
-60 callgsubr
return
            </CharString>
            <CharString index="42">
                2 -23 4 -33 1 -15 rrcurveto
endchar
            </CharString>
            <CharString index="43">
                -80 callsubr
-47 callsubr
return
            </CharString>
            <CharString index="44">
                471 614 rmoveto
-104 callgsubr
-62 callsubr
return
            </CharString>
            <CharString index="45">
                77 -47 31 -36 -25 vvcurveto
-26 -39 -17 -96 -15 vhcurveto
return
            </CharString>
            <CharString index="46">
                49.5 hstem
-41 callsubr
vstem
499 return
            </CharString>
            <CharString index="47">
                198 -2 142 -3 96 vhcurveto
32 47 50 22 58 hhcurveto
return
            </CharString>
            <CharString index="48">
                rmoveto
7 61 rlineto
-188 4 -53 27 98 vvcurveto
303 229 56 -229 158 vlineto
hintmask 11101100
-71 -6 rlineto
-152 -105 vlineto
-8 -56 rlineto
113 -314 hlineto
hintmask 11011100
-130 78 -50 227 1 vhcurveto
return
            </CharString>
            <CharString index="49">
                -71 -28 -44 -41 -54 vvcurveto
-64 62 -43 93 vhcurveto
return
            </CharString>
            <CharString index="50">
                rmoveto
54 41 -191 248 192 238 -52 45 -190 -248 -4 -73 rlineto
452 -251 rmoveto
54 41 -191 247 192 239 -52 45 -190 -248 -4 -73 rlineto
endchar
            </CharString>
            <CharString index="51">
                -40 callgsubr
hstemhm
102 67 286.5 67.5 hintmask 01111000
return
            </CharString>
            <CharString index="52">
                21 -21 hstem
206 66 vstem
402 31 rmoveto
-145 -69 -51 -49 -49 -43 callgsubr
7 59 rlineto
13 callgsubr
28 vvcurveto
27 32 35 118 57 vhcurveto
endchar
            </CharString>
            <CharString index="53">
                0 8 -2 3 -4 -4 -2 -3 0 hflex1
0 -9 2 -3 4 4 2 3 0 hflex1
return
            </CharString>
            <CharString index="54">
                6 callsubr
hstem
73 72 336 71 vstem
return
            </CharString>
            <CharString index="55">
                13 -21 hstem
374 63 vstem
266 -8 rmoveto
-62 callgsubr
6 -58 rlineto
-36 callsubr
46 -47 51 -103 57 vhcurveto
endchar
            </CharString>
            <CharString index="56">
                -176 -21 736 -20 22 -20 hstemhm
60 503 hintmask 10110000
return
            </CharString>
            <CharString index="57">
                43 185 50 hstem
145 56 220 57 vstem
228 return
            </CharString>
            <CharString index="58">
                -244 46 205 -12 callsubr
176 47 return
            </CharString>
            <CharString index="59">
                46 366 -45 callsubr
hintmask 11101000
303 return
            </CharString>
            <CharString index="60">
                0 62.5 414 62.5 return
            </CharString>
            <CharString index="61">
                630 8 callgsubr
274.5 -42 callgsubr
vstem
345 630 -78 callsubr
endchar
            </CharString>
            <CharString index="62">
                52 hstemhm
156 326 -61 61 hintmask 11000000
275 return
            </CharString>
            <CharString index="63">
                0 64.5 559.5 64 return
            </CharString>
            <CharString index="64">
                vvcurveto
-51 51 -34 142 -13 vhcurveto
return
            </CharString>
            <CharString index="65">
                73.5 return
            </CharString>
            <CharString index="66">
                rmoveto
220 63 -511 hlineto
-6 -63 rlineto
223 -625 74 hlineto
return
            </CharString>
            <CharString index="67">
                0 125 -104 -21 575 113 return
            </CharString>
            <CharString index="68">
                rmoveto
52 -249 vlineto
151 106 83 75 86 vvcurveto
73 -66 58 -226 -2 vhcurveto
-5 -52 rlineto
186 -3 52 -34 -55 vvcurveto
return
            </CharString>
            <CharString index="69">
                -60 callgsubr
endchar
            </CharString>
            <CharString index="70">
                -192 hlineto
-2 133 -2 114 -1 100 return
            </CharString>
            <CharString index="71">
                3 -20 -20 2 -22 hhcurveto
-160 -141 -112 -196 -160 89 -96 117 68 57 32 36 40 hvcurveto
endchar
            </CharString>
            <CharString index="72">
                -138 -206 -206 101 -122 145 142 124 127 214 vhcurveto
-466 -10 rmoveto
180 return
            </CharString>
            <CharString index="73">
                -236 134 -152 327 68 vhcurveto
return
            </CharString>
            <CharString index="74">
                59 42 82 29 116 10 -3 75 rcurveline
return
            </CharString>
            <CharString index="75">
                0 58 572 58 return
            </CharString>
            <CharString index="76">
                -20 26 -20 hstemhm
return
            </CharString>
            <CharString index="77">
                80 11 -249 346 233 337 rlineto
-78 hlineto
-212 -311 rlineto
-82 311 -73 hlineto
return
            </CharString>
            <CharString index="78">
                0 63 625 -20 hstem
139 73 return
            </CharString>
            <CharString index="79">
                63 -10 -20 hstemhm
107 73 305 74 return
            </CharString>
            <CharString index="80">
                0 55 664 55 hstem
279 72 return
            </CharString>
            <CharString index="81">
                -13 60 -28 -21 25 -21 488 61 -5 -20 249 -31 callgsubr
73 71 292 72 return
            </CharString>
            <CharString index="82">
                rmoveto
48 49 -266 239 271 235 -47 50 -277 -249 -5 -73 rlineto
endchar
            </CharString>
            <CharString index="83">
                3 callgsubr
hstemhm
return
            </CharString>
            <CharString index="84">
                hstemhm
112 71 270 71 return
            </CharString>
            <CharString index="85">
                182 52 181 56 return
            </CharString>
            <CharString index="86">
                0 55 429 55 19 -20 hstemhm
232 70 return
            </CharString>
            <CharString index="87">
                -6 64 570 65 hstem
106 74 return
            </CharString>
            <CharString index="88">
                21 -21 490 61 return
            </CharString>
            <CharString index="89">
                rmoveto
354 hlineto
7 59 rlineto
-293 849 289 59 -357 hlineto
endchar
            </CharString>
            <CharString index="90">
                -17 62 -34 -21 654 61 -7 -20 hstemhm
61 73 356 74 hintmask 10101100
return
            </CharString>
            <CharString index="91">
                -23 callsubr
hstem
-22 callgsubr
vstem
471 return
            </CharString>
            <CharString index="92">
                -19 callgsubr
-11 -20 return
            </CharString>
            <CharString index="93">
                hstem
299 71 vstem
return
            </CharString>
            <CharString index="94">
                15 -12 callsubr
26 -21 313 59 311 -20 hstemhm
116 73 return
            </CharString>
            <CharString index="95">
                55 180 55 return
            </CharString>
            <CharString index="96">
                53 hstemhm
179 68 -65 72 32 67 -61 64 hintmask 10110000
517 return
            </CharString>
            <CharString index="97">
                365 630 rmoveto
9 147 rlineto
-76 hlineto
-5 -147 rlineto
return
            </CharString>
            <CharString index="98">
                -72 6 -62 -85 -64 -78 -69 -76 rlinecurve
-94 -3 rlineto
482 vlineto
return
            </CharString>
            <CharString index="99">
                52 hstemhm
271 63 -61 67 33 71 -65 68 hintmask 10101000
106 return
            </CharString>
            <CharString index="100">
                rmoveto
-3 callsubr
            </CharString>
            <CharString index="101">
                hstemhm
53 519 return
            </CharString>
            <CharString index="102">
                -21 24 -21 return
            </CharString>
            <CharString index="103">
                -57 -51 127 -88 hhcurveto
-60 -43 -56 -110 -42 hvcurveto
return
            </CharString>
            <CharString index="104">
                76 12 -221 272 74 81 69 87 65 89 rlinecurve
return
            </CharString>
            <CharString index="105">
                -20 callgsubr
281 74 vstem
return
            </CharString>
            <CharString index="106">
                -71 -6 rlineto
-775 71 245 vlineto
90 3 rlineto
return
            </CharString>
            <CharString index="107">
                -34 callgsubr
endchar
            </CharString>
            <CharString index="108">
                hintmask 100000000000000000000000000000001000000000000000
return
            </CharString>
            <CharString index="109">
                55 197 -20 167 51 return
            </CharString>
            <CharString index="110">
                50 109 -68 callgsubr
return
            </CharString>
            <CharString index="111">
                59 849 59 hstem
165 68 vstem
165 return
            </CharString>
            <CharString index="112">
                227 -607 rmoveto
return
            </CharString>
            <CharString index="113">
                -17 62 598 62 return
            </CharString>
            <CharString index="114">
                -75 21 -75 return
            </CharString>
            <CharString index="115">
                147 hstem
return
            </CharString>
            <CharString index="116">
                hstem
248 53 208 53 vstem
370 return
            </CharString>
            <CharString index="117">
                50 97 2 callgsubr
hstemhm
return
            </CharString>
            <CharString index="118">
                59 848 60 hstem
394 67 vstem
105 return
            </CharString>
            <CharString index="119">
                21 -21 625 63 hstem
276 74 vstem
return
            </CharString>
            <CharString index="120">
                -97 10 -37 18 return
            </CharString>
            <CharString index="121">
                660 rmoveto
return
            </CharString>
            <CharString index="122">
                rmoveto
1 93 rlineto
-85 hlineto
-1 -93 rlineto
return
            </CharString>
            <CharString index="123">
                1030 hstem
418 71 vstem
148 return
            </CharString>
            <CharString index="124">
                hstem
64 52 209 52 vstem
253 return
            </CharString>
            <CharString index="125">
                hstemhm
86 71 return
            </CharString>
            <CharString index="126">
                hhcurveto
92 68 -77 -139 -146 return
            </CharString>
            <CharString index="127">
                rmoveto
7 59 rlineto
13 callgsubr
return
            </CharString>
            <CharString index="128">
                -233 52 17 -21 348 52 return
            </CharString>
            <CharString index="129">
                30 46 48 21 56 hhcurveto
endchar
            </CharString>
            <CharString index="130">
                33.5 return
            </CharString>
            <CharString index="131">
                167 460 rmoveto
return
            </CharString>
            <CharString index="132">
                58.5 return
            </CharString>
            <CharString index="133">
                60 61 60 return
            </CharString>
</ttFont>
